<!DOCTYPE svg
  PUBLIC '-//W3C//DTD SVG 20000303 Stylable//EN'
  'http://www.w3.org/TR/2000/03/WD-SVG-20000303/DTD/svg-20000303-stylable.dtd' []>
<svg height="64px" viewBox="0 0 1000 1000" width="64px" xmlns="http://www.w3.org/2000/svg">
	<path d="M28,28 l942,0 0,709 -942,0 0,-709z" style="fill:#ff0;stroke:#000;stroke-width:2"/>
	<path d="M67,67 l864,0 0,276 -864,0 0,-276z" style="fill:#000;stroke:#000;stroke-width:2"/>
	<path d="M791,300 l0,-190 25,0 52,127 0,-127 24,0 0,190 -27,0 -50,-123 0,123 -24,0z" style="fill:#ff0"/>
	<ellipse cx="709" cy="205" rx="61" ry="98" style="fill:#ff0"/>
	<path d="M604,300 l0,-190 25,0 0,190 -25,0z" style="fill:#ff0"/>
	<path d="M526,300 l0,-158 -37,0 0,-32 99,0 0,32 -37,0 0,158 -25,0z" style="fill:#ff0"/>
	<path d="M370,110 l25,0 0,105 0,3 0,2 0,3 0,3 0,2 0,3 0,2 0,2 0,2 0,2 0,1 0,2 0,1 0,1 0,2 0,0 0,3 1,3 1,3 1,3 1,2 1,2 2,2 1,1 2,2 2,1 2,1 2,1 2,1 3,0 2,0 3,1 2,-1 3,0 2,0 2,-1 2,-1 2,-1 2,-1 1,-2 1,-1 2,-1 1,-2 1,-2 1,-3 1,-2 0,-2 0,-2 0,-2 1,-1 0,-1 0,-2 0,-2 0,-2 1,-1 0,-3 0,-2 0,-2 0,-2 0,-3 0,-2 1,-3 0,-3 0,-3 0,-106 25,0 0,100 0,4 0,4 0,4 0,4 0,3 -1,4 0,3 0,3 0,3 0,3 0,3 -1,2 0,3 0,2 0,2 0,2 -1,4 0,3 -1,3 -1,3 -1,3 -1,3 -1,2 -2,3 -1,2 -2,2 -2,2 -2,2 -2,2 -2,1 -2,2 -2,1 -3,1 -3,1 -3,1 -3,1 -3,1 -3,1 -4,0 -4,0 -4,0 -4,0 -4,0 -3,-1 -4,-1 -3,0 -3,-1 -2,-1 -3,-2 -2,-1 -2,-2 -2,-2 -2,-2 -1,-3 -2,-2 -1,-2 -1,-3 -1,-2 -1,-3 -2,-3 0,-3 -1,-3 -1,-3 0,-2 -1,-2 0,-2 0,-3 0,-2 0,-2 -1,-3 0,-3 0,-3 0,-3 0,-4 0,-3 0,-4 0,-3 0,-4 0,-4 0,-5 0,-101z" style="fill:#ff0"/>
	<path d="M356,300 l-28,0 -11,-43 -51,0 -10,43 -27,0 49,-190 27,0 51,190z" style="fill:#ff0"/>
	<path d="M196,231 l25,11 -1,4 -1,3 -1,4 -1,3 -1,3 -1,4 -1,3 -1,3 -2,2 -1,3 -1,3 -2,2 -1,3 -1,2 -2,2 -1,2 -2,1 -2,2 -2,2 -2,1 -1,1 -3,2 -2,1 -2,1 -2,1 -2,1 -3,1 -2,0 -3,1 -2,0 -3,0 -2,0 -3,0 -3,0 -3,-1 -3,0 -3,-1 -3,-2 -2,-1 -3,-1 -3,-2 -2,-2 -3,-2 -2,-2 -2,-3 -2,-2 -2,-3 -2,-3 -2,-3 -2,-3 -2,-4 -1,-3 -2,-4 -1,-5 -2,-4 -1,-4 -1,-5 -1,-4 0,-5 -1,-5 0,-5 -1,-5 0,-5 0,-6 0,-5 0,-6 0,-6 1,-5 0,-5 1,-6 1,-4 1,-5 1,-5 1,-4 1,-4 2,-5 1,-3 2,-4 2,-4 2,-3 2,-3 2,-3 2,-3 2,-3 3,-2 3,-2 2,-2 3,-2 3,-2 2,-1 4,-1 3,-1 3,-1 3,-1 3,0 3,0 3,0 2,0 3,1 3,1 2,0 3,1 2,1 3,2 2,1 3,2 2,2 2,2 2,2 2,2 2,3 2,2 1,2 1,1 1,2 1,2 1,2 1,2 1,2 0,3 1,2 1,2 1,3 1,2 1,3 0,3 1,3 1,3 -25,6 -1,-4 -1,-3 -1,-3 -1,-3 -2,-3 -1,-2 -2,-2 -1,-2 -2,-2 -2,-2 -2,-2 -2,-1 -3,-1 -2,-1 -3,0 -2,-1 -4,1 -3,0 -3,1 -3,2 -3,2 -3,2 -2,3 -2,4 -1,1 -2,3 -1,2 -1,2 0,3 -1,3 -1,3 -1,3 0,4 -1,3 0,4 0,3 -1,4 0,4 0,4 0,4 0,4 0,4 0,4 1,4 0,3 0,4 1,3 0,4 1,2 1,3 0,3 1,3 1,2 1,2 1,2 1,2 2,4 3,3 3,2 3,3 3,2 3,1 3,1 4,0 2,0 3,0 2,-1 3,-1 2,-2 2,-1 2,-2 2,-2 1,-2 0,-1 1,-1 1,-2 1,-2 1,-1 1,-2 0,-2 1,-2 1,-2 1,-2 0,-2 1,-3 0,-2 1,-2 0,-2z" style="fill:#ff0"/>
	<ellipse cx="709" cy="205" rx="36" ry="65" style="fill:#000"/>
	<path d="M309,226 l-18,-70 -17,70 35,0z" style="fill:#000"/>
</svg>