<?xml version="1.0" encoding="iso-8859-1"?>
<!-- Generator: Adobe Illustrator 16.0.0, SVG Export Plug-In . SVG Version: 6.00 Build 0)  -->
<!DOCTYPE svg PUBLIC "-//W3C//DTD SVG 1.1//EN" "http://www.w3.org/Graphics/SVG/1.1/DTD/svg11.dtd">
<svg version="1.1" xmlns="http://www.w3.org/2000/svg" xmlns:xlink="http://www.w3.org/1999/xlink" x="0px" y="0px" width="60px"
	 height="100px" viewBox="0 0 60 100" style="enable-background:new 0 0 60 100;" xml:space="preserve">
<g id="Layer_2">
	<rect x="3" y="7" style="fill:#626463;" width="54" height="83.993"/>
	<polyline style="fill:#E2DACF;" points="3,7 57,7 57,3 41,3 40.542,5 37.458,5 36.917,3 23,3 22.667,5 19.292,5 18.833,3 3,3 	"/>
	<circle style="stroke:#000000;stroke-width:0.2;stroke-miterlimit:10;" cx="30.292" cy="12.377" r="2.792"/>
	<circle style="stroke:#000000;stroke-width:0.2;stroke-miterlimit:10;" cx="48.292" cy="12.377" r="2.792"/>
	<circle style="stroke:#000000;stroke-width:0.2;stroke-miterlimit:10;" cx="12.292" cy="12.377" r="2.792"/>
	<circle style="fill:#B7B7B7;stroke:#4D4D4D;stroke-width:0.4;stroke-miterlimit:10;" cx="21.083" cy="11" r="3.167"/>
	
		<line style="fill:#626463;stroke:#707070;stroke-linecap:round;stroke-miterlimit:10;" x1="20.197" y1="11.838" x2="21.896" y2="10.038"/>
	
		<line style="fill:#626463;stroke:#707070;stroke-linecap:round;stroke-miterlimit:10;" x1="20.178" y1="10.057" x2="21.916" y2="11.819"/>
	<circle style="fill:#B7B7B7;stroke:#4D4D4D;stroke-width:0.4;stroke-miterlimit:10;" cx="39.083" cy="11" r="3.167"/>
	
		<line style="fill:#626463;stroke:#707070;stroke-linecap:round;stroke-miterlimit:10;" x1="38.197" y1="11.838" x2="39.896" y2="10.038"/>
	
		<line style="fill:#626463;stroke:#707070;stroke-linecap:round;stroke-miterlimit:10;" x1="38.178" y1="10.057" x2="39.916" y2="11.819"/>
	<rect x="3" y="36.938" style="fill:#4C4F54;" width="54" height="33"/>
	<rect x="3" y="32.063" style="fill:#C55851;" width="54" height="3.875"/>
	<rect x="3" y="35.938" style="fill:#FFFFFF;" width="54" height="1"/>
	<rect x="10.001" y="38.996" style="fill:#C55851;" width="39.999" height="4.688"/>
	<rect x="10.001" y="53.082" style="fill:#2B8A62;" width="39.999" height="7.258"/>
	<g>
		<path style="fill:#FFFFFF;" d="M44.344,41.265c0,1.431-1.016,2.087-2.063,2.087c-1.143,0-2.023-0.751-2.023-2.015
			c0-1.264,0.832-2.071,2.087-2.071C43.545,39.266,44.344,40.089,44.344,41.265z M41.514,41.305c0,0.672,0.28,1.175,0.8,1.175
			c0.472,0,0.775-0.472,0.775-1.175c0-0.583-0.224-1.175-0.775-1.175C41.729,40.129,41.514,40.729,41.514,41.305z"/>
		<path style="fill:#FFFFFF;" d="M45.098,40.601c0-0.488-0.016-0.903-0.032-1.247h1.056l0.056,0.536h0.024
			c0.16-0.248,0.56-0.624,1.207-0.624c0.8,0,1.399,0.528,1.399,1.679v2.319h-1.215v-2.167c0-0.503-0.176-0.847-0.616-0.847
			c-0.336,0-0.536,0.232-0.616,0.456c-0.032,0.072-0.048,0.192-0.048,0.304v2.255h-1.215V40.601z"/>
	</g>
	<g>
		<path style="fill:#FFFFFF;" d="M44.088,57.184c0,1.432-1.016,2.088-2.063,2.088c-1.143,0-2.023-0.752-2.023-2.016
			s0.832-2.07,2.087-2.07C43.288,55.186,44.088,56.01,44.088,57.184z M41.257,57.225c0,0.672,0.28,1.176,0.8,1.176
			c0.472,0,0.775-0.473,0.775-1.176c0-0.584-0.224-1.176-0.775-1.176C41.473,56.049,41.257,56.648,41.257,57.225z"/>
		<path style="fill:#FFFFFF;" d="M47.449,59.184v-3.016h-1.247v3.016h-1.224v-3.016h-0.512v-0.895h0.512v-0.08
			c0-0.463,0.12-0.928,0.448-1.256c0.264-0.264,0.648-0.432,1.199-0.432c0.2,0,0.4,0.049,0.52,0.096l-0.168,0.896
			c-0.096-0.033-0.2-0.057-0.312-0.057c-0.359,0-0.472,0.297-0.472,0.688v0.145h1.255v-0.152c0-0.471,0.144-0.99,0.496-1.311
			c0.304-0.289,0.72-0.393,1.08-0.393c0.264,0,0.48,0.033,0.647,0.08l-0.048,0.936c-0.112-0.031-0.232-0.057-0.4-0.057
			c-0.399,0-0.567,0.313-0.567,0.697v0.199h0.783v0.895h-0.775v3.016H47.449z"/>
	</g>
	<polyline style="fill:#E2DACF;" points="57.093,90.993 3,90.993 3,95 19.027,95 19.486,92.997 22.575,92.997 23.118,95 37.058,95 
		37.392,92.997 40.773,92.997 41.231,95 57.093,95 	"/>
	<circle style="stroke:#000000;stroke-width:0.2;stroke-miterlimit:10;" cx="29.754" cy="85.607" r="2.797"/>
	<circle style="stroke:#000000;stroke-width:0.2;stroke-miterlimit:10;" cx="11.722" cy="85.607" r="2.797"/>
	<circle style="stroke:#000000;stroke-width:0.2;stroke-miterlimit:10;" cx="47.784" cy="85.607" r="2.797"/>
	<circle style="fill:#B7B7B7;stroke:#4D4D4D;stroke-miterlimit:10;" cx="38.978" cy="86.986" r="3.172"/>
	<g>
		<rect x="10.001" y="44.496" style="fill:#C89846;" width="10.97" height="4"/>
		<rect x="39.03" y="44.496" style="fill:#2B8A62;" width="10.97" height="4"/>
	</g>
	
		<line style="fill:#626463;stroke:#707070;stroke-linecap:round;stroke-miterlimit:10;" x1="39.866" y1="86.147" x2="38.163" y2="87.95"/>
	
		<line style="fill:#626463;stroke:#707070;stroke-linecap:round;stroke-miterlimit:10;" x1="39.885" y1="87.931" x2="38.144" y2="86.165"/>
	<circle style="fill:#B7B7B7;stroke:#4D4D4D;stroke-miterlimit:10;" cx="20.947" cy="86.986" r="3.172"/>
	
		<line style="fill:#626463;stroke:#707070;stroke-linecap:round;stroke-miterlimit:10;" x1="21.834" y1="86.147" x2="20.133" y2="87.95"/>
	
		<line style="fill:#626463;stroke:#707070;stroke-linecap:round;stroke-miterlimit:10;" x1="21.854" y1="87.931" x2="20.113" y2="86.165"/>
	<rect x="3" y="16.085" style="fill:#4F4E4A;" width="54" height="1.833"/>
	<rect x="2.754" y="79.5" style="fill:#4F4E4A;" width="54" height="1.833"/>
	<rect id="XMLID_1_" x="20.751" y="34.589" style="fill:#333333;" width="18.499" height="27.412"/>
</g>
<g id="on">
	<rect x="20.699" y="35.938" style="fill:#FFFFFF;" width="18.603" height="7.326"/>
	<polygon style="fill:#BCBCBC;" points="39.302,43.264 20.699,43.264 21.957,47.153 38.045,47.153 	"/>
	<rect x="21.957" y="47.101" style="fill:#FFFFFF;" width="16.088" height="7.709"/>
	<g>
	</g>
	<g>
	</g>
	<g>
	</g>
	<g>
	</g>
	<g>
	</g>
	<g>
	</g>
	<g>
	</g>
	<g>
	</g>
	<g>
	</g>
	<g>
	</g>
	<g>
	</g>
	<g>
	</g>
	<g>
	</g>
	<g>
	</g>
	<g>
	</g>
</g>
</svg>
