<?xml version="1.0" encoding="iso-8859-1"?>
<!-- Generator: Adobe Illustrator 16.0.0, SVG Export Plug-In . SVG Version: 6.00 Build 0)  -->
<!DOCTYPE svg PUBLIC "-//W3C//DTD SVG 1.1//EN" "http://www.w3.org/Graphics/SVG/1.1/DTD/svg11.dtd">
<svg version="1.1" xmlns="http://www.w3.org/2000/svg" xmlns:xlink="http://www.w3.org/1999/xlink" x="0px" y="0px" width="70px"
	 height="110px" viewBox="0 0 70 110" style="enable-background:new 0 0 70 110;" xml:space="preserve">
<g id="Layer_3">
	<linearGradient id="SVGID_1_" gradientUnits="userSpaceOnUse" x1="3" y1="61.1875" x2="55.25" y2="61.1875">
		<stop  offset="0" style="stop-color:#808080"/>
		<stop  offset="0.05" style="stop-color:#BCBABD"/>
		<stop  offset="0.95" style="stop-color:#BCBABD"/>
		<stop  offset="1" style="stop-color:#616161"/>
	</linearGradient>
	<rect x="3" y="28.125" style="fill:url(#SVGID_1_);" width="52.25" height="66.125"/>
	<linearGradient id="SVGID_2_" gradientUnits="userSpaceOnUse" x1="55.25" y1="63.25" x2="68.75" y2="63.25">
		<stop  offset="0" style="stop-color:#808080"/>
		<stop  offset="0.15" style="stop-color:#BCBABD"/>
		<stop  offset="0.85" style="stop-color:#BCBABD"/>
		<stop  offset="1" style="stop-color:#616161"/>
	</linearGradient>
	<rect x="55.25" y="38" style="fill:url(#SVGID_2_);" width="13.5" height="50.5"/>
	<linearGradient id="SVGID_3_" gradientUnits="userSpaceOnUse" x1="55.25" y1="26.2915" x2="68.75" y2="26.2915">
		<stop  offset="0" style="stop-color:#808080"/>
		<stop  offset="0.15" style="stop-color:#BCBABD"/>
		<stop  offset="0.85" style="stop-color:#BCBABD"/>
		<stop  offset="1" style="stop-color:#616161"/>
	</linearGradient>
	<rect x="55.25" y="16.833" style="fill:url(#SVGID_3_);" width="13.5" height="18.916"/>
	<rect x="55.25" y="35.75" style="fill:#9B9B9B;" width="13.5" height="2.25"/>
	<rect x="3" y="24.125" style="fill:#BCBABD;" width="52.25" height="4"/>
	<rect x="3" y="16.833" style="fill:#BCBABD;" width="52.25" height="8.167"/>
	<rect x="12.375" y="3.5" style="fill:#BCBABD;" width="33.5" height="12"/>
	<rect x="12.375" y="1.833" style="fill:#9B9B9B;" width="33.5" height="1.667"/>
	<rect x="3" y="26.563" style="fill:#9B9B9B;" width="52.25" height="1.563"/>
	<rect x="3" y="15.5" style="fill:#9B9B9B;" width="52.25" height="1.333"/>
	<linearGradient id="SVGID_4_" gradientUnits="userSpaceOnUse" x1="3" y1="22.6719" x2="6.125" y2="22.6719">
		<stop  offset="0" style="stop-color:#808080"/>
		<stop  offset="0.15" style="stop-color:#BCBABD"/>
		<stop  offset="0.85" style="stop-color:#BCBABD"/>
		<stop  offset="1" style="stop-color:#616161"/>
	</linearGradient>
	<rect x="3" y="18" style="fill:url(#SVGID_4_);" width="3.125" height="9.344"/>
	<rect x="3" y="16.833" style="fill:#7F7F7D;" width="3.125" height="1.167"/>
	<linearGradient id="SVGID_5_" gradientUnits="userSpaceOnUse" x1="27.5625" y1="23.875" x2="30.6875" y2="23.875">
		<stop  offset="0" style="stop-color:#808080"/>
		<stop  offset="0.15" style="stop-color:#BCBABD"/>
		<stop  offset="0.85" style="stop-color:#BCBABD"/>
		<stop  offset="1" style="stop-color:#616161"/>
	</linearGradient>
	<rect x="27.563" y="21.162" style="fill:url(#SVGID_5_);" width="3.125" height="5.427"/>
	<rect x="27.563" y="18.755" style="fill:#7F7F7D;" width="3.125" height="2.479"/>
	<linearGradient id="SVGID_6_" gradientUnits="userSpaceOnUse" x1="15.8125" y1="23.875" x2="18.9375" y2="23.875">
		<stop  offset="0" style="stop-color:#808080"/>
		<stop  offset="0.15" style="stop-color:#BCBABD"/>
		<stop  offset="0.85" style="stop-color:#BCBABD"/>
		<stop  offset="1" style="stop-color:#616161"/>
	</linearGradient>
	<rect x="15.813" y="21.162" style="fill:url(#SVGID_6_);" width="3.125" height="5.427"/>
	<rect x="15.813" y="18.755" style="fill:#7F7F7D;" width="3.125" height="2.479"/>
	<linearGradient id="SVGID_7_" gradientUnits="userSpaceOnUse" x1="40.0625" y1="23.875" x2="43.1875" y2="23.875">
		<stop  offset="0" style="stop-color:#808080"/>
		<stop  offset="0.15" style="stop-color:#BCBABD"/>
		<stop  offset="0.85" style="stop-color:#BCBABD"/>
		<stop  offset="1" style="stop-color:#616161"/>
	</linearGradient>
	<rect x="40.063" y="21.162" style="fill:url(#SVGID_7_);" width="3.125" height="5.427"/>
	<rect x="40.063" y="18.755" style="fill:#7F7F7D;" width="3.125" height="2.479"/>
	<linearGradient id="SVGID_8_" gradientUnits="userSpaceOnUse" x1="52.125" y1="22.6719" x2="55.25" y2="22.6719">
		<stop  offset="0" style="stop-color:#808080"/>
		<stop  offset="0.15" style="stop-color:#BCBABD"/>
		<stop  offset="0.85" style="stop-color:#BCBABD"/>
		<stop  offset="1" style="stop-color:#616161"/>
	</linearGradient>
	<rect x="52.125" y="18" style="fill:url(#SVGID_8_);" width="3.125" height="9.344"/>
	<rect x="52.125" y="16.833" style="fill:#7F7F7D;" width="3.125" height="1.167"/>
	<linearGradient id="SVGID_9_" gradientUnits="userSpaceOnUse" x1="29.1255" y1="105.541" x2="29.1255" y2="95.8125">
		<stop  offset="0" style="stop-color:#808080"/>
		<stop  offset="0.15" style="stop-color:#737373"/>
		<stop  offset="0.7734" style="stop-color:#737373"/>
		<stop  offset="0.85" style="stop-color:#454545"/>
		<stop  offset="1" style="stop-color:#3D3D3D"/>
	</linearGradient>
	<rect x="3" y="95.813" style="fill:url(#SVGID_9_);" width="52.25" height="9.729"/>
	<rect x="3" y="94.25" style="fill:#666666;" width="52.25" height="1.563"/>
	<rect x="3" y="105.541" style="fill:#666666;" width="52.25" height="1.334"/>
	
		<linearGradient id="SVGID_10_" gradientUnits="userSpaceOnUse" x1="3" y1="101.4219" x2="6.125" y2="101.4219" gradientTransform="matrix(1 0 0 -1 0 201.125)">
		<stop  offset="0" style="stop-color:#454545"/>
		<stop  offset="0.15" style="stop-color:#7A7A7A"/>
		<stop  offset="0.85" style="stop-color:#7A7A7A"/>
		<stop  offset="1" style="stop-color:#454545"/>
	</linearGradient>
	<rect x="3" y="95.031" style="fill:url(#SVGID_10_);" width="3.125" height="9.344"/>
	<rect x="3" y="104.375" style="fill:#353535;" width="3.125" height="1.166"/>
	
		<linearGradient id="SVGID_11_" gradientUnits="userSpaceOnUse" x1="27.5625" y1="102.626" x2="30.6875" y2="102.626" gradientTransform="matrix(1 0 0 -1 0 201.125)">
		<stop  offset="0" style="stop-color:#454545"/>
		<stop  offset="0.15" style="stop-color:#7A7A7A"/>
		<stop  offset="0.85" style="stop-color:#7A7A7A"/>
		<stop  offset="1" style="stop-color:#454545"/>
	</linearGradient>
	<rect x="27.563" y="95.785" style="fill:url(#SVGID_11_);" width="3.125" height="5.428"/>
	<rect x="27.563" y="101.141" style="fill:#353535;" width="3.125" height="2.479"/>
	
		<linearGradient id="SVGID_12_" gradientUnits="userSpaceOnUse" x1="15.8125" y1="102.626" x2="18.9375" y2="102.626" gradientTransform="matrix(1 0 0 -1 0 201.125)">
		<stop  offset="0" style="stop-color:#454545"/>
		<stop  offset="0.15" style="stop-color:#7A7A7A"/>
		<stop  offset="0.85" style="stop-color:#7A7A7A"/>
		<stop  offset="1" style="stop-color:#454545"/>
	</linearGradient>
	<rect x="15.813" y="95.785" style="fill:url(#SVGID_12_);" width="3.125" height="5.428"/>
	<rect x="15.813" y="101.141" style="fill:#353535;" width="3.125" height="2.479"/>
	
		<linearGradient id="SVGID_13_" gradientUnits="userSpaceOnUse" x1="40.0625" y1="102.626" x2="43.1875" y2="102.626" gradientTransform="matrix(1 0 0 -1 0 201.125)">
		<stop  offset="0" style="stop-color:#454545"/>
		<stop  offset="0.15" style="stop-color:#7A7A7A"/>
		<stop  offset="0.85" style="stop-color:#7A7A7A"/>
		<stop  offset="1" style="stop-color:#454545"/>
	</linearGradient>
	<rect x="40.063" y="95.785" style="fill:url(#SVGID_13_);" width="3.125" height="5.428"/>
	<rect x="40.063" y="101.141" style="fill:#353535;" width="3.125" height="2.479"/>
	
		<linearGradient id="SVGID_14_" gradientUnits="userSpaceOnUse" x1="52.125" y1="101.4219" x2="55.25" y2="101.4219" gradientTransform="matrix(1 0 0 -1 0 201.125)">
		<stop  offset="0" style="stop-color:#454545"/>
		<stop  offset="0.15" style="stop-color:#7A7A7A"/>
		<stop  offset="0.85" style="stop-color:#7A7A7A"/>
		<stop  offset="1" style="stop-color:#454545"/>
	</linearGradient>
	<rect x="52.125" y="95.031" style="fill:url(#SVGID_14_);" width="3.125" height="9.344"/>
	<rect x="52.125" y="104.375" style="fill:#353535;" width="3.125" height="1.166"/>
	<rect x="24.292" y="10.167" style="fill:#4F4F4F;" width="9.667" height="5.333"/>
	<g>
		<g>
			<linearGradient id="SVGID_15_" gradientUnits="userSpaceOnUse" x1="21.5347" y1="12.3286" x2="15.8771" y2="6.6711">
				<stop  offset="0" style="stop-color:#B8B8B8"/>
				<stop  offset="0.7291" style="stop-color:#696969"/>
			</linearGradient>
			<path style="fill:url(#SVGID_15_);" d="M22.706,9.5c0,2.209-1.791,4-4,4l0,0c-2.209,0-4-1.791-4-4l0,0c0-2.209,1.791-4,4-4l0,0
				C20.915,5.5,22.706,7.291,22.706,9.5L22.706,9.5z"/>
			<circle style="fill:none;stroke:#3A3A3A;stroke-width:0.5;stroke-miterlimit:10;" cx="18.706" cy="9.5" r="4"/>
		</g>
		<g>
			
				<line style="fill:none;stroke:#606060;stroke-linecap:round;stroke-miterlimit:10;" x1="16.703" y1="11.62" x2="20.708" y2="7.379"/>
		</g>
		<g>
			
				<line style="fill:none;stroke:#606060;stroke-linecap:round;stroke-miterlimit:10;" x1="16.705" y1="7.47" x2="20.707" y2="11.528"/>
		</g>
	</g>
	<linearGradient id="SVGID_16_" gradientUnits="userSpaceOnUse" x1="42.8916" y1="12.3281" x2="37.2341" y2="6.6706">
		<stop  offset="0" style="stop-color:#B8B8B8"/>
		<stop  offset="0.7291" style="stop-color:#696969"/>
	</linearGradient>
	<path style="fill:url(#SVGID_16_);stroke:#3A3A3A;stroke-width:0.5;stroke-miterlimit:10;" d="M44.063,9.5c0,2.209-1.791,4-4,4l0,0
		c-2.209,0-4-1.791-4-4l0,0c0-2.209,1.791-4,4-4l0,0C42.271,5.5,44.063,7.291,44.063,9.5L44.063,9.5z"/>
	
		<line style="fill:none;stroke:#606060;stroke-linecap:round;stroke-miterlimit:10;" x1="38.06" y1="11.62" x2="42.065" y2="7.379"/>
	
		<line style="fill:none;stroke:#606060;stroke-linecap:round;stroke-miterlimit:10;" x1="38.062" y1="7.47" x2="42.063" y2="11.528"/>
	<g>
		<linearGradient id="SVGID_17_" gradientUnits="userSpaceOnUse" x1="64.8291" y1="29.1201" x2="59.1722" y2="23.4633">
			<stop  offset="0" style="stop-color:#B8B8B8"/>
			<stop  offset="0.7291" style="stop-color:#696969"/>
		</linearGradient>
		<path style="fill:url(#SVGID_17_);" d="M66,26.292c0,2.209-1.791,4-4,4l0,0c-2.209,0-4-1.791-4-4l0,0c0-2.209,1.791-4,4-4l0,0
			C64.209,22.292,66,24.083,66,26.292L66,26.292z"/>
		<circle style="fill:none;stroke:#3A3A3A;stroke-width:0.5;stroke-miterlimit:10;" cx="62" cy="26.292" r="4"/>
	</g>
	<g>
		
			<line style="fill:none;stroke:#606060;stroke-linecap:round;stroke-miterlimit:10;" x1="59.998" y1="28.412" x2="64.002" y2="24.171"/>
	</g>
	<g>
		
			<line style="fill:none;stroke:#606060;stroke-linecap:round;stroke-miterlimit:10;" x1="59.999" y1="24.262" x2="64.001" y2="28.32"/>
	</g>
	<g>
		<linearGradient id="SVGID_18_" gradientUnits="userSpaceOnUse" x1="64.8291" y1="47.6299" x2="59.1722" y2="41.973">
			<stop  offset="0" style="stop-color:#B8B8B8"/>
			<stop  offset="0.7291" style="stop-color:#696969"/>
		</linearGradient>
		<path style="fill:url(#SVGID_18_);" d="M66,44.801c0,2.209-1.791,4-4,4l0,0c-2.209,0-4-1.791-4-4l0,0c0-2.209,1.791-4,4-4l0,0
			C64.209,40.801,66,42.592,66,44.801L66,44.801z"/>
		<circle style="fill:none;stroke:#3A3A3A;stroke-width:0.5;stroke-miterlimit:10;" cx="62" cy="44.801" r="4"/>
	</g>
	<g>
		
			<line style="fill:none;stroke:#606060;stroke-linecap:round;stroke-miterlimit:10;" x1="59.998" y1="46.921" x2="64.002" y2="42.68"/>
	</g>
	<g>
		
			<line style="fill:none;stroke:#606060;stroke-linecap:round;stroke-miterlimit:10;" x1="59.999" y1="42.771" x2="64.001" y2="46.83"/>
	</g>
	<g>
		<linearGradient id="SVGID_19_" gradientUnits="userSpaceOnUse" x1="64.8281" y1="82.627" x2="59.1713" y2="76.9701">
			<stop  offset="0" style="stop-color:#B8B8B8"/>
			<stop  offset="0.7291" style="stop-color:#696969"/>
		</linearGradient>
		<path style="fill:url(#SVGID_19_);" d="M66,79.799c0,2.209-1.791,4-4,4l0,0c-2.209,0-4-1.791-4-4l0,0c0-2.209,1.791-4,4-4l0,0
			C64.209,75.799,66,77.59,66,79.799L66,79.799z"/>
		<circle style="fill:none;stroke:#3A3A3A;stroke-width:0.5;stroke-miterlimit:10;" cx="62" cy="79.799" r="4"/>
	</g>
	<g>
		
			<line style="fill:none;stroke:#606060;stroke-linecap:round;stroke-miterlimit:10;" x1="59.998" y1="81.92" x2="64.002" y2="77.678"/>
	</g>
	<g>
		
			<line style="fill:none;stroke:#606060;stroke-linecap:round;stroke-miterlimit:10;" x1="59.999" y1="77.77" x2="64.001" y2="81.828"/>
	</g>
	<g>
		<path style="fill:#465886;" d="M15.028,53.813c0.234-0.559,0.365-1.17,0.365-1.813c0-2.589-2.099-4.688-4.688-4.688
			S6.018,49.411,6.018,52c0,0.643,0.13,1.254,0.365,1.813H15.028z"/>
		<path style="fill:#465886;" d="M6.787,54.563c0.837,1.277,2.277,2.125,3.918,2.125s3.082-0.848,3.918-2.125H6.787z"/>
	</g>
	<rect x="16.935" y="43.86" style="fill:#BCBABD;stroke:#7F7F7D;stroke-miterlimit:10;" width="25.13" height="34.655"/>
	
		<rect x="19.344" y="53.945" style="fill:#3A3A3A;stroke:#2B2B2B;stroke-width:0.5;stroke-miterlimit:10;" width="20.313" height="14.486"/>
</g>
<g id="Layer_6">
	<linearGradient id="SVGID_20_" gradientUnits="userSpaceOnUse" x1="13.5342" y1="36.458" x2="7.8773" y2="30.8012">
		<stop  offset="0" style="stop-color:#707070"/>
		<stop  offset="0.7291" style="stop-color:#121212"/>
	</linearGradient>
	<path style="fill:url(#SVGID_20_);stroke:#3A3A3A;stroke-width:0.5;stroke-miterlimit:10;" d="M14.706,33.629c0,2.209-1.791,4-4,4
		l0,0c-2.209,0-4-1.791-4-4l0,0c0-2.209,1.791-4,4-4l0,0C12.915,29.629,14.706,31.42,14.706,33.629L14.706,33.629z"/>
	<g>
		
			<line style="fill:none;stroke:#3A3A3A;stroke-linecap:round;stroke-miterlimit:10;" x1="8.703" y1="35.75" x2="12.708" y2="31.508"/>
	</g>
	<g>
		
			<line style="fill:none;stroke:#3A3A3A;stroke-linecap:round;stroke-miterlimit:10;" x1="8.705" y1="31.6" x2="12.707" y2="35.658"/>
	</g>
	<linearGradient id="SVGID_21_" gradientUnits="userSpaceOnUse" x1="25.9585" y1="36.4585" x2="20.301" y2="30.801">
		<stop  offset="0" style="stop-color:#707070"/>
		<stop  offset="0.7291" style="stop-color:#121212"/>
	</linearGradient>
	<path style="fill:url(#SVGID_21_);stroke:#3A3A3A;stroke-width:0.5;stroke-miterlimit:10;" d="M27.129,33.629c0,2.209-1.791,4-4,4
		l0,0c-2.209,0-4-1.791-4-4l0,0c0-2.209,1.791-4,4-4l0,0C25.338,29.629,27.129,31.42,27.129,33.629L27.129,33.629z"/>
	<g>
		
			<line style="fill:none;stroke:#3A3A3A;stroke-linecap:round;stroke-miterlimit:10;" x1="21.126" y1="35.75" x2="25.131" y2="31.508"/>
	</g>
	<g>
		
			<line style="fill:none;stroke:#3A3A3A;stroke-linecap:round;stroke-miterlimit:10;" x1="21.128" y1="31.6" x2="25.13" y2="35.658"/>
	</g>
	<linearGradient id="SVGID_22_" gradientUnits="userSpaceOnUse" x1="38.0791" y1="36.458" x2="32.4222" y2="30.8012">
		<stop  offset="0" style="stop-color:#707070"/>
		<stop  offset="0.7291" style="stop-color:#121212"/>
	</linearGradient>
	<path style="fill:url(#SVGID_22_);stroke:#3A3A3A;stroke-width:0.5;stroke-miterlimit:10;" d="M39.25,33.629c0,2.209-1.791,4-4,4
		l0,0c-2.209,0-4-1.791-4-4l0,0c0-2.209,1.791-4,4-4l0,0C37.459,29.629,39.25,31.42,39.25,33.629L39.25,33.629z"/>
	<g>
		
			<line style="fill:none;stroke:#3A3A3A;stroke-linecap:round;stroke-miterlimit:10;" x1="33.248" y1="35.75" x2="37.252" y2="31.508"/>
	</g>
	<g>
		
			<line style="fill:none;stroke:#3A3A3A;stroke-linecap:round;stroke-miterlimit:10;" x1="33.249" y1="31.6" x2="37.251" y2="35.658"/>
	</g>
	<linearGradient id="SVGID_23_" gradientUnits="userSpaceOnUse" x1="50.3735" y1="36.4575" x2="44.7167" y2="30.8007">
		<stop  offset="0" style="stop-color:#707070"/>
		<stop  offset="0.7291" style="stop-color:#121212"/>
	</linearGradient>
	<path style="fill:url(#SVGID_23_);stroke:#3A3A3A;stroke-width:0.5;stroke-miterlimit:10;" d="M51.545,33.629c0,2.209-1.791,4-4,4
		l0,0c-2.209,0-4-1.791-4-4l0,0c0-2.209,1.791-4,4-4l0,0C49.754,29.629,51.545,31.42,51.545,33.629L51.545,33.629z"/>
	<g>
		
			<line style="fill:none;stroke:#3A3A3A;stroke-linecap:round;stroke-miterlimit:10;" x1="45.543" y1="35.75" x2="49.548" y2="31.508"/>
	</g>
	<g>
		
			<line style="fill:none;stroke:#3A3A3A;stroke-linecap:round;stroke-miterlimit:10;" x1="45.544" y1="31.6" x2="49.546" y2="35.658"/>
	</g>
	<linearGradient id="SVGID_24_" gradientUnits="userSpaceOnUse" x1="13.5332" y1="90.627" x2="7.877" y2="84.9708">
		<stop  offset="0" style="stop-color:#707070"/>
		<stop  offset="0.7291" style="stop-color:#121212"/>
	</linearGradient>
	<path style="fill:url(#SVGID_24_);stroke:#3A3A3A;stroke-width:0.5;stroke-miterlimit:10;" d="M14.706,87.799c0,2.209-1.791,4-4,4
		l0,0c-2.209,0-4-1.791-4-4l0,0c0-2.209,1.791-4,4-4l0,0C12.915,83.799,14.706,85.59,14.706,87.799L14.706,87.799z"/>
	<g>
		
			<line style="fill:none;stroke:#3A3A3A;stroke-linecap:round;stroke-miterlimit:10;" x1="8.703" y1="89.92" x2="12.708" y2="85.678"/>
	</g>
	<g>
		
			<line style="fill:none;stroke:#3A3A3A;stroke-linecap:round;stroke-miterlimit:10;" x1="8.705" y1="85.77" x2="12.707" y2="89.828"/>
	</g>
	<linearGradient id="SVGID_25_" gradientUnits="userSpaceOnUse" x1="25.957" y1="90.627" x2="20.3002" y2="84.9701">
		<stop  offset="0" style="stop-color:#707070"/>
		<stop  offset="0.7291" style="stop-color:#121212"/>
	</linearGradient>
	<path style="fill:url(#SVGID_25_);stroke:#3A3A3A;stroke-width:0.5;stroke-miterlimit:10;" d="M27.129,87.799c0,2.209-1.791,4-4,4
		l0,0c-2.209,0-4-1.791-4-4l0,0c0-2.209,1.791-4,4-4l0,0C25.338,83.799,27.129,85.59,27.129,87.799L27.129,87.799z"/>
	<g>
		
			<line style="fill:none;stroke:#3A3A3A;stroke-linecap:round;stroke-miterlimit:10;" x1="21.126" y1="89.92" x2="25.131" y2="85.678"/>
	</g>
	<g>
		
			<line style="fill:none;stroke:#3A3A3A;stroke-linecap:round;stroke-miterlimit:10;" x1="21.128" y1="85.77" x2="25.13" y2="89.828"/>
	</g>
	<linearGradient id="SVGID_26_" gradientUnits="userSpaceOnUse" x1="38.0791" y1="90.6279" x2="32.4222" y2="84.9711">
		<stop  offset="0" style="stop-color:#707070"/>
		<stop  offset="0.7291" style="stop-color:#121212"/>
	</linearGradient>
	<path style="fill:url(#SVGID_26_);stroke:#3A3A3A;stroke-width:0.5;stroke-miterlimit:10;" d="M39.25,87.799c0,2.209-1.791,4-4,4
		l0,0c-2.209,0-4-1.791-4-4l0,0c0-2.209,1.791-4,4-4l0,0C37.459,83.799,39.25,85.59,39.25,87.799L39.25,87.799z"/>
	<g>
		
			<line style="fill:none;stroke:#3A3A3A;stroke-linecap:round;stroke-miterlimit:10;" x1="33.248" y1="89.92" x2="37.252" y2="85.678"/>
	</g>
	<g>
		
			<line style="fill:none;stroke:#3A3A3A;stroke-linecap:round;stroke-miterlimit:10;" x1="33.249" y1="85.77" x2="37.251" y2="89.828"/>
	</g>
	<linearGradient id="SVGID_27_" gradientUnits="userSpaceOnUse" x1="50.374" y1="90.6279" x2="44.7172" y2="84.9711">
		<stop  offset="0" style="stop-color:#707070"/>
		<stop  offset="0.7291" style="stop-color:#121212"/>
	</linearGradient>
	<path style="fill:url(#SVGID_27_);stroke:#3A3A3A;stroke-width:0.5;stroke-miterlimit:10;" d="M51.545,87.799c0,2.209-1.791,4-4,4
		l0,0c-2.209,0-4-1.791-4-4l0,0c0-2.209,1.791-4,4-4l0,0C49.754,83.799,51.545,85.59,51.545,87.799L51.545,87.799z"/>
	<g>
		
			<line style="fill:none;stroke:#3A3A3A;stroke-linecap:round;stroke-miterlimit:10;" x1="45.543" y1="89.92" x2="49.548" y2="85.678"/>
	</g>
	<g>
		
			<line style="fill:none;stroke:#3A3A3A;stroke-linecap:round;stroke-miterlimit:10;" x1="45.544" y1="85.77" x2="49.546" y2="89.828"/>
	</g>
</g>
<g id="on">
	<g>
		<linearGradient id="SVGID_28_" gradientUnits="userSpaceOnUse" x1="21.4155" y1="61.1875" x2="29.125" y2="61.1875">
			<stop  offset="0" style="stop-color:#808080"/>
			<stop  offset="0.2" style="stop-color:#BCBABD"/>
			<stop  offset="0.8" style="stop-color:#BCBABD"/>
			<stop  offset="1" style="stop-color:#616161"/>
		</linearGradient>
		<rect x="21.416" y="55.171" style="fill:url(#SVGID_28_);" width="7.709" height="12.033"/>
		<linearGradient id="SVGID_29_" gradientUnits="userSpaceOnUse" x1="24.4058" y1="61.291" x2="27.8081" y2="61.291">
			<stop  offset="0" style="stop-color:#808080"/>
			<stop  offset="0.2" style="stop-color:#BCBABD"/>
			<stop  offset="0.8" style="stop-color:#BCBABD"/>
			<stop  offset="1" style="stop-color:#616161"/>
		</linearGradient>
		<rect x="24.406" y="56.566" style="fill:url(#SVGID_29_);" width="3.402" height="9.448"/>
	</g>
	<g>
		
			<linearGradient id="SVGID_30_" gradientUnits="userSpaceOnUse" x1="32.7905" y1="61.1875" x2="40.5" y2="61.1875" gradientTransform="matrix(-1 0 0 1 70 0)">
			<stop  offset="0" style="stop-color:#808080"/>
			<stop  offset="0.2" style="stop-color:#BCBABD"/>
			<stop  offset="0.8" style="stop-color:#BCBABD"/>
			<stop  offset="1" style="stop-color:#616161"/>
		</linearGradient>
		<rect x="29.5" y="55.171" style="fill:url(#SVGID_30_);" width="7.709" height="12.033"/>
		
			<linearGradient id="SVGID_31_" gradientUnits="userSpaceOnUse" x1="35.7808" y1="61.291" x2="39.1831" y2="61.291" gradientTransform="matrix(-1 0 0 1 70 0)">
			<stop  offset="0" style="stop-color:#808080"/>
			<stop  offset="0.2" style="stop-color:#BCBABD"/>
			<stop  offset="0.8" style="stop-color:#BCBABD"/>
			<stop  offset="1" style="stop-color:#616161"/>
		</linearGradient>
		<rect x="30.817" y="56.566" style="fill:url(#SVGID_31_);" width="3.402" height="9.448"/>
	</g>
</g>
<g id="on-overlay">
	<rect x="19.344" y="53.812" style="opacity:0.3;" width="20.313" height="14.486"/>
	<g>
	</g>
	<g>
	</g>
	<g>
	</g>
	<g>
	</g>
	<g>
	</g>
	<g>
	</g>
	<g>
	</g>
	<g>
	</g>
	<g>
	</g>
	<g>
	</g>
	<g>
	</g>
	<g>
	</g>
	<g>
	</g>
	<g>
	</g>
	<g>
	</g>
</g>
</svg>
