<?xml version="1.0" encoding="utf-8"?>
<!-- Generator: Adobe Illustrator 16.0.3, SVG Export Plug-In . SVG Version: 6.00 Build 0)  -->
<!DOCTYPE svg PUBLIC "-//W3C//DTD SVG 1.1//EN" "http://www.w3.org/Graphics/SVG/1.1/DTD/svg11.dtd">
<svg version="1.1" id="Capa_1" xmlns="http://www.w3.org/2000/svg" xmlns:xlink="http://www.w3.org/1999/xlink" x="0px" y="0px"
	 width="527.578px" height="484.542px" viewBox="0 0 527.578 484.542" enable-background="new 0 0 527.578 484.542"
	 xml:space="preserve">
<rect fill="#2D2D2D" width="527.578" height="484.542"/>
<rect x="15.551" y="14.283" fill="#2B8AD4" width="496.476" height="455.978"/>
<rect x="15.551" y="392.355" fill="#FFFFFF" width="496.476" height="11.998"/>
<g>
	<path fill="#FFFFFF" d="M249.02,435.398l4.836,0.629c-0.944,2.252-2.36,3.973-4.248,5.162c-1.888,1.188-4.099,1.783-6.633,1.783
		c-2.854,0-5.083-0.738-6.689-2.215s-2.41-3.619-2.41-6.426c0-2.279,0.538-4.363,1.615-6.256c1.076-1.893,2.568-3.338,4.478-4.34
		c1.91-1.004,3.987-1.504,6.236-1.504c2.523,0,4.565,0.58,6.124,1.742s2.477,2.746,2.752,4.75l-4.598,0.385
		c-0.254-1.168-0.745-2.014-1.471-2.537c-0.727-0.523-1.694-0.785-2.903-0.785c-1.326,0-2.564,0.346-3.715,1.039
		c-1.151,0.691-2.07,1.773-2.76,3.246c-0.69,1.473-1.034,2.941-1.034,4.41c0,1.604,0.448,2.844,1.345,3.719
		c0.896,0.875,2.012,1.313,3.349,1.313c1.24,0,2.378-0.348,3.412-1.039C247.738,437.783,248.511,436.755,249.02,435.398z"/>
	<path fill="#FFFFFF" d="M257.164,434.755c0-1.186,0.207-2.434,0.62-3.746c0.541-1.76,1.365-3.287,2.474-4.58
		c1.109-1.295,2.506-2.316,4.191-3.068c1.688-0.752,3.606-1.129,5.76-1.129c2.885,0,5.215,0.771,6.99,2.311
		c1.776,1.541,2.666,3.582,2.666,6.125c0,2.115-0.578,4.162-1.734,6.139c-1.155,1.979-2.727,3.5-4.709,4.566s-4.227,1.6-6.729,1.6
		c-2.174,0-3.998-0.424-5.472-1.27c-1.475-0.848-2.52-1.898-3.134-3.152C257.472,437.296,257.164,436.033,257.164,434.755z
		 M261.904,434.673c0,1.375,0.487,2.529,1.464,3.459c0.975,0.93,2.258,1.395,3.85,1.395c1.294,0,2.537-0.367,3.73-1.102
		c1.191-0.732,2.178-1.846,2.959-3.336c0.778-1.49,1.168-2.939,1.168-4.354c0-1.576-0.492-2.814-1.479-3.711
		c-0.986-0.898-2.243-1.348-3.771-1.348c-2.344,0-4.25,0.938-5.719,2.816C262.638,430.371,261.904,432.431,261.904,434.673z"/>
	<path fill="#FFFFFF" d="M299.638,442.617h-4.471l-6.299-13.467l-3.277,13.467h-4.471l4.867-20.043h4.486l6.314,13.412l3.262-13.412
		h4.453L299.638,442.617z"/>
	<path fill="#FFFFFF" d="M314.669,442.617h-4.803l4.072-16.693h-6.842l0.813-3.35h18.373l-0.813,3.35h-6.744L314.669,442.617z"/>
	<path fill="#FFFFFF" d="M329.322,442.617h-4.805l4.885-20.043h10.354c1.783,0,3.17,0.158,4.16,0.473
		c0.992,0.314,1.793,0.891,2.402,1.729c0.609,0.84,0.914,1.854,0.914,3.049c0,1.705-0.594,3.109-1.781,4.219
		c-1.188,1.107-2.984,1.793-5.393,2.057c0.615,0.475,1.193,1.1,1.732,1.873c1.072,1.568,2.266,3.783,3.58,6.646h-5.154
		c-0.414-1.131-1.225-2.895-2.434-5.291c-0.658-1.295-1.357-2.166-2.102-2.611c-0.455-0.266-1.25-0.396-2.385-0.396h-1.957
		L329.322,442.617z M332.074,431.31h2.545c2.578,0,4.287-0.133,5.131-0.396s1.504-0.678,1.98-1.244
		c0.477-0.564,0.715-1.156,0.715-1.777c0-0.729-0.346-1.275-1.033-1.641c-0.424-0.219-1.342-0.328-2.752-0.328h-5.281
		L332.074,431.31z"/>
	<path fill="#FFFFFF" d="M349.46,434.755c0-1.186,0.207-2.434,0.621-3.746c0.541-1.76,1.365-3.287,2.473-4.58
		c1.109-1.295,2.506-2.316,4.191-3.068c1.688-0.752,3.605-1.129,5.76-1.129c2.885,0,5.215,0.771,6.99,2.311
		c1.777,1.541,2.666,3.582,2.666,6.125c0,2.115-0.578,4.162-1.734,6.139c-1.154,1.979-2.727,3.5-4.709,4.566s-4.227,1.6-6.729,1.6
		c-2.174,0-3.998-0.424-5.473-1.27c-1.475-0.848-2.52-1.898-3.133-3.152C349.769,437.296,349.46,436.033,349.46,434.755z
		 M354.201,434.673c0,1.375,0.486,2.529,1.465,3.459c0.975,0.93,2.258,1.395,3.85,1.395c1.293,0,2.537-0.367,3.73-1.102
		c1.191-0.732,2.178-1.846,2.959-3.336c0.779-1.49,1.168-2.939,1.168-4.354c0-1.576-0.492-2.814-1.479-3.711
		c-0.986-0.898-2.242-1.348-3.771-1.348c-2.344,0-4.25,0.938-5.719,2.816C354.935,430.371,354.201,432.431,354.201,434.673z"/>
	<path fill="#FFFFFF" d="M373.417,442.617l4.885-20.043h4.787l-4.057,16.693H390.9l-0.813,3.35H373.417z"/>
	<path fill="#FFFFFF" d="M401.972,437.38l4.375-0.451c0.18,1.066,0.506,1.805,0.979,2.215s1.1,0.615,1.885,0.615
		c1.039,0,1.9-0.301,2.586-0.902c0.684-0.602,1.025-1.371,1.025-2.311c0-0.82-0.275-1.471-0.828-1.949
		c-0.551-0.479-1.293-0.717-2.227-0.717c-0.232,0-0.479,0.02-0.73,0.055l0.795-3.268c0.158,0.018,0.313,0.027,0.461,0.027
		c1.219,0,2.148-0.268,2.783-0.801c0.637-0.533,0.955-1.256,0.955-2.168c0-0.646-0.215-1.156-0.645-1.529
		c-0.43-0.375-0.994-0.563-1.693-0.563c-0.658,0-1.246,0.207-1.768,0.623c-0.52,0.414-0.934,1.123-1.24,2.125l-4.168-0.711
		c0.529-1.477,1.268-2.611,2.213-3.404c1.432-1.184,3.189-1.775,5.279-1.775c2.143,0,3.771,0.512,4.885,1.537s1.67,2.254,1.67,3.686
		c0,1.039-0.355,1.979-1.064,2.816c-0.711,0.838-1.688,1.453-2.928,1.846c0.984,0.445,1.713,1.025,2.18,1.736
		s0.699,1.453,0.699,2.229c0,1.477-0.609,2.834-1.83,4.074c-1.664,1.695-3.813,2.543-6.441,2.543c-1.973,0-3.598-0.486-4.875-1.457
		C403.025,440.533,402.248,439.158,401.972,437.38z"/>
	<path fill="#FFFFFF" d="M420.537,436.095c0-2.016,0.396-4.057,1.191-6.125c0.977-2.523,2.229-4.402,3.756-5.633
		c1.525-1.23,3.223-1.846,5.09-1.846c1.889,0,3.438,0.588,4.652,1.764s1.822,2.885,1.822,5.127c0,2.051-0.443,4.217-1.328,6.5
		c-0.887,2.283-2.082,4.033-3.588,5.25s-3.203,1.826-5.09,1.826c-1.889,0-3.445-0.588-4.67-1.764S420.537,438.32,420.537,436.095z
		 M425.023,436.888c0,1.074,0.199,1.832,0.604,2.27c0.402,0.438,0.922,0.656,1.559,0.656c0.85,0,1.602-0.338,2.26-1.012
		c0.881-0.902,1.658-2.68,2.338-5.332c0.541-2.105,0.813-3.773,0.813-5.004c0-1.004-0.205-1.725-0.611-2.168
		c-0.41-0.441-0.932-0.662-1.568-0.662c-0.805,0-1.521,0.332-2.146,0.998c-0.924,0.965-1.719,2.666-2.387,5.1
		C425.308,433.839,425.023,435.556,425.023,436.888z"/>
	<path fill="#FFFFFF" d="M438.656,436.095c0-2.016,0.396-4.057,1.191-6.125c0.977-2.523,2.229-4.402,3.754-5.633
		c1.527-1.23,3.225-1.846,5.092-1.846c1.889,0,3.438,0.588,4.652,1.764s1.822,2.885,1.822,5.127c0,2.051-0.443,4.217-1.328,6.5
		c-0.887,2.283-2.082,4.033-3.588,5.25s-3.203,1.826-5.09,1.826c-1.889,0-3.445-0.588-4.67-1.764S438.656,438.32,438.656,436.095z
		 M443.142,436.888c0,1.074,0.201,1.832,0.604,2.27s0.924,0.656,1.559,0.656c0.85,0,1.604-0.338,2.26-1.012
		c0.881-0.902,1.66-2.68,2.34-5.332c0.541-2.105,0.811-3.773,0.811-5.004c0-1.004-0.205-1.725-0.611-2.168
		c-0.408-0.441-0.932-0.662-1.566-0.662c-0.807,0-1.521,0.332-2.148,0.998c-0.922,0.965-1.717,2.666-2.387,5.1
		C443.427,433.839,443.142,435.556,443.142,436.888z"/>
	<path fill="#FFFFFF" d="M456.773,436.095c0-2.016,0.396-4.057,1.193-6.125c0.977-2.523,2.227-4.402,3.754-5.633
		s3.225-1.846,5.09-1.846c1.889,0,3.439,0.588,4.654,1.764c1.213,1.176,1.82,2.885,1.82,5.127c0,2.051-0.443,4.217-1.328,6.5
		s-2.082,4.033-3.588,5.25s-3.203,1.826-5.09,1.826c-1.889,0-3.443-0.588-4.668-1.764S456.773,438.32,456.773,436.095z
		 M461.259,436.888c0,1.074,0.201,1.832,0.605,2.27c0.4,0.438,0.922,0.656,1.559,0.656c0.85,0,1.602-0.338,2.258-1.012
		c0.883-0.902,1.66-2.68,2.34-5.332c0.541-2.105,0.813-3.773,0.813-5.004c0-1.004-0.205-1.725-0.613-2.168
		c-0.408-0.441-0.93-0.662-1.566-0.662c-0.807,0-1.521,0.332-2.146,0.998c-0.924,0.965-1.719,2.666-2.387,5.1
		C461.546,433.839,461.259,435.556,461.259,436.888z"/>
</g>
<rect x="68.798" y="77.37" width="389.981" height="152.902"/>
<rect x="68.798" y="271.498" width="389.981" height="40.453"/>
<rect x="111.145" y="335.271" fill="#8D919D" width="62" height="29"/>
<rect x="192.933" y="335.271" fill="#8D919D" width="62" height="29"/>
<rect x="274.434" y="335.271" fill="#8D919D" width="61.999" height="29"/>
<rect x="354.433" y="335.271" fill="#8D919D" width="62" height="29"/>
<g>
	<path d="M116.285,357.537V343.22h9.658v1.689h-7.764v4.434h6.719v1.689h-6.719v6.504H116.285L116.285,357.537z"/>
	<path d="M137.799,343.218h1.895v8.271c0,1.438-0.163,2.581-0.488,3.428c-0.325,0.848-0.913,1.535-1.763,2.065
		s-1.964,0.796-3.345,0.796c-1.341,0-2.438-0.23-3.291-0.693c-0.853-0.461-1.461-1.131-1.826-2.006
		c-0.365-0.877-0.547-2.072-0.547-3.59v-8.271h1.895v8.262c0,1.243,0.116,2.16,0.347,2.749c0.231,0.589,0.628,1.043,1.191,1.361
		c0.563,0.32,1.251,0.479,2.065,0.479c1.393,0,2.386-0.315,2.979-0.946c0.593-0.633,0.889-1.847,0.889-3.644L137.799,343.218
		L137.799,343.218z"/>
	<path d="M142.828,357.537V343.22h1.943l7.52,11.24v-11.24h1.816v14.316h-1.943l-7.52-11.25v11.25H142.828z"/>
	<path d="M167.506,352.516l1.895,0.479c-0.397,1.555-1.112,2.741-2.144,3.56c-1.032,0.817-2.293,1.226-3.784,1.226
		c-1.543,0-2.798-0.314-3.765-0.941c-0.967-0.629-1.703-1.539-2.207-2.729s-0.757-2.471-0.757-3.838
		c0-1.491,0.285-2.791,0.854-3.901c0.569-1.109,1.38-1.953,2.432-2.529c1.052-0.575,2.208-0.863,3.472-0.863
		c1.432,0,2.637,0.363,3.613,1.094c0.976,0.73,1.657,1.756,2.041,3.076l-1.865,0.439c-0.332-1.043-0.814-1.801-1.445-2.275
		c-0.631-0.475-1.426-0.713-2.383-0.713c-1.1,0-2.02,0.264-2.759,0.791c-0.739,0.527-1.258,1.234-1.558,2.124
		c-0.3,0.889-0.449,1.805-0.449,2.749c0,1.218,0.177,2.279,0.532,3.188s0.907,1.588,1.655,2.036
		c0.748,0.449,1.559,0.675,2.432,0.675c1.061,0,1.959-0.307,2.695-0.918C166.747,354.63,167.246,353.72,167.506,352.516z"/>
</g>
<g>
	<path fill="#FFFFFF" d="M275.546,265.537v-10.738h2.14l2.541,7.604c0.233,0.708,0.405,1.237,0.513,1.59
		c0.122-0.391,0.313-0.965,0.571-1.722l2.571-7.472h1.91v10.738h-1.369v-8.988l-3.119,8.988h-1.282l-3.104-9.142v9.142H275.546z"/>
	<path fill="#FFFFFF" d="M286.906,265.537l4.124-10.738h1.53l4.395,10.738h-1.617l-1.254-3.252h-4.488l-1.18,3.252H286.906z
		 M290.005,261.126h3.64l-1.12-2.975c-0.342-0.902-0.596-1.646-0.762-2.227c-0.137,0.688-0.33,1.371-0.579,2.051L290.005,261.126z"
		/>
	<path fill="#FFFFFF" d="M298.076,265.537v-10.738h1.457l5.641,8.431v-8.431h1.361v10.738h-1.457l-5.64-8.438v8.438H298.076z"/>
	<path fill="#FFFFFF" d="M315.968,254.798h1.422v6.203c0,1.08-0.123,1.937-0.365,2.57c-0.244,0.635-0.686,1.151-1.322,1.549
		c-0.637,0.398-1.475,0.598-2.508,0.598c-1.008,0-1.83-0.174-2.471-0.52c-0.639-0.348-1.096-0.85-1.367-1.506
		c-0.273-0.656-0.41-1.554-0.41-2.691v-6.203h1.42v6.195c0,0.934,0.086,1.621,0.26,2.063s0.471,0.783,0.895,1.021
		c0.422,0.239,0.938,0.358,1.549,0.358c1.045,0,1.791-0.235,2.234-0.711c0.443-0.474,0.666-1.384,0.666-2.731v-6.195H315.968z"/>
	<path fill="#FFFFFF" d="M318.576,265.537l4.125-10.738h1.529l4.395,10.738h-1.617l-1.254-3.252h-4.488l-1.18,3.252H318.576z
		 M321.675,261.126h3.641l-1.121-2.975c-0.342-0.902-0.596-1.646-0.762-2.227c-0.137,0.688-0.33,1.371-0.58,2.051L321.675,261.126z"
		/>
	<path fill="#FFFFFF" d="M329.703,265.537v-10.738h1.42v9.472h5.289v1.267H329.703L329.703,265.537z"/>
</g>
<g>
	<path fill="#FFFFFF" d="M385.976,108.042l2.109-0.205c0.127,0.708,0.385,1.228,0.771,1.56c0.389,0.332,0.912,0.498,1.57,0.498
		c0.699,0,1.225-0.147,1.578-0.443c0.355-0.295,0.531-0.641,0.531-1.036c0-0.254-0.074-0.47-0.223-0.648
		c-0.15-0.178-0.41-0.333-0.781-0.465c-0.254-0.088-0.832-0.244-1.734-0.469c-1.162-0.288-1.979-0.642-2.447-1.063
		c-0.658-0.59-0.988-1.311-0.988-2.16c0-0.547,0.154-1.059,0.467-1.534c0.309-0.477,0.756-0.839,1.34-1.088
		c0.582-0.249,1.287-0.374,2.113-0.374c1.348,0,2.361,0.296,3.043,0.887s1.039,1.38,1.072,2.365l-2.168,0.096
		c-0.094-0.552-0.291-0.948-0.598-1.19c-0.305-0.241-0.764-0.362-1.373-0.362c-0.631,0-1.123,0.13-1.479,0.389
		c-0.23,0.166-0.344,0.388-0.344,0.666c0,0.254,0.105,0.472,0.32,0.652c0.273,0.229,0.939,0.469,1.992,0.717
		c1.055,0.25,1.836,0.507,2.34,0.773c0.506,0.266,0.902,0.63,1.188,1.091c0.287,0.462,0.43,1.032,0.43,1.71
		c0,0.615-0.172,1.192-0.514,1.729c-0.342,0.538-0.824,0.937-1.449,1.198c-0.625,0.261-1.404,0.392-2.338,0.392
		c-1.357,0-2.398-0.313-3.127-0.941C386.552,110.158,386.117,109.244,385.976,108.042z"/>
	<path fill="#FFFFFF" d="M396.529,111.536v-10.737h7.963v1.816h-5.795v2.381h5.391v1.809h-5.391v2.922h6v1.81L396.529,111.536
		L396.529,111.536z"/>
	<path fill="#FFFFFF" d="M406.556,111.536v-10.737h2.109l4.395,7.17v-7.17h2.016v10.737H412.9l-4.328-7.002v7.002H406.556z
		 M409.251,100.205h-0.938c-0.006-0.111-0.008-0.199-0.008-0.264c0-0.512,0.125-0.906,0.373-1.183
		c0.25-0.275,0.568-0.413,0.959-0.413c0.172,0,0.33,0.018,0.479,0.055c0.145,0.036,0.414,0.142,0.801,0.314
		c0.389,0.174,0.693,0.26,0.912,0.26c0.156,0,0.287-0.048,0.393-0.146c0.104-0.097,0.172-0.261,0.201-0.49h0.951
		c-0.004,0.659-0.127,1.131-0.369,1.414s-0.553,0.424-0.934,0.424c-0.166,0-0.33-0.017-0.49-0.051
		c-0.113-0.029-0.395-0.129-0.844-0.301c-0.449-0.17-0.775-0.256-0.98-0.256c-0.156,0-0.277,0.048-0.367,0.143
		C409.302,99.806,409.257,99.97,409.251,100.205z"/>
	<path fill="#FFFFFF" d="M427.05,111.536h-2.357l-0.939-2.438h-4.291l-0.887,2.438h-2.301l4.184-10.737h2.291L427.05,111.536z
		 M423.058,107.288l-1.479-3.984l-1.451,3.984H423.058z"/>
	<path fill="#FFFFFF" d="M428.257,111.536v-10.649h2.168v8.84h5.393v1.81L428.257,111.536L428.257,111.536z"/>
	<path fill="#FFFFFF" d="M446.07,111.536h-2.059v-7.757c-0.752,0.703-1.639,1.224-2.658,1.561v-1.867c0.537-0.176,1.121-0.51,1.75-1
		c0.631-0.491,1.063-1.063,1.297-1.718h1.67V111.536z"/>
</g>
<g>
	<path fill="#FFFFFF" d="M369.107,262.085l1.34-0.117c0.063,0.537,0.211,0.979,0.443,1.322c0.23,0.344,0.592,0.623,1.08,0.834
		c0.488,0.213,1.037,0.319,1.648,0.319c0.541,0,1.02-0.081,1.436-0.241c0.414-0.162,0.725-0.383,0.928-0.664
		c0.201-0.279,0.303-0.586,0.303-0.918c0-0.338-0.098-0.632-0.293-0.884c-0.195-0.251-0.518-0.462-0.967-0.633
		c-0.287-0.112-0.926-0.287-1.912-0.524c-0.986-0.236-1.678-0.459-2.072-0.67c-0.512-0.269-0.896-0.602-1.146-1
		c-0.252-0.396-0.377-0.843-0.377-1.337c0-0.54,0.154-1.048,0.461-1.521c0.309-0.471,0.758-0.827,1.35-1.071
		c0.59-0.244,1.248-0.367,1.971-0.367c0.795,0,1.498,0.13,2.105,0.386s1.074,0.633,1.4,1.131c0.328,0.498,0.504,1.063,0.527,1.692
		l-1.361,0.103c-0.072-0.678-0.32-1.19-0.744-1.537c-0.422-0.348-1.045-0.521-1.869-0.521c-0.859,0-1.486,0.157-1.881,0.473
		c-0.393,0.314-0.59,0.695-0.59,1.14c0,0.386,0.141,0.703,0.418,0.952c0.273,0.248,0.988,0.504,2.145,0.766
		c1.152,0.262,1.945,0.489,2.375,0.686c0.625,0.287,1.088,0.652,1.385,1.095c0.299,0.442,0.447,0.95,0.447,1.526
		c0,0.572-0.164,1.109-0.49,1.615c-0.328,0.506-0.799,0.898-1.41,1.18c-0.613,0.281-1.303,0.42-2.07,0.42
		c-0.971,0-1.785-0.141-2.441-0.424s-1.172-0.709-1.545-1.277C369.324,263.447,369.126,262.804,369.107,262.085z"/>
	<path fill="#FFFFFF" d="M379.8,265.537v-1.502h1.502v1.502H379.8z"/>
	<path fill="#FFFFFF" d="M383.763,265.537v-10.738h4.051c0.713,0,1.258,0.035,1.633,0.104c0.527,0.088,0.971,0.256,1.326,0.502
		s0.643,0.592,0.859,1.036s0.326,0.933,0.326,1.465c0,0.913-0.291,1.687-0.871,2.318c-0.582,0.632-1.631,0.948-3.15,0.948h-2.754
		v4.365H383.763L383.763,265.537z M385.183,259.904h2.777c0.918,0,1.568-0.171,1.955-0.514c0.385-0.342,0.578-0.822,0.578-1.441
		c0-0.449-0.113-0.835-0.34-1.154c-0.229-0.319-0.527-0.53-0.898-0.633c-0.238-0.063-0.68-0.096-1.324-0.096h-2.748V259.904
		L385.183,259.904z"/>
	<path fill="#FFFFFF" d="M392.039,265.537v-1.502h1.502v1.502H392.039z"/>
</g>
<g>
	<path d="M358.613,356.987v-14.317h8.52v1.689h-6.959v4.385h6.518v1.68h-6.518v4.873h7.232v1.689L358.613,356.987L358.613,356.987z"
		/>
	<path d="M369.544,356.987v-14.317h1.6l6.188,11.24v-11.24h1.496v14.316h-1.602l-6.188-11.25v11.25L369.544,356.987L369.544,356.987
		z"/>
	<path d="M384.443,356.987V344.36h-3.883v-1.688h9.34v1.688h-3.898v12.627H384.443z"/>
	<path d="M391.533,356.987v-14.317h8.52v1.689h-6.961v4.385h6.52v1.68h-6.52v4.873h7.232v1.689L391.533,356.987L391.533,356.987z"/>
	<path d="M402.501,356.987v-14.317h5.225c1.051,0,1.85,0.129,2.396,0.387c0.545,0.257,0.98,0.711,1.309,1.361
		c0.328,0.651,0.49,1.371,0.49,2.158c0,1.016-0.27,1.873-0.811,2.568s-1.377,1.141-2.51,1.328c0.414,0.24,0.729,0.479,0.941,0.713
		c0.455,0.508,0.887,1.143,1.293,1.904l2.051,3.896h-1.961l-1.561-2.979c-0.455-0.858-0.83-1.517-1.125-1.973
		c-0.295-0.455-0.559-0.773-0.791-0.957c-0.232-0.183-0.471-0.31-0.711-0.381c-0.178-0.046-0.467-0.068-0.869-0.068h-1.809v6.357
		h-1.559V356.987z M404.062,348.99h3.352c0.713,0,1.27-0.091,1.672-0.27c0.402-0.18,0.707-0.467,0.916-0.859
		s0.313-0.822,0.313-1.283c0-0.678-0.201-1.234-0.605-1.67c-0.404-0.438-1.045-0.654-1.918-0.654h-3.729V348.99z"/>
</g>
<polygon points="210.933,342.021 236.933,342.021 223.933,357.521 "/>
<polygon points="320.433,357.521 294.433,357.521 307.433,342.021 "/>
<circle fill="#46000B" cx="413.767" cy="132.938" r="13.333"/>
<circle fill="#46000B" cx="302.433" cy="291.724" r="13.333"/>
<circle fill="#C40033" cx="381.767" cy="291.724" r="13.333"/>
<g>
	<path fill="#FFFFFF" d="M385.976,176.709l2.109-0.205c0.127,0.708,0.385,1.228,0.771,1.56c0.389,0.332,0.912,0.498,1.57,0.498
		c0.699,0,1.225-0.147,1.578-0.443c0.355-0.295,0.531-0.641,0.531-1.036c0-0.254-0.074-0.47-0.223-0.648
		c-0.15-0.178-0.41-0.333-0.781-0.465c-0.254-0.088-0.832-0.244-1.734-0.469c-1.162-0.288-1.979-0.642-2.447-1.063
		c-0.658-0.59-0.988-1.311-0.988-2.16c0-0.547,0.154-1.059,0.467-1.534c0.309-0.477,0.756-0.839,1.34-1.088
		c0.582-0.249,1.287-0.374,2.113-0.374c1.348,0,2.361,0.296,3.043,0.887s1.039,1.38,1.072,2.365l-2.168,0.096
		c-0.094-0.552-0.291-0.948-0.598-1.19c-0.305-0.241-0.764-0.362-1.373-0.362c-0.631,0-1.123,0.13-1.479,0.389
		c-0.23,0.166-0.344,0.388-0.344,0.666c0,0.254,0.105,0.472,0.32,0.652c0.273,0.229,0.939,0.469,1.992,0.717
		c1.055,0.25,1.836,0.507,2.34,0.773c0.506,0.266,0.902,0.63,1.188,1.091c0.287,0.462,0.43,1.032,0.43,1.71
		c0,0.615-0.172,1.192-0.514,1.729c-0.342,0.538-0.824,0.937-1.449,1.198c-0.625,0.261-1.404,0.392-2.338,0.392
		c-1.357,0-2.398-0.313-3.127-0.941C386.552,178.824,386.117,177.91,385.976,176.709z"/>
	<path fill="#FFFFFF" d="M396.529,180.202v-10.737h7.963v1.816h-5.795v2.381h5.391v1.809h-5.391v2.922h6v1.81L396.529,180.202
		L396.529,180.202z"/>
	<path fill="#FFFFFF" d="M406.556,180.202v-10.737h2.109l4.395,7.17v-7.17h2.016v10.737H412.9l-4.328-7.002v7.002H406.556z
		 M409.251,168.871h-0.938c-0.006-0.111-0.008-0.199-0.008-0.264c0-0.512,0.125-0.906,0.373-1.183
		c0.25-0.275,0.568-0.413,0.959-0.413c0.172,0,0.33,0.018,0.479,0.055c0.145,0.036,0.414,0.142,0.801,0.314
		c0.389,0.174,0.693,0.26,0.912,0.26c0.156,0,0.287-0.048,0.393-0.146c0.104-0.097,0.172-0.261,0.201-0.49h0.951
		c-0.004,0.659-0.127,1.131-0.369,1.414s-0.553,0.424-0.934,0.424c-0.166,0-0.33-0.017-0.49-0.051
		c-0.113-0.029-0.395-0.129-0.844-0.301c-0.449-0.17-0.775-0.256-0.98-0.256c-0.156,0-0.277,0.048-0.367,0.143
		C409.302,168.473,409.257,168.637,409.251,168.871z"/>
	<path fill="#FFFFFF" d="M427.05,180.202h-2.357l-0.939-2.438h-4.291l-0.887,2.438h-2.301l4.184-10.737h2.291L427.05,180.202z
		 M423.058,175.954l-1.479-3.984l-1.451,3.984H423.058z"/>
	<path fill="#FFFFFF" d="M428.257,180.202v-10.649h2.168v8.84h5.393v1.81L428.257,180.202L428.257,180.202z"/>
	<path fill="#FFFFFF" d="M447.755,178.291v1.911h-7.215c0.078-0.723,0.313-1.407,0.703-2.055c0.391-0.646,1.162-1.505,2.314-2.574
		c0.928-0.864,1.496-1.45,1.705-1.758c0.283-0.425,0.426-0.845,0.426-1.26c0-0.459-0.123-0.812-0.369-1.059
		c-0.246-0.246-0.588-0.37-1.021-0.37c-0.43,0-0.771,0.13-1.025,0.389c-0.254,0.259-0.4,0.688-0.439,1.289l-2.051-0.205
		c0.123-1.133,0.506-1.945,1.15-2.439c0.645-0.492,1.449-0.739,2.416-0.739c1.061,0,1.893,0.286,2.498,0.856
		c0.605,0.572,0.908,1.282,0.908,2.132c0,0.483-0.088,0.943-0.26,1.381c-0.174,0.437-0.449,0.895-0.824,1.373
		c-0.25,0.317-0.699,0.774-1.348,1.37c-0.65,0.596-1.063,0.991-1.234,1.186c-0.174,0.196-0.313,0.387-0.422,0.572H447.755z"/>
</g>
<circle fill="#46000B" cx="413.767" cy="201.604" r="13.333"/>
<rect x="111.145" y="98.369" fill="#46000B" width="263.854" height="108.235"/>
<g id="Capa_1_1_" display="none">
	
		<image display="inline" overflow="visible" enable-background="new    " width="1437" height="1314" xlink:href="178AB2EA.jpeg"  transform="matrix(4.766374e-009 0.3997 -0.3997 4.766374e-009 519.4995 -32.311)">
	</image>
</g>
<g>
	<polygon fill="#BF002E" points="312.669,147.604 303.789,152.487 303.789,111.728 312.669,120.938 	"/>
	<polygon fill="#BF002E" points="312.669,185.531 303.789,194.58 303.789,153.821 312.669,159.604 	"/>
	<polygon fill="#BF002E" points="314.399,119.605 305.349,110.724 346.109,110.724 336.899,119.605 	"/>
	<polygon fill="#BF002E" points="337.06,148.271 314.56,148.271 305.35,153.154 305.349,153.154 314.399,158.037 336.899,158.037 
		346.109,153.154 346.11,153.154 	"/>
	<polygon fill="#BF002E" points="337.06,187.033 346.11,195.914 305.35,195.914 314.56,187.033 	"/>
	<polygon fill="#BF002E" points="338.789,120.777 347.669,111.728 347.669,152.487 338.789,147.438 	"/>
	<polygon fill="#BF002E" points="338.789,159.771 347.669,153.821 347.669,194.581 338.789,185.371 	"/>
</g>
<g>
	<polygon fill="#BF002E" points="256.93,147.604 248.049,152.487 248.049,111.728 256.93,120.938 	"/>
	<polygon fill="#BF002E" points="256.93,185.531 248.049,194.58 248.049,153.821 256.93,159.604 	"/>
	<polygon fill="#BF002E" points="258.66,119.605 249.61,110.724 290.37,110.724 281.16,119.605 	"/>
	<polygon fill="#BF002E" points="281.321,148.271 258.821,148.271 249.611,153.154 249.61,153.154 258.66,158.037 281.16,158.037 
		290.37,153.154 290.371,153.154 	"/>
	<polygon fill="#BF002E" points="281.321,187.033 290.371,195.914 249.611,195.914 258.821,187.033 	"/>
	<polygon fill="#BF002E" points="283.049,120.777 291.93,111.728 291.93,152.487 283.049,147.438 	"/>
	<polygon fill="#BF002E" points="283.049,159.771 291.93,153.821 291.93,194.581 283.049,185.371 	"/>
</g>
<g>
	<polygon fill="#BF002E" points="199.93,147.604 191.049,152.487 191.049,111.728 199.93,120.938 	"/>
	<polygon fill="#BF002E" points="199.93,185.531 191.049,194.58 191.049,153.821 199.93,159.604 	"/>
	<polygon fill="#BF002E" points="201.66,119.605 192.61,110.724 233.37,110.724 224.16,119.605 	"/>
	<polygon fill="#BF002E" points="224.321,148.271 201.821,148.271 192.611,153.154 192.61,153.154 201.66,158.037 224.16,158.037 
		233.37,153.154 233.371,153.154 	"/>
	<polygon fill="#BF002E" points="224.321,187.033 233.371,195.914 192.611,195.914 201.821,187.033 	"/>
	<polygon fill="#BF002E" points="226.049,120.777 234.93,111.728 234.93,152.487 226.049,147.438 	"/>
	<polygon fill="#BF002E" points="226.049,159.771 234.93,153.821 234.93,194.581 226.049,185.371 	"/>
</g>
<g>
	<polygon fill="#BF002E" points="144.43,147.604 135.549,152.487 135.549,111.728 144.43,120.938 	"/>
	<polygon fill="#BF002E" points="144.43,185.531 135.549,194.58 135.549,153.821 144.43,159.604 	"/>
	<polygon fill="#BF002E" points="146.16,119.605 137.11,110.724 177.87,110.724 168.66,119.605 	"/>
	<polygon fill="#BF002E" points="168.821,148.271 146.321,148.271 137.111,153.154 137.11,153.154 146.16,158.037 168.66,158.037 
		177.87,153.154 177.871,153.154 	"/>
	<polygon fill="#BF002E" points="168.821,187.033 177.871,195.914 137.111,195.914 146.321,187.033 	"/>
	<polygon fill="#BF002E" points="170.549,120.777 179.43,111.728 179.43,152.487 170.549,147.438 	"/>
	<polygon fill="#BF002E" points="170.549,159.771 179.43,153.821 179.43,194.581 170.549,185.371 	"/>
</g>
<radialGradient id="SVGID_1_" cx="236.9331" cy="152.0366" r="196.459" gradientTransform="matrix(1.211 0 0 0.7739 -33.4625 48.6609)" gradientUnits="userSpaceOnUse">
	<stop  offset="0" style="stop-color:#EA002E"/>
	<stop  offset="1" style="stop-color:#BF002E;stop-opacity:0"/>
</radialGradient>
<ellipse fill="url(#SVGID_1_)" cx="253.459" cy="166.321" rx="237.908" ry="152.037"/>
</svg>
