<?xml version="1.0" encoding="utf-8"?>
<!-- Generator: Adobe Illustrator 16.0.3, SVG Export Plug-In . SVG Version: 6.00 Build 0)  -->
<!DOCTYPE svg PUBLIC "-//W3C//DTD SVG 1.1//EN" "http://www.w3.org/Graphics/SVG/1.1/DTD/svg11.dtd">
<svg version="1.1" id="Capa_2" xmlns="http://www.w3.org/2000/svg" xmlns:xlink="http://www.w3.org/1999/xlink" x="0px" y="0px"
	 width="527.577px" height="484.542px" viewBox="0 0 527.577 484.542" enable-background="new 0 0 527.577 484.542"
	 xml:space="preserve">
<rect x="0" fill="#2D2D2D" width="527.577" height="484.542"/>
<rect x="15.551" y="14.283" fill="#2B8AD4" width="496.475" height="455.978"/>
<rect x="15.551" y="392.355" fill="#FFFFFF" width="496.475" height="11.999"/>
<g>
	<path fill="#FFFFFF" d="M249.02,435.398l4.836,0.629c-0.944,2.251-2.36,3.972-4.248,5.161s-4.099,1.784-6.633,1.784
		c-2.854,0-5.083-0.738-6.689-2.215s-2.41-3.618-2.41-6.426c0-2.278,0.538-4.363,1.615-6.255c1.076-1.892,2.568-3.338,4.478-4.341
		s3.987-1.504,6.236-1.504c2.523,0,4.565,0.581,6.124,1.743s2.477,2.746,2.752,4.751l-4.598,0.383
		c-0.254-1.167-0.745-2.012-1.471-2.536c-0.727-0.524-1.694-0.786-2.903-0.786c-1.326,0-2.564,0.347-3.715,1.039
		s-2.07,1.775-2.76,3.247s-1.034,2.941-1.034,4.409c0,1.604,0.448,2.844,1.345,3.719c0.896,0.875,2.012,1.313,3.349,1.313
		c1.24,0,2.378-0.347,3.412-1.039C247.738,437.782,248.511,436.756,249.02,435.398z"/>
	<path fill="#FFFFFF" d="M257.164,434.755c0-1.185,0.207-2.434,0.62-3.746c0.541-1.759,1.365-3.286,2.474-4.58
		s2.506-2.317,4.191-3.069c1.687-0.752,3.606-1.128,5.759-1.128c2.885,0,5.215,0.771,6.991,2.311s2.665,3.582,2.665,6.125
		c0,2.114-0.578,4.161-1.734,6.139c-1.155,1.978-2.726,3.5-4.708,4.566c-1.983,1.066-4.227,1.6-6.729,1.6
		c-2.174,0-3.998-0.424-5.472-1.271c-1.475-0.848-2.52-1.898-3.134-3.151C257.472,437.296,257.164,436.032,257.164,434.755z
		 M261.904,434.673c0,1.376,0.487,2.529,1.464,3.459c0.976,0.93,2.259,1.395,3.85,1.395c1.294,0,2.537-0.367,3.73-1.101
		c1.192-0.733,2.179-1.846,2.959-3.336c0.779-1.49,1.169-2.941,1.169-4.354c0-1.577-0.493-2.814-1.479-3.712
		s-2.243-1.347-3.771-1.347c-2.344,0-4.25,0.938-5.719,2.816S261.904,432.431,261.904,434.673z"/>
	<path fill="#FFFFFF" d="M299.638,442.617h-4.471l-6.299-13.467l-3.277,13.467h-4.47l4.867-20.043h4.486l6.315,13.412l3.261-13.412
		h4.454L299.638,442.617z"/>
	<path fill="#FFFFFF" d="M314.67,442.617h-4.804l4.072-16.693h-6.841l0.812-3.35h18.373l-0.811,3.35h-6.745L314.67,442.617z"/>
	<path fill="#FFFFFF" d="M329.321,442.617h-4.804l4.884-20.043h10.355c1.782,0,3.169,0.157,4.16,0.472s1.792,0.891,2.402,1.729
		c0.609,0.839,0.914,1.854,0.914,3.049c0,1.704-0.594,3.11-1.781,4.218s-2.985,1.793-5.393,2.058
		c0.615,0.474,1.193,1.099,1.733,1.873c1.071,1.567,2.265,3.782,3.58,6.645h-5.154c-0.414-1.13-1.226-2.894-2.435-5.291
		c-0.657-1.294-1.357-2.165-2.1-2.611c-0.456-0.265-1.251-0.396-2.386-0.396h-1.957L329.321,442.617z M332.074,431.31h2.545
		c2.577,0,4.287-0.132,5.13-0.396c0.844-0.265,1.504-0.679,1.98-1.244c0.478-0.565,0.716-1.157,0.716-1.777
		c0-0.729-0.345-1.276-1.034-1.641c-0.424-0.219-1.341-0.328-2.752-0.328h-5.281L332.074,431.31z"/>
	<path fill="#FFFFFF" d="M349.461,434.755c0-1.185,0.207-2.434,0.62-3.746c0.541-1.759,1.365-3.286,2.474-4.58
		s2.506-2.317,4.191-3.069c1.687-0.752,3.606-1.128,5.759-1.128c2.885,0,5.215,0.771,6.991,2.311s2.665,3.582,2.665,6.125
		c0,2.114-0.578,4.161-1.734,6.139c-1.155,1.978-2.726,3.5-4.708,4.566c-1.983,1.066-4.227,1.6-6.729,1.6
		c-2.174,0-3.998-0.424-5.472-1.271c-1.475-0.848-2.52-1.898-3.134-3.151C349.769,437.296,349.461,436.032,349.461,434.755z
		 M354.201,434.673c0,1.376,0.487,2.529,1.464,3.459c0.976,0.93,2.259,1.395,3.85,1.395c1.294,0,2.537-0.367,3.73-1.101
		c1.192-0.733,2.179-1.846,2.959-3.336c0.779-1.49,1.169-2.941,1.169-4.354c0-1.577-0.493-2.814-1.479-3.712
		s-2.243-1.347-3.771-1.347c-2.344,0-4.25,0.938-5.719,2.816S354.201,432.431,354.201,434.673z"/>
	<path fill="#FFFFFF" d="M373.418,442.617l4.884-20.043h4.788l-4.057,16.693H390.9l-0.812,3.35H373.418z"/>
	<path fill="#FFFFFF" d="M401.972,437.38l4.375-0.451c0.18,1.066,0.506,1.805,0.979,2.215c0.472,0.41,1.1,0.615,1.885,0.615
		c1.039,0,1.9-0.301,2.585-0.902c0.684-0.602,1.026-1.372,1.026-2.311c0-0.82-0.276-1.47-0.828-1.948
		c-0.551-0.479-1.294-0.718-2.227-0.718c-0.233,0-0.478,0.019-0.731,0.055l0.795-3.268c0.159,0.019,0.313,0.027,0.462,0.027
		c1.219,0,2.147-0.267,2.783-0.8c0.637-0.533,0.955-1.256,0.955-2.167c0-0.647-0.215-1.157-0.645-1.531s-0.994-0.561-1.694-0.561
		c-0.657,0-1.246,0.207-1.766,0.622s-0.934,1.123-1.241,2.126l-4.168-0.711c0.53-1.477,1.268-2.611,2.212-3.404
		c1.432-1.185,3.191-1.777,5.281-1.777c2.142,0,3.77,0.513,4.884,1.538c1.113,1.025,1.67,2.254,1.67,3.685
		c0,1.039-0.355,1.978-1.065,2.816c-0.711,0.839-1.687,1.454-2.928,1.846c0.986,0.446,1.713,1.025,2.18,1.736s0.7,1.454,0.7,2.229
		c0,1.477-0.61,2.835-1.83,4.074c-1.665,1.695-3.813,2.543-6.442,2.543c-1.973,0-3.598-0.485-4.875-1.456
		C403.024,440.532,402.247,439.158,401.972,437.38z"/>
	<path fill="#FFFFFF" d="M420.536,436.095c0-2.015,0.397-4.056,1.193-6.125c0.976-2.524,2.227-4.402,3.754-5.633
		s3.224-1.846,5.091-1.846c1.888,0,3.438,0.588,4.653,1.764c1.214,1.176,1.821,2.885,1.821,5.127c0,2.051-0.443,4.218-1.328,6.501
		c-0.886,2.283-2.082,4.033-3.588,5.25s-3.203,1.825-5.09,1.825c-1.888,0-3.444-0.588-4.669-1.764
		C421.148,440.019,420.536,438.319,420.536,436.095z M425.022,436.888c0,1.075,0.201,1.832,0.604,2.27
		c0.402,0.438,0.923,0.656,1.559,0.656c0.849,0,1.602-0.337,2.259-1.012c0.881-0.902,1.66-2.68,2.339-5.332
		c0.541-2.105,0.812-3.773,0.812-5.004c0-1.003-0.205-1.725-0.612-2.167c-0.409-0.442-0.931-0.663-1.567-0.663
		c-0.806,0-1.521,0.333-2.147,0.998c-0.923,0.966-1.718,2.666-2.387,5.1C425.309,433.839,425.022,435.557,425.022,436.888z"/>
	<path fill="#FFFFFF" d="M438.655,436.095c0-2.015,0.397-4.056,1.193-6.125c0.976-2.524,2.227-4.402,3.754-5.633
		s3.224-1.846,5.091-1.846c1.888,0,3.438,0.588,4.653,1.764c1.214,1.176,1.821,2.885,1.821,5.127c0,2.051-0.443,4.218-1.328,6.501
		c-0.886,2.283-2.082,4.033-3.588,5.25s-3.203,1.825-5.09,1.825c-1.888,0-3.444-0.588-4.669-1.764
		C439.268,440.019,438.655,438.319,438.655,436.095z M443.142,436.888c0,1.075,0.201,1.832,0.604,2.27
		c0.402,0.438,0.923,0.656,1.559,0.656c0.849,0,1.602-0.337,2.259-1.012c0.881-0.902,1.66-2.68,2.339-5.332
		c0.541-2.105,0.812-3.773,0.812-5.004c0-1.003-0.205-1.725-0.612-2.167c-0.409-0.442-0.931-0.663-1.567-0.663
		c-0.806,0-1.521,0.333-2.147,0.998c-0.923,0.966-1.718,2.666-2.387,5.1C443.428,433.839,443.142,435.557,443.142,436.888z"/>
	<path fill="#FFFFFF" d="M456.773,436.095c0-2.015,0.397-4.056,1.193-6.125c0.976-2.524,2.227-4.402,3.754-5.633
		s3.224-1.846,5.091-1.846c1.888,0,3.438,0.588,4.653,1.764c1.214,1.176,1.821,2.885,1.821,5.127c0,2.051-0.443,4.218-1.328,6.501
		c-0.886,2.283-2.082,4.033-3.588,5.25s-3.203,1.825-5.09,1.825c-1.888,0-3.444-0.588-4.669-1.764
		C457.386,440.019,456.773,438.319,456.773,436.095z M461.26,436.888c0,1.075,0.201,1.832,0.604,2.27
		c0.402,0.438,0.923,0.656,1.559,0.656c0.849,0,1.602-0.337,2.259-1.012c0.881-0.902,1.66-2.68,2.339-5.332
		c0.541-2.105,0.812-3.773,0.812-5.004c0-1.003-0.205-1.725-0.612-2.167c-0.409-0.442-0.931-0.663-1.567-0.663
		c-0.806,0-1.521,0.333-2.147,0.998c-0.923,0.966-1.718,2.666-2.387,5.1C461.546,433.839,461.26,435.557,461.26,436.888z"/>
</g>
<rect x="68.798" y="77.37" width="389.981" height="152.902"/>
<rect x="68.798" y="271.498" width="389.981" height="40.453"/>
<rect x="111.145" y="335.271" fill="#8D919D" width="62" height="29"/>
<rect x="192.933" y="335.271" fill="#8D919D" width="62" height="29"/>
<rect x="274.434" y="335.271" fill="#8D919D" width="62" height="29"/>
<rect x="354.434" y="335.271" fill="#8D919D" width="62" height="29"/>
<g>
	<path d="M116.285,357.536v-14.316h9.658v1.689h-7.764v4.434h6.719v1.689h-6.719v6.504H116.285z"/>
	<path d="M137.799,343.219h1.895v8.271c0,1.438-0.163,2.581-0.488,3.428s-0.913,1.535-1.763,2.065s-1.964,0.796-3.345,0.796
		c-1.341,0-2.438-0.231-3.291-0.693s-1.461-1.131-1.826-2.007s-0.547-2.072-0.547-3.589v-8.271h1.895v8.262
		c0,1.243,0.116,2.16,0.347,2.749s0.628,1.043,1.191,1.362s1.251,0.479,2.065,0.479c1.393,0,2.386-0.315,2.979-0.947
		s0.889-1.846,0.889-3.643V343.219z"/>
	<path d="M142.828,357.536v-14.316h1.943l7.52,11.24v-11.24h1.816v14.316h-1.943l-7.52-11.25v11.25H142.828z"/>
	<path d="M167.506,352.516l1.895,0.479c-0.397,1.556-1.112,2.742-2.144,3.56s-2.293,1.226-3.784,1.226
		c-1.543,0-2.798-0.314-3.765-0.942s-1.703-1.538-2.207-2.729s-0.757-2.471-0.757-3.838c0-1.491,0.285-2.791,0.854-3.901
		s1.38-1.953,2.432-2.529s2.208-0.864,3.472-0.864c1.432,0,2.637,0.364,3.613,1.094s1.657,1.755,2.041,3.076l-1.865,0.439
		c-0.332-1.042-0.814-1.8-1.445-2.275s-1.426-0.713-2.383-0.713c-1.1,0-2.02,0.264-2.759,0.791s-1.258,1.235-1.558,2.124
		s-0.449,1.805-0.449,2.749c0,1.218,0.177,2.28,0.532,3.188s0.907,1.587,1.655,2.036s1.559,0.674,2.432,0.674
		c1.061,0,1.959-0.306,2.695-0.918S167.246,353.72,167.506,352.516z"/>
</g>
<g>
	<path fill="#FFFFFF" d="M275.547,265.536v-10.737h2.139l2.541,7.603c0.234,0.708,0.405,1.237,0.513,1.589
		c0.122-0.39,0.313-0.964,0.571-1.721l2.571-7.471h1.911v10.737h-1.369v-8.987l-3.12,8.987h-1.282l-3.105-9.141v9.141H275.547z"/>
	<path fill="#FFFFFF" d="M286.906,265.536l4.124-10.737h1.53l4.395,10.737h-1.618l-1.253-3.252h-4.489l-1.18,3.252H286.906z
		 M290.005,261.126h3.64l-1.12-2.974c-0.342-0.903-0.596-1.646-0.762-2.227c-0.137,0.688-0.33,1.372-0.579,2.051L290.005,261.126z"
		/>
	<path fill="#FFFFFF" d="M298.076,265.536v-10.737h1.457l5.64,8.43v-8.43h1.362v10.737h-1.457l-5.64-8.438v8.438H298.076z"/>
	<path fill="#FFFFFF" d="M315.969,254.798h1.421v6.203c0,1.08-0.122,1.937-0.366,2.571s-0.685,1.151-1.321,1.549
		c-0.638,0.398-1.474,0.597-2.509,0.597c-1.006,0-1.829-0.173-2.469-0.52s-1.096-0.849-1.369-1.505
		c-0.273-0.657-0.41-1.554-0.41-2.692v-6.203h1.421v6.196c0,0.933,0.086,1.62,0.26,2.062c0.173,0.442,0.471,0.783,0.894,1.021
		c0.422,0.24,0.938,0.359,1.549,0.359c1.045,0,1.79-0.236,2.234-0.711c0.444-0.473,0.666-1.384,0.666-2.731V254.798z"/>
	<path fill="#FFFFFF" d="M318.576,265.536l4.124-10.737h1.53l4.395,10.737h-1.618l-1.253-3.252h-4.489l-1.18,3.252H318.576z
		 M321.675,261.126h3.64l-1.12-2.974c-0.342-0.903-0.596-1.646-0.762-2.227c-0.137,0.688-0.33,1.372-0.579,2.051L321.675,261.126z"
		/>
	<path fill="#FFFFFF" d="M329.702,265.536v-10.737h1.421v9.471h5.288v1.267H329.702z"/>
</g>
<g>
	<path fill="#FFFFFF" d="M385.976,108.042l2.109-0.205c0.127,0.708,0.385,1.228,0.772,1.56c0.389,0.332,0.912,0.498,1.571,0.498
		c0.698,0,1.224-0.147,1.578-0.443c0.354-0.295,0.531-0.641,0.531-1.036c0-0.254-0.075-0.47-0.224-0.648
		c-0.149-0.178-0.409-0.333-0.78-0.465c-0.254-0.088-0.832-0.244-1.735-0.469c-1.162-0.288-1.978-0.642-2.446-1.063
		c-0.659-0.59-0.989-1.311-0.989-2.16c0-0.547,0.155-1.059,0.466-1.534c0.31-0.477,0.756-0.839,1.34-1.088
		c0.583-0.249,1.288-0.374,2.113-0.374c1.348,0,2.362,0.296,3.043,0.887c0.682,0.591,1.039,1.38,1.073,2.365l-2.168,0.096
		c-0.093-0.552-0.292-0.948-0.597-1.19c-0.306-0.241-0.764-0.362-1.374-0.362c-0.63,0-1.123,0.13-1.479,0.389
		c-0.229,0.166-0.344,0.388-0.344,0.666c0,0.254,0.107,0.472,0.322,0.652c0.273,0.229,0.938,0.469,1.992,0.717
		c1.055,0.25,1.835,0.507,2.34,0.773c0.506,0.266,0.901,0.63,1.187,1.091c0.286,0.462,0.429,1.032,0.429,1.71
		c0,0.615-0.171,1.192-0.513,1.729c-0.342,0.538-0.825,0.937-1.45,1.198c-0.625,0.261-1.404,0.392-2.337,0.392
		c-1.357,0-2.399-0.313-3.127-0.941C386.552,110.158,386.117,109.244,385.976,108.042z"/>
	<path fill="#FFFFFF" d="M396.529,111.536v-10.737h7.962v1.816h-5.794v2.381h5.391v1.809h-5.391v2.922h5.999v1.81H396.529z"/>
	<path fill="#FFFFFF" d="M406.557,111.536v-10.737h2.109l4.395,7.17v-7.17h2.014v10.737h-2.175l-4.329-7.002v7.002H406.557z
		 M409.252,100.205h-0.938c-0.005-0.111-0.008-0.199-0.008-0.264c0-0.512,0.125-0.906,0.374-1.183
		c0.249-0.275,0.568-0.413,0.959-0.413c0.171,0,0.33,0.018,0.477,0.055c0.146,0.036,0.414,0.142,0.802,0.314
		c0.389,0.174,0.692,0.26,0.912,0.26c0.156,0,0.286-0.048,0.392-0.146c0.104-0.097,0.172-0.261,0.201-0.49h0.952
		c-0.005,0.659-0.128,1.131-0.369,1.414c-0.242,0.283-0.554,0.424-0.935,0.424c-0.166,0-0.329-0.017-0.49-0.051
		c-0.112-0.029-0.394-0.129-0.843-0.301c-0.449-0.17-0.776-0.256-0.981-0.256c-0.156,0-0.278,0.048-0.366,0.143
		C409.303,99.806,409.257,99.97,409.252,100.205z"/>
	<path fill="#FFFFFF" d="M427.05,111.536h-2.358l-0.938-2.438h-4.292l-0.887,2.438h-2.3l4.183-10.737h2.292L427.05,111.536z
		 M423.058,107.288l-1.479-3.984l-1.45,3.984H423.058z"/>
	<path fill="#FFFFFF" d="M428.258,111.536v-10.649h2.168v8.84h5.391v1.81H428.258z"/>
	<path fill="#FFFFFF" d="M446.07,111.536h-2.058v-7.757c-0.752,0.703-1.639,1.224-2.659,1.561v-1.867
		c0.537-0.176,1.121-0.51,1.751-1c0.63-0.491,1.062-1.063,1.296-1.718h1.67V111.536z"/>
</g>
<g>
	<path fill="#FFFFFF" d="M369.107,262.085l1.34-0.117c0.063,0.538,0.211,0.979,0.443,1.322c0.231,0.345,0.592,0.623,1.08,0.835
		c0.488,0.213,1.038,0.319,1.648,0.319c0.542,0,1.021-0.081,1.436-0.242s0.724-0.382,0.927-0.663
		c0.202-0.28,0.304-0.587,0.304-0.919c0-0.337-0.098-0.631-0.293-0.883c-0.195-0.251-0.518-0.462-0.967-0.633
		c-0.288-0.112-0.926-0.287-1.912-0.524c-0.986-0.236-1.677-0.46-2.072-0.67c-0.513-0.269-0.896-0.602-1.146-1
		c-0.252-0.397-0.377-0.843-0.377-1.337c0-0.541,0.153-1.048,0.461-1.52c0.308-0.471,0.757-0.828,1.348-1.072
		s1.248-0.367,1.971-0.367c0.796,0,1.498,0.129,2.105,0.385c0.608,0.257,1.075,0.634,1.402,1.132s0.503,1.062,0.527,1.692
		l-1.362,0.102c-0.073-0.678-0.321-1.19-0.743-1.537c-0.423-0.347-1.046-0.521-1.871-0.521c-0.859,0-1.486,0.157-1.879,0.473
		c-0.394,0.314-0.59,0.694-0.59,1.139c0,0.386,0.14,0.703,0.418,0.952c0.273,0.249,0.987,0.504,2.143,0.766
		c1.154,0.261,1.946,0.489,2.376,0.685c0.625,0.288,1.087,0.653,1.385,1.095c0.298,0.442,0.446,0.951,0.446,1.527
		c0,0.571-0.163,1.109-0.49,1.615c-0.327,0.505-0.798,0.898-1.41,1.179c-0.613,0.281-1.303,0.421-2.069,0.421
		c-0.972,0-1.786-0.142-2.442-0.424c-0.657-0.283-1.172-0.71-1.545-1.278C369.323,263.447,369.127,262.804,369.107,262.085z"/>
	<path fill="#FFFFFF" d="M379.801,265.536v-1.501h1.501v1.501H379.801z"/>
	<path fill="#FFFFFF" d="M383.763,265.536v-10.737h4.051c0.713,0,1.257,0.034,1.633,0.103c0.527,0.088,0.97,0.255,1.326,0.502
		c0.356,0.246,0.643,0.592,0.86,1.036c0.217,0.444,0.326,0.933,0.326,1.465c0,0.913-0.291,1.686-0.872,2.318
		c-0.581,0.632-1.631,0.948-3.149,0.948h-2.754v4.365H383.763z M385.184,259.904h2.776c0.918,0,1.569-0.171,1.955-0.514
		c0.386-0.341,0.579-0.822,0.579-1.442c0-0.449-0.113-0.834-0.341-1.153c-0.227-0.32-0.526-0.531-0.897-0.634
		c-0.239-0.063-0.681-0.095-1.325-0.095h-2.747V259.904z"/>
	<path fill="#FFFFFF" d="M392.039,265.536v-1.501h1.502v1.501H392.039z"/>
</g>
<g>
	<path d="M358.613,356.987V342.67h8.52v1.689h-6.96v4.385h6.518v1.68h-6.518v4.873h7.232v1.689H358.613z"/>
	<path d="M369.544,356.987V342.67h1.6l6.188,11.24v-11.24h1.495v14.316h-1.6l-6.188-11.25v11.25H369.544z"/>
	<path d="M384.443,356.987V344.36h-3.882v-1.689h9.339v1.689h-3.898v12.627H384.443z"/>
	<path d="M391.532,356.987V342.67h8.52v1.689h-6.96v4.385h6.518v1.68h-6.518v4.873h7.232v1.689H391.532z"/>
	<path d="M402.502,356.987V342.67h5.224c1.051,0,1.849,0.129,2.396,0.386c0.546,0.257,0.982,0.711,1.31,1.362s0.49,1.37,0.49,2.158
		c0,1.016-0.271,1.872-0.812,2.568s-1.377,1.14-2.508,1.328c0.413,0.241,0.727,0.479,0.94,0.713
		c0.455,0.508,0.887,1.143,1.294,1.904l2.05,3.896h-1.961l-1.56-2.979c-0.455-0.859-0.83-1.517-1.125-1.973
		s-0.559-0.774-0.792-0.957c-0.232-0.183-0.47-0.31-0.711-0.381c-0.177-0.046-0.466-0.068-0.868-0.068h-1.808v6.357H402.502z
		 M404.062,348.989h3.351c0.713,0,1.271-0.09,1.672-0.269c0.402-0.179,0.707-0.466,0.916-0.859s0.313-0.822,0.313-1.284
		c0-0.677-0.202-1.233-0.606-1.67s-1.044-0.654-1.917-0.654h-3.729V348.989z"/>
</g>
<polygon points="210.933,342.021 236.933,342.021 223.933,357.521 "/>
<polygon points="320.433,357.521 294.433,357.521 307.433,342.021 "/>
<circle fill="#46000B" cx="413.767" cy="132.938" r="13.333"/>
<circle fill="#46000B" cx="302.433" cy="291.724" r="13.333"/>
<circle fill="#46000B" cx="381.767" cy="291.724" r="13.333"/>
<g>
	<path fill="#FFFFFF" d="M385.976,176.709l2.109-0.205c0.127,0.708,0.385,1.228,0.772,1.56c0.389,0.332,0.912,0.498,1.571,0.498
		c0.698,0,1.224-0.147,1.578-0.443c0.354-0.295,0.531-0.641,0.531-1.036c0-0.254-0.075-0.47-0.224-0.648
		c-0.149-0.178-0.409-0.333-0.78-0.465c-0.254-0.088-0.832-0.244-1.735-0.469c-1.162-0.288-1.978-0.642-2.446-1.063
		c-0.659-0.59-0.989-1.311-0.989-2.16c0-0.547,0.155-1.059,0.466-1.534c0.31-0.477,0.756-0.839,1.34-1.088
		c0.583-0.249,1.288-0.374,2.113-0.374c1.348,0,2.362,0.296,3.043,0.887c0.682,0.591,1.039,1.38,1.073,2.365l-2.168,0.096
		c-0.093-0.552-0.292-0.948-0.597-1.19c-0.306-0.241-0.764-0.362-1.374-0.362c-0.63,0-1.123,0.13-1.479,0.389
		c-0.229,0.166-0.344,0.388-0.344,0.666c0,0.254,0.107,0.472,0.322,0.652c0.273,0.229,0.938,0.469,1.992,0.717
		c1.055,0.25,1.835,0.507,2.34,0.773c0.506,0.266,0.901,0.63,1.187,1.091c0.286,0.462,0.429,1.032,0.429,1.71
		c0,0.615-0.171,1.192-0.513,1.729c-0.342,0.538-0.825,0.937-1.45,1.198c-0.625,0.261-1.404,0.392-2.337,0.392
		c-1.357,0-2.399-0.313-3.127-0.941C386.552,178.824,386.117,177.91,385.976,176.709z"/>
	<path fill="#FFFFFF" d="M396.529,180.202v-10.737h7.962v1.816h-5.794v2.381h5.391v1.809h-5.391v2.922h5.999v1.81H396.529z"/>
	<path fill="#FFFFFF" d="M406.557,180.202v-10.737h2.109l4.395,7.17v-7.17h2.014v10.737h-2.175l-4.329-7.002v7.002H406.557z
		 M409.252,168.871h-0.938c-0.005-0.111-0.008-0.199-0.008-0.264c0-0.512,0.125-0.906,0.374-1.183
		c0.249-0.275,0.568-0.413,0.959-0.413c0.171,0,0.33,0.018,0.477,0.055c0.146,0.036,0.414,0.142,0.802,0.314
		c0.389,0.174,0.692,0.26,0.912,0.26c0.156,0,0.286-0.048,0.392-0.146c0.104-0.097,0.172-0.261,0.201-0.49h0.952
		c-0.005,0.659-0.128,1.131-0.369,1.414c-0.242,0.283-0.554,0.424-0.935,0.424c-0.166,0-0.329-0.017-0.49-0.051
		c-0.112-0.029-0.394-0.129-0.843-0.301c-0.449-0.17-0.776-0.256-0.981-0.256c-0.156,0-0.278,0.048-0.366,0.143
		C409.303,168.473,409.257,168.637,409.252,168.871z"/>
	<path fill="#FFFFFF" d="M427.05,180.202h-2.358l-0.938-2.438h-4.292l-0.887,2.438h-2.3l4.183-10.737h2.292L427.05,180.202z
		 M423.058,175.954l-1.479-3.984l-1.45,3.984H423.058z"/>
	<path fill="#FFFFFF" d="M428.258,180.202v-10.649h2.168v8.84h5.391v1.81H428.258z"/>
	<path fill="#FFFFFF" d="M447.755,178.291v1.911h-7.214c0.078-0.723,0.313-1.407,0.703-2.055c0.391-0.646,1.162-1.505,2.314-2.574
		c0.928-0.864,1.496-1.45,1.706-1.758c0.283-0.425,0.425-0.845,0.425-1.26c0-0.459-0.123-0.812-0.369-1.059
		c-0.247-0.246-0.588-0.37-1.022-0.37c-0.43,0-0.771,0.13-1.025,0.389s-0.4,0.688-0.439,1.289l-2.051-0.205
		c0.122-1.133,0.506-1.945,1.15-2.439c0.645-0.492,1.45-0.739,2.417-0.739c1.06,0,1.892,0.286,2.497,0.856
		c0.605,0.572,0.908,1.282,0.908,2.132c0,0.483-0.087,0.943-0.26,1.381c-0.174,0.437-0.448,0.895-0.824,1.373
		c-0.249,0.317-0.698,0.774-1.348,1.37s-1.061,0.991-1.233,1.186c-0.174,0.196-0.314,0.387-0.422,0.572H447.755z"/>
</g>
<circle fill="#46000B" cx="413.767" cy="201.604" r="13.333"/>
<rect x="111.145" y="98.369" fill="#46000B" width="263.855" height="108.235"/>
<g>
</g>
<g>
</g>
<g>
</g>
<g>
</g>
<g>
</g>
<g>
</g>
<g>
</g>
<g>
</g>
<g>
</g>
<g>
</g>
<g>
</g>
<g>
</g>
<g>
</g>
<g>
</g>
<g>
</g>
</svg>
