<?xml version="1.0" encoding="utf-8"?>
<!-- Generator: Adobe Illustrator 16.0.3, SVG Export Plug-In . SVG Version: 6.00 Build 0)  -->
<!DOCTYPE svg PUBLIC "-//W3C//DTD SVG 1.1//EN" "http://www.w3.org/Graphics/SVG/1.1/DTD/svg11.dtd">
<svg version="1.1" xmlns="http://www.w3.org/2000/svg" xmlns:xlink="http://www.w3.org/1999/xlink" x="0px" y="0px" width="100px"
	 height="100px" viewBox="0 0 100 100" enable-background="new 0 0 100 100" xml:space="preserve">
<g id="Capa_3">
	<linearGradient id="SVGID_1_" gradientUnits="userSpaceOnUse" x1="32.3438" y1="63.0518" x2="32.3438" y2="39.2505">
		<stop  offset="0" style="stop-color:#717171"/>
		<stop  offset="0.5" style="stop-color:#FFFFFF"/>
		<stop  offset="1" style="stop-color:#828282"/>
	</linearGradient>
	<rect x="20" y="39.25" fill="url(#SVGID_1_)" width="24.688" height="23.802"/>
	<linearGradient id="SVGID_2_" gradientUnits="userSpaceOnUse" x1="28.375" y1="3.9326" x2="33.417" y2="3.9326">
		<stop  offset="0" style="stop-color:#717171"/>
		<stop  offset="0.5" style="stop-color:#FFFFFF"/>
		<stop  offset="1" style="stop-color:#828282"/>
	</linearGradient>
	<rect x="28.375" y="1.782" fill="url(#SVGID_2_)" width="5.042" height="4.302"/>
	<linearGradient id="SVGID_3_" gradientUnits="userSpaceOnUse" x1="66.583" y1="3.9326" x2="71.625" y2="3.9326">
		<stop  offset="0" style="stop-color:#717171"/>
		<stop  offset="0.5" style="stop-color:#FFFFFF"/>
		<stop  offset="1" style="stop-color:#828282"/>
	</linearGradient>
	<rect x="66.583" y="1.782" fill="url(#SVGID_3_)" width="5.042" height="4.302"/>
	<linearGradient id="SVGID_4_" gradientUnits="userSpaceOnUse" x1="17.4375" y1="64.6504" x2="17.4375" y2="37.6514">
		<stop  offset="0" style="stop-color:#717171"/>
		<stop  offset="0.5" style="stop-color:#FFFFFF"/>
		<stop  offset="1" style="stop-color:#828282"/>
	</linearGradient>
	<rect x="14.875" y="37.651" fill="url(#SVGID_4_)" width="5.125" height="27"/>
</g>
<g id="Capa_2">
	<linearGradient id="SVGID_5_" gradientUnits="userSpaceOnUse" x1="25.5835" y1="88.877" x2="74.417" y2="88.877">
		<stop  offset="0" style="stop-color:#666666"/>
		<stop  offset="0.15" style="stop-color:#999999"/>
		<stop  offset="0.85" style="stop-color:#999999"/>
		<stop  offset="1" style="stop-color:#666666"/>
	</linearGradient>
	<path fill="url(#SVGID_5_)" d="M74.417,95.505c0,0.552-0.447,1-1,1H26.583c-0.552,0-1-0.448-1-1V82.25c0-0.553,0.448-1,1-1h46.833
		c0.553,0,1,0.447,1,1V95.505z"/>
	<rect x="27.625" y="33.75" fill="#828282" width="44.75" height="9.625"/>
	<rect x="26.125" y="63.146" fill="#828282" width="47.75" height="9.625"/>
	<linearGradient id="SVGID_6_" gradientUnits="userSpaceOnUse" x1="25.5835" y1="19.9165" x2="74.417" y2="19.9165">
		<stop  offset="0" style="stop-color:#808080"/>
		<stop  offset="0.15" style="stop-color:#BFBFBF"/>
		<stop  offset="0.85" style="stop-color:#BFBFBF"/>
		<stop  offset="1" style="stop-color:#808080"/>
	</linearGradient>
	<path fill="url(#SVGID_6_)" d="M74.417,35.167c0,0.552-0.447,1-1,1H26.583c-0.552,0-1-0.448-1-1v-30.5c0-0.552,0.448-1,1-1h46.833
		c0.553,0,1,0.448,1,1V35.167z"/>
	<linearGradient id="SVGID_7_" gradientUnits="userSpaceOnUse" x1="25.5835" y1="50.8955" x2="74.417" y2="50.8955">
		<stop  offset="0" style="stop-color:#808080"/>
		<stop  offset="0.15" style="stop-color:#BFBFBF"/>
		<stop  offset="0.85" style="stop-color:#BFBFBF"/>
		<stop  offset="1" style="stop-color:#808080"/>
	</linearGradient>
	<path fill="url(#SVGID_7_)" d="M74.417,63.311c0,0.45-0.447,0.814-1,0.814H26.583c-0.552,0-1-0.364-1-0.814V38.48
		c0-0.449,0.448-0.814,1-0.814h46.833c0.553,0,1,0.365,1,0.814V63.311z"/>
	<linearGradient id="SVGID_8_" gradientUnits="userSpaceOnUse" x1="25.5835" y1="67.958" x2="74.417" y2="67.958">
		<stop  offset="0" style="stop-color:#808080"/>
		<stop  offset="0.15" style="stop-color:#BFBFBF"/>
		<stop  offset="0.85" style="stop-color:#BFBFBF"/>
		<stop  offset="1" style="stop-color:#808080"/>
	</linearGradient>
	<path fill="url(#SVGID_8_)" d="M74.417,70.695c0,0.1-0.447,0.18-1,0.18H26.583c-0.552,0-1-0.08-1-0.18v-5.475
		c0-0.099,0.448-0.18,1-0.18h46.833c0.553,0,1,0.081,1,0.18V70.695z"/>
	<radialGradient id="SVGID_9_" cx="61.082" cy="57.3682" r="5.6563" gradientUnits="userSpaceOnUse">
		<stop  offset="0.7416" style="stop-color:#BFBFBF"/>
		<stop  offset="1" style="stop-color:#FFFFFF"/>
	</radialGradient>
	<circle fill="url(#SVGID_9_)" stroke="#4C4C4C" stroke-width="0.5" stroke-miterlimit="10" cx="61.082" cy="57.368" r="5.656"/>
	<radialGradient id="SVGID_10_" cx="61.082" cy="43.0938" r="2.2813" gradientUnits="userSpaceOnUse">
		<stop  offset="0.8128" style="stop-color:#2F2F2F"/>
		<stop  offset="0.9015" style="stop-color:#FFFFFF"/>
		<stop  offset="0.9978" style="stop-color:#BFBFBF"/>
	</radialGradient>
	<circle fill="url(#SVGID_10_)" cx="61.082" cy="43.094" r="2.281"/>
	<radialGradient id="SVGID_11_" cx="47.7188" cy="49.7188" r="2.2813" gradientUnits="userSpaceOnUse">
		<stop  offset="0.8128" style="stop-color:#2F2F2F"/>
		<stop  offset="0.9015" style="stop-color:#FFFFFF"/>
		<stop  offset="0.9978" style="stop-color:#BFBFBF"/>
	</radialGradient>
	<circle fill="url(#SVGID_11_)" cx="47.719" cy="49.719" r="2.281"/>
	<linearGradient id="SVGID_12_" gradientUnits="userSpaceOnUse" x1="25.5835" y1="84.127" x2="74.417" y2="84.127">
		<stop  offset="0" style="stop-color:#808080"/>
		<stop  offset="0.15" style="stop-color:#BFBFBF"/>
		<stop  offset="0.85" style="stop-color:#BFBFBF"/>
		<stop  offset="1" style="stop-color:#808080"/>
	</linearGradient>
	<path fill="url(#SVGID_12_)" d="M25.583,88.584c0,0,0.292,1.104,1.479,1.166s11.625,0,11.625,0s0.938,0.125,0.938,1.063
		s0,4.438,0,4.438s-0.25,1.249,1.063,1.249s18.688,0,18.688,0s1,0.125,1-0.938s0-4.812,0-4.812s0.209-1.126,1.438-1.126
		c1.688,0,11.438,0.125,11.438,0.125s1.167-0.188,1.167-1.688c0-0.532,0-1.117,0-1.653v-1.784V72.216c0-0.256-0.447-0.466-1-0.466
		H26.583c-0.552,0-1,0.21-1,0.466"/>
	<linearGradient id="SVGID_13_" gradientUnits="userSpaceOnUse" x1="30.396" y1="90.7773" x2="35.438" y2="90.7773">
		<stop  offset="0" style="stop-color:#717171"/>
		<stop  offset="0.5" style="stop-color:#FFFFFF"/>
		<stop  offset="1" style="stop-color:#828282"/>
	</linearGradient>
	<rect x="30.396" y="89.773" fill="url(#SVGID_13_)" width="5.042" height="2.008"/>
	<linearGradient id="SVGID_14_" gradientUnits="userSpaceOnUse" x1="65.2168" y1="90.7773" x2="70.2598" y2="90.7773">
		<stop  offset="0" style="stop-color:#717171"/>
		<stop  offset="0.5" style="stop-color:#FFFFFF"/>
		<stop  offset="1" style="stop-color:#828282"/>
	</linearGradient>
	<rect x="65.217" y="89.773" fill="url(#SVGID_14_)" width="5.043" height="2.008"/>
	<linearGradient id="SVGID_15_" gradientUnits="userSpaceOnUse" x1="44.042" y1="97.8779" x2="55.958" y2="97.8779">
		<stop  offset="0" style="stop-color:#808080"/>
		<stop  offset="0.0443" style="stop-color:#B2B2B2"/>
		<stop  offset="0.2857" style="stop-color:#CCCCCC"/>
		<stop  offset="0.3333" style="stop-color:#E5E5E5"/>
		<stop  offset="0.6666" style="stop-color:#E5E5E5"/>
		<stop  offset="0.7044" style="stop-color:#CCCCCC"/>
		<stop  offset="0.9606" style="stop-color:#B2B2B2"/>
		<stop  offset="1" style="stop-color:#808080"/>
	</linearGradient>
	<rect x="44.042" y="96.505" fill="url(#SVGID_15_)" width="11.916" height="2.746"/>
	<radialGradient id="SVGID_16_" cx="50" cy="86.8086" r="6.5937" gradientUnits="userSpaceOnUse">
		<stop  offset="0.8106" style="stop-color:#BFBFBF"/>
		<stop  offset="0.8473" style="stop-color:#FFFFFF"/>
		<stop  offset="0.8916" style="stop-color:#4C4C4C"/>
		<stop  offset="0.9409" style="stop-color:#4C4C4C"/>
		<stop  offset="0.9754" style="stop-color:#FFFFFF"/>
		<stop  offset="0.9978" style="stop-color:#BFBFBF"/>
	</radialGradient>
	<circle fill="url(#SVGID_16_)" cx="50" cy="86.809" r="6.594"/>
	<linearGradient id="SVGID_17_" gradientUnits="userSpaceOnUse" x1="46.249" y1="86.8086" x2="53.75" y2="86.8086">
		<stop  offset="0" style="stop-color:#A5A5A5"/>
		<stop  offset="0.069" style="stop-color:#4C4C4C"/>
		<stop  offset="0.9458" style="stop-color:#4C4C4C"/>
		<stop  offset="1" style="stop-color:#A5A5A5"/>
	</linearGradient>
	<polygon fill="url(#SVGID_17_)" points="53.75,88.901 50.063,91.104 46.312,89.011 46.249,84.716 49.937,82.514 53.688,84.606 	"/>
	<linearGradient id="SVGID_18_" gradientUnits="userSpaceOnUse" x1="37.9585" y1="51.7119" x2="37.9585" y2="47.438">
		<stop  offset="0" style="stop-color:#808080"/>
		<stop  offset="0.15" style="stop-color:#CCCCCC"/>
		<stop  offset="0.85" style="stop-color:#CCCCCC"/>
		<stop  offset="1" style="stop-color:#808080"/>
	</linearGradient>
	<path fill="url(#SVGID_18_)" d="M43.792,50.712c0,0.553-0.448,1-1,1h-9.667c-0.552,0-1-0.447-1-1v-2.274c0-0.552,0.448-1,1-1h9.667
		c0.552,0,1,0.448,1,1V50.712z"/>
	<linearGradient id="SVGID_19_" gradientUnits="userSpaceOnUse" x1="51.2695" y1="46.231" x2="51.2695" y2="41.9565">
		<stop  offset="0" style="stop-color:#808080"/>
		<stop  offset="0.15" style="stop-color:#CCCCCC"/>
		<stop  offset="0.85" style="stop-color:#CCCCCC"/>
		<stop  offset="1" style="stop-color:#808080"/>
	</linearGradient>
	<path fill="url(#SVGID_19_)" d="M57.104,45.231c0,0.553-0.447,1-1,1h-9.667c-0.552,0-1-0.447-1-1v-2.274c0-0.552,0.448-1,1-1h9.667
		c0.553,0,1,0.448,1,1V45.231z"/>
	<g>
		<g>
			<path fill="#7A7A7A" d="M34.122,50.525c0.136,0.084,0.335,0.154,0.545,0.154c0.311,0,0.493-0.164,0.493-0.402
				c0-0.22-0.125-0.346-0.443-0.468c-0.385-0.136-0.622-0.335-0.622-0.667c0-0.367,0.304-0.64,0.762-0.64
				c0.241,0,0.416,0.056,0.521,0.115l-0.084,0.248c-0.077-0.042-0.234-0.112-0.447-0.112c-0.321,0-0.444,0.192-0.444,0.353
				c0,0.22,0.144,0.329,0.468,0.454c0.398,0.154,0.601,0.346,0.601,0.692c0,0.364-0.269,0.678-0.825,0.678
				c-0.227,0-0.475-0.066-0.601-0.15L34.122,50.525z"/>
			<path fill="#7A7A7A" d="M35.885,48.568c0.146-0.024,0.339-0.045,0.583-0.045c0.3,0,0.521,0.07,0.66,0.196
				c0.129,0.112,0.207,0.283,0.207,0.493c0,0.213-0.063,0.381-0.182,0.503c-0.161,0.171-0.423,0.259-0.72,0.259
				c-0.091,0-0.174-0.003-0.245-0.021v0.943h-0.304V48.568z M36.188,49.704c0.066,0.018,0.15,0.024,0.252,0.024
				c0.367,0,0.59-0.178,0.59-0.503c0-0.311-0.22-0.461-0.556-0.461c-0.133,0-0.234,0.01-0.287,0.024V49.704z"/>
			<path fill="#7A7A7A" d="M37.83,50.155l-0.245,0.741h-0.314l0.8-2.355h0.367l0.804,2.355h-0.325l-0.252-0.741H37.83z
				 M38.602,49.917l-0.23-0.678c-0.052-0.154-0.087-0.293-0.122-0.43h-0.007c-0.035,0.14-0.073,0.283-0.119,0.426l-0.23,0.681
				H38.602z"/>
			<path fill="#7A7A7A" d="M39.585,50.896v-2.355h0.332l0.754,1.191c0.175,0.276,0.311,0.524,0.423,0.765l0.007-0.003
				c-0.028-0.314-0.035-0.601-0.035-0.968v-0.985h0.287v2.355h-0.308l-0.748-1.195c-0.165-0.262-0.322-0.531-0.44-0.787l-0.01,0.004
				c0.017,0.297,0.024,0.58,0.024,0.971v1.006H39.585z"/>
		</g>
	</g>
	<g>
		<g>
			<path fill="#7A7A7A" d="M47.502,45.197l1.307-1.912v-0.011h-1.195V43.02h1.59v0.185l-1.3,1.904v0.011h1.317v0.255h-1.719V45.197z
				"/>
			<path fill="#7A7A7A" d="M50.813,44.271h-0.916v0.849h1.021v0.255h-1.324V43.02h1.272v0.255h-0.968v0.744h0.916V44.271z"/>
			<path fill="#7A7A7A" d="M51.312,43.051c0.153-0.031,0.374-0.049,0.583-0.049c0.325,0,0.535,0.06,0.682,0.192
				c0.119,0.105,0.186,0.266,0.186,0.447c0,0.311-0.196,0.518-0.444,0.601v0.011c0.182,0.063,0.29,0.23,0.346,0.475
				c0.077,0.329,0.133,0.556,0.182,0.646H52.53c-0.038-0.066-0.091-0.27-0.157-0.563c-0.069-0.325-0.195-0.447-0.472-0.458h-0.286
				v1.021h-0.304V43.051z M51.615,44.124h0.311c0.325,0,0.531-0.178,0.531-0.447c0-0.304-0.22-0.437-0.541-0.44
				c-0.147,0-0.252,0.014-0.301,0.028V44.124z"/>
			<path fill="#7A7A7A" d="M55.213,44.173c0,0.811-0.493,1.24-1.094,1.24c-0.622,0-1.059-0.482-1.059-1.195
				c0-0.748,0.464-1.237,1.094-1.237C54.797,42.981,55.213,43.474,55.213,44.173z M53.385,44.211c0,0.503,0.272,0.954,0.752,0.954
				c0.481,0,0.755-0.443,0.755-0.978c0-0.468-0.245-0.958-0.752-0.958C53.637,43.229,53.385,43.694,53.385,44.211z"/>
		</g>
	</g>
	
		<line fill="none" stroke="#4C4C4C" stroke-linecap="round" stroke-miterlimit="10" x1="61.082" y1="52.688" x2="61.082" y2="62.063"/>
	<g>
	</g>
	<g>
	</g>
	<g>
	</g>
	<g>
	</g>
	<g>
	</g>
	<g>
	</g>
	<g>
	</g>
	<g>
	</g>
	<g>
	</g>
	<g>
	</g>
	<g>
	</g>
	<g>
	</g>
	<g>
	</g>
	<g>
	</g>
	<g>
	</g>
</g>
</svg>
