<?xml version="1.0" encoding="iso-8859-1"?>
<!-- Generator: Adobe Illustrator 16.0.0, SVG Export Plug-In . SVG Version: 6.00 Build 0)  -->
<!DOCTYPE svg PUBLIC "-//W3C//DTD SVG 1.1//EN" "http://www.w3.org/Graphics/SVG/1.1/DTD/svg11.dtd">
<svg version="1.1" xmlns="http://www.w3.org/2000/svg" xmlns:xlink="http://www.w3.org/1999/xlink" x="0px" y="0px" width="50px"
	 height="100px" viewBox="0 0 50 100" style="enable-background:new 0 0 50 100;" xml:space="preserve">
<g id="Layer_2">
	<rect x="1.5" y="1.5" style="fill:#ECEAED;" width="47" height="97"/>
	<circle style="fill:#B7B7B7;stroke:#4D4D4D;stroke-width:0.4;stroke-miterlimit:10;" cx="12.79" cy="9.565" r="4.292"/>
	
		<line style="fill:#626463;stroke:#707070;stroke-linecap:round;stroke-miterlimit:10;" x1="11.589" y1="10.701" x2="13.892" y2="8.261"/>
	
		<line style="fill:#626463;stroke:#707070;stroke-linecap:round;stroke-miterlimit:10;" x1="11.563" y1="8.287" x2="13.918" y2="10.675"/>
	<circle style="fill:#B7B7B7;stroke:#4D4D4D;stroke-width:0.4;stroke-miterlimit:10;" cx="37.21" cy="9.565" r="4.292"/>
	
		<line style="fill:#626463;stroke:#707070;stroke-linecap:round;stroke-miterlimit:10;" x1="36.009" y1="10.701" x2="38.312" y2="8.261"/>
	
		<line style="fill:#626463;stroke:#707070;stroke-linecap:round;stroke-miterlimit:10;" x1="35.982" y1="8.287" x2="38.338" y2="10.675"/>
	<path style="fill:none;stroke:#A8A8A8;stroke-miterlimit:10;" d="M10.156,1.5v1.986C7.793,4.492,6.137,6.834,6.137,9.565
		c0,3.648,2.956,6.604,6.604,6.604s6.604-2.956,6.604-6.604c0-2.841-1.797-5.256-4.314-6.188V1.5"/>
	<path style="fill:none;stroke:#A8A8A8;stroke-miterlimit:10;" d="M34.625,1.5v1.986c-2.363,1.006-4.019,3.348-4.019,6.079
		c0,3.648,2.956,6.604,6.604,6.604s6.604-2.956,6.604-6.604c0-2.841-1.797-5.256-4.314-6.188V1.5"/>
	<circle style="fill:#B7B7B7;stroke:#4D4D4D;stroke-width:0.4;stroke-miterlimit:10;" cx="12.815" cy="90.435" r="4.292"/>
	
		<line style="fill:#626463;stroke:#707070;stroke-linecap:round;stroke-miterlimit:10;" x1="11.614" y1="89.299" x2="13.917" y2="91.738"/>
	
		<line style="fill:#626463;stroke:#707070;stroke-linecap:round;stroke-miterlimit:10;" x1="11.587" y1="91.713" x2="13.943" y2="89.324"/>
	<circle style="fill:#B7B7B7;stroke:#4D4D4D;stroke-width:0.4;stroke-miterlimit:10;" cx="37.235" cy="90.435" r="4.292"/>
	
		<line style="fill:#626463;stroke:#707070;stroke-linecap:round;stroke-miterlimit:10;" x1="36.034" y1="89.299" x2="38.337" y2="91.738"/>
	
		<line style="fill:#626463;stroke:#707070;stroke-linecap:round;stroke-miterlimit:10;" x1="36.007" y1="91.713" x2="38.363" y2="89.324"/>
	<path style="fill:none;stroke:#A8A8A8;stroke-miterlimit:10;" d="M10.181,98.5v-1.986c-2.363-1.006-4.019-3.349-4.019-6.079
		c0-3.647,2.956-6.604,6.604-6.604s6.604,2.956,6.604,6.604c0,2.841-1.797,5.256-4.314,6.188V98.5"/>
	<path style="fill:none;stroke:#A8A8A8;stroke-miterlimit:10;" d="M34.65,98.5v-1.986c-2.363-1.006-4.019-3.349-4.019-6.079
		c0-3.647,2.956-6.604,6.604-6.604s6.604,2.956,6.604,6.604c0,2.841-1.797,5.256-4.314,6.188V98.5"/>
	<rect x="1.5" y="22" style="fill:#ECEAED;" width="47" height="56"/>
	<rect x="1.5" y="78" style="fill:#A8A8A8;" width="47" height="2.5"/>
	<rect x="1.5" y="19.5" style="fill:#CECECE;" width="47" height="2.5"/>
	<path style="fill:#CECECE;" d="M24.906,3.813c0.984,0,1.781-1.035,1.781-2.313h-3.563C23.125,2.777,23.922,3.813,24.906,3.813z"/>
	<linearGradient id="SVGID_1_" gradientUnits="userSpaceOnUse" x1="25" y1="72.5" x2="25" y2="41.0005">
		<stop  offset="0" style="stop-color:#D6D6D6"/>
		<stop  offset="0.3226" style="stop-color:#F1FFFD"/>
		<stop  offset="1" style="stop-color:#ECEAED"/>
	</linearGradient>
	<rect x="1.5" y="41" style="fill:url(#SVGID_1_);" width="47" height="31.5"/>
	<path style="fill:#A8A8A8;" d="M25,1.5h-1.875c0,1.277,0.797,2.313,1.781,2.313c0.032,0,0.062-0.01,0.094-0.012V1.5z"/>
	<rect x="24.375" y="1.5" style="fill:#A8A8A8;" width="0.375" height="97"/>
	<rect x="25.25" y="1.5" style="fill:#CECECE;" width="0.375" height="97"/>
	<rect x="24.75" y="1.5" style="fill:#ECEAED;" width="0.5" height="97"/>
	<linearGradient id="SVGID_2_" gradientUnits="userSpaceOnUse" x1="37.1606" y1="72.5" x2="37.1606" y2="41.0015">
		<stop  offset="0" style="stop-color:#262626"/>
		<stop  offset="0.3226" style="stop-color:#404040"/>
		<stop  offset="1" style="stop-color:#404040"/>
	</linearGradient>
	<rect x="29.154" y="41.001" style="fill:url(#SVGID_2_);" width="16.012" height="31.499"/>
	<g>
		<path style="fill:#FFFFFF;" d="M35.735,47.891c0,1.831-1.11,2.941-2.743,2.941c-1.657,0-2.626-1.251-2.626-2.842
			c0-1.673,1.069-2.925,2.718-2.925C34.798,45.065,35.735,46.35,35.735,47.891z M31.7,47.965c0,1.094,0.514,1.864,1.359,1.864
			c0.854,0,1.342-0.812,1.342-1.897c0-1.003-0.48-1.864-1.351-1.864C32.197,46.068,31.7,46.88,31.7,47.965z"/>
		<path style="fill:#FFFFFF;" d="M36.56,45.157h3.414v1.036h-2.146v1.276h2.005v1.027h-2.005v2.246H36.56V45.157z"/>
		<path style="fill:#FFFFFF;" d="M40.923,45.157h3.414v1.036H42.19v1.276h2.005v1.027H42.19v2.246h-1.268V45.157z"/>
	</g>
	<g>
		<path style="fill:#FFFFFF;" d="M36.795,66.891c0,1.832-1.11,2.941-2.743,2.941c-1.657,0-2.626-1.251-2.626-2.842
			c0-1.674,1.069-2.925,2.718-2.925C35.859,64.065,36.795,65.35,36.795,66.891z M32.76,66.965c0,1.094,0.514,1.865,1.359,1.865
			c0.854,0,1.342-0.813,1.342-1.897c0-1.003-0.48-1.864-1.351-1.864C33.257,65.068,32.76,65.881,32.76,66.965z"/>
		<path style="fill:#FFFFFF;" d="M37.62,69.741v-5.585h1.475l1.16,2.047c0.332,0.588,0.663,1.284,0.912,1.914h0.024
			c-0.083-0.737-0.107-1.491-0.107-2.328v-1.633h1.16v5.585h-1.326l-1.193-2.154c-0.332-0.597-0.696-1.317-0.969-1.972l-0.025,0.008
			c0.033,0.738,0.05,1.525,0.05,2.436v1.683H37.62z"/>
	</g>
	<linearGradient id="SVGID_3_" gradientUnits="userSpaceOnUse" x1="13.0815" y1="72.5" x2="13.0815" y2="41.0015">
		<stop  offset="0" style="stop-color:#262626"/>
		<stop  offset="0.3226" style="stop-color:#404040"/>
		<stop  offset="1" style="stop-color:#404040"/>
	</linearGradient>
	<rect x="5.076" y="41.001" style="fill:url(#SVGID_3_);" width="16.012" height="31.499"/>
	<g>
		<path style="fill:#FFFFFF;" d="M11.656,47.891c0,1.831-1.11,2.941-2.743,2.941c-1.657,0-2.626-1.251-2.626-2.842
			c0-1.673,1.069-2.925,2.718-2.925C10.72,45.065,11.656,46.35,11.656,47.891z M7.621,47.965c0,1.094,0.514,1.864,1.359,1.864
			c0.854,0,1.342-0.812,1.342-1.897c0-1.003-0.48-1.864-1.351-1.864C8.118,46.068,7.621,46.88,7.621,47.965z"/>
		<path style="fill:#FFFFFF;" d="M12.481,45.157h3.414v1.036h-2.146v1.276h2.005v1.027h-2.005v2.246h-1.268V45.157z"/>
		<path style="fill:#FFFFFF;" d="M16.844,45.157h3.414v1.036h-2.146v1.276h2.005v1.027h-2.005v2.246h-1.268V45.157z"/>
	</g>
	<g>
		<path style="fill:#FFFFFF;" d="M12.717,66.891c0,1.832-1.11,2.941-2.743,2.941c-1.657,0-2.626-1.251-2.626-2.842
			c0-1.674,1.069-2.925,2.718-2.925C11.78,64.065,12.717,65.35,12.717,66.891z M8.682,66.965c0,1.094,0.514,1.865,1.359,1.865
			c0.854,0,1.342-0.813,1.342-1.897c0-1.003-0.48-1.864-1.351-1.864C9.179,65.068,8.682,65.881,8.682,66.965z"/>
		<path style="fill:#FFFFFF;" d="M13.542,69.741v-5.585h1.475l1.16,2.047c0.332,0.588,0.663,1.284,0.912,1.914h0.024
			c-0.083-0.737-0.107-1.491-0.107-2.328v-1.633h1.16v5.585h-1.326l-1.193-2.154c-0.332-0.597-0.696-1.317-0.969-1.972l-0.025,0.008
			c0.033,0.738,0.05,1.525,0.05,2.436v1.683H13.542z"/>
	</g>
	<path style="fill:#CECECE;" d="M3.281,1.5H1.5v2.313C2.484,3.813,3.281,2.777,3.281,1.5z"/>
	<path style="fill:#A8A8A8;" d="M48.5,1.5h-1.875c0,1.277,0.797,2.313,1.781,2.313c0.032,0,0.062-0.01,0.094-0.012V1.5z"/>
	<path style="fill:#848484;" d="M3.281,98.5H1.5v-2.313C2.484,96.188,3.281,97.223,3.281,98.5z"/>
	<path style="fill:#5B5B5B;" d="M48.5,98.5h-1.875c0-1.277,0.797-2.313,1.781-2.313c0.032,0,0.062,0.011,0.094,0.013V98.5z"/>
</g>
<g id="on">
	<linearGradient id="SVGID_4_" gradientUnits="userSpaceOnUse" x1="25" y1="57.5" x2="25" y2="41.001">
		<stop  offset="0" style="stop-color:#171717"/>
		<stop  offset="0.4408" style="stop-color:#404040"/>
		<stop  offset="0.9163" style="stop-color:#404040"/>
		<stop  offset="0.9754" style="stop-color:#262626"/>
	</linearGradient>
	<rect x="0.625" y="41" style="fill:url(#SVGID_4_);" width="48.75" height="16.5"/>
	<path style="fill:#545557;" d="M41,50H9v-9.261c0,0,4.809-2.863,16-2.863s16,2.863,16,2.863V50z"/>
	<g>
	</g>
	<g>
	</g>
	<g>
	</g>
	<g>
	</g>
	<g>
	</g>
	<g>
	</g>
	<g>
	</g>
	<g>
	</g>
	<g>
	</g>
	<g>
	</g>
	<g>
	</g>
	<g>
	</g>
	<g>
	</g>
	<g>
	</g>
	<g>
	</g>
</g>
</svg>
