<?xml version="1.0" encoding="iso-8859-1"?>
<!-- Generator: Adobe Illustrator 16.0.0, SVG Export Plug-In . SVG Version: 6.00 Build 0)  -->
<!DOCTYPE svg PUBLIC "-//W3C//DTD SVG 1.1//EN" "http://www.w3.org/Graphics/SVG/1.1/DTD/svg11.dtd">
<svg version="1.1" id="Layer_1" xmlns="http://www.w3.org/2000/svg" xmlns:xlink="http://www.w3.org/1999/xlink" x="0px" y="0px"
	 width="71.008px" height="100.236px" viewBox="0 0 71.008 100.236" style="enable-background:new 0 0 71.008 100.236;"
	 xml:space="preserve">
<g>
	<g id="Group_Flange_3_">
		
			<linearGradient id="SVGID_1_" gradientUnits="userSpaceOnUse" x1="447.9746" y1="-681.7876" x2="447.9746" y2="-505.5942" gradientTransform="matrix(0.5689 0 0 -0.5689 -234.1016 -287.6328)">
			<stop  offset="0.01" style="stop-color:#006033"/>
			<stop  offset="0.16" style="stop-color:#008948"/>
			<stop  offset="0.49" style="stop-color:#A8DDC4"/>
			<stop  offset="1" style="stop-color:#006033"/>
		</linearGradient>
		<path style="fill:url(#SVGID_1_);" d="M8.22,0h25.062v100.236H8.22V0"/>
	</g>
	<g id="Group_Bolt_3_">
		<path style="fill:#B8E3CF;" d="M0,8.412V6.21l8.22-2.001v3.206L0,8.412z"/>
		<polygon style="fill:#007940;" points="0,18.843 8.22,20.844 8.22,17.84 0,16.635 		"/>
		<polygon style="fill:#29AB6E;" points="0,16.635 8.22,17.84 8.22,7.415 0,8.412 		"/>
		<path style="fill:#B8E3CF;" d="M0,45.903v-2.007l8.22-2V44.9L0,45.903z"/>
		<polygon style="fill:#007940;" points="0,56.53 8.22,58.537 8.22,55.325 0,54.321 		"/>
		<polygon style="fill:#29AB6E;" points="0,54.321 8.22,55.325 8.22,44.9 0,45.903 		"/>
		<path style="fill:#B8E3CF;" d="M0,83.596v-2.007l8.22-2.202v3.206L0,83.596z"/>
		<polygon style="fill:#007940;" points="0,94.021 8.22,96.021 8.22,93.018 0,92.015 		"/>
		<polygon style="fill:#29AB6E;" points="0,92.015 8.22,93.018 8.22,82.593 0,83.596 		"/>
	</g>
</g>
<g>
	<g id="Group_Flange_2_">
		
			<linearGradient id="SVGID_2_" gradientUnits="userSpaceOnUse" x1="-972.7666" y1="-681.7856" x2="-972.7666" y2="-505.5923" gradientTransform="matrix(-0.5689 0 0 -0.5689 -503.1504 -287.6328)">
			<stop  offset="0.01" style="stop-color:#006033"/>
			<stop  offset="0.16" style="stop-color:#008948"/>
			<stop  offset="0.49" style="stop-color:#A8DDC4"/>
			<stop  offset="1" style="stop-color:#006033"/>
		</linearGradient>
		<path style="fill:url(#SVGID_2_);" d="M62.786,0v100.236h-25.06V0H62.786"/>
	</g>
	<g id="Group_Bolt_2_">
		<path style="fill:#B8E3CF;" d="M62.786,7.415V4.209l8.222,2.001v2.202L62.786,7.415z"/>
		<polygon style="fill:#007940;" points="71.008,16.635 62.786,17.84 62.786,20.844 71.008,18.843 		"/>
		<polygon style="fill:#29AB6E;" points="71.008,8.412 62.786,7.415 62.786,17.84 71.008,16.635 		"/>
		<path style="fill:#B8E3CF;" d="M62.786,44.9v-3.004l8.222,2v2.007L62.786,44.9z"/>
		<polygon style="fill:#007940;" points="71.008,54.321 62.786,55.325 62.786,58.537 71.008,56.53 		"/>
		<polygon style="fill:#29AB6E;" points="71.008,45.903 62.786,44.9 62.786,55.325 71.008,54.321 		"/>
		<path style="fill:#B8E3CF;" d="M62.786,82.593v-3.206l8.222,2.202v2.007L62.786,82.593z"/>
		<polygon style="fill:#007940;" points="71.008,92.015 62.786,93.018 62.786,96.021 71.008,94.021 		"/>
		<polygon style="fill:#29AB6E;" points="71.008,83.596 62.786,82.593 62.786,93.018 71.008,92.015 		"/>
	</g>
</g>
<g>
</g>
<g>
</g>
<g>
</g>
<g>
</g>
<g>
</g>
<g>
</g>
<g>
</g>
<g>
</g>
<g>
</g>
<g>
</g>
<g>
</g>
<g>
</g>
<g>
</g>
<g>
</g>
<g>
</g>
</svg>
