<?xml version="1.0" encoding="utf-8"?>
<!-- Generator: Adobe Illustrator 16.0.3, SVG Export Plug-In . SVG Version: 6.00 Build 0)  -->
<!DOCTYPE svg PUBLIC "-//W3C//DTD SVG 1.1//EN" "http://www.w3.org/Graphics/SVG/1.1/DTD/svg11.dtd">
<svg version="1.1" xmlns="http://www.w3.org/2000/svg" xmlns:xlink="http://www.w3.org/1999/xlink" x="0px" y="0px" width="100px"
	 height="82.835px" viewBox="0 0 100 82.835" enable-background="new 0 0 100 82.835" xml:space="preserve">
<g id="Layer_4">
	<linearGradient id="SVGID_1_" gradientUnits="userSpaceOnUse" x1="2.6768" y1="41.416" x2="97.0107" y2="41.416">
		<stop  offset="0" style="stop-color:#4B586E"/>
		<stop  offset="0.3" style="stop-color:#6B6E7F"/>
		<stop  offset="0.7" style="stop-color:#6B6E7F"/>
		<stop  offset="1" style="stop-color:#4B586E"/>
	</linearGradient>
	<rect x="2.677" y="2.667" fill="url(#SVGID_1_)" width="94.334" height="77.5"/>
</g>
<g id="Capa_6">
	<linearGradient id="SVGID_2_" gradientUnits="userSpaceOnUse" x1="65.8438" y1="42.022" x2="92.4863" y2="42.022">
		<stop  offset="0" style="stop-color:#628ECC"/>
		<stop  offset="1" style="stop-color:#4A608C"/>
	</linearGradient>
	<path fill="none" stroke="url(#SVGID_2_)" stroke-width="2.5" stroke-miterlimit="10" d="M74.938,42.563
		c0,0,13.554-6.968,15.781,7.356c3.114,20.026-8.513,20.207-17.491,12.644s-5.938-32.803-4.226-37.65
		c2.104-5.954,11.497-8.655,19.351-7.916"/>
	<linearGradient id="SVGID_3_" gradientUnits="userSpaceOnUse" x1="71.0977" y1="44.2871" x2="93.6641" y2="44.2871">
		<stop  offset="0" style="stop-color:#4A608C"/>
		<stop  offset="1" style="stop-color:#628ECC"/>
	</linearGradient>
	<path fill="none" stroke="url(#SVGID_3_)" stroke-width="2.5" stroke-miterlimit="10" d="M75.438,25.583
		c0,0,15.799,5.833,16.896,25.542c1.076,19.348-8.834,23.309-15.792,6.8s-4.685-29.936,2.624-34.851
		c4.585-3.083,9.188-2.761,9.188-2.761"/>
</g>
<g id="Layer_1">
	<linearGradient id="SVGID_4_" gradientUnits="userSpaceOnUse" x1="88.3535" y1="24.9126" x2="88.3535" y2="14.2324">
		<stop  offset="0" style="stop-color:#363E40"/>
		<stop  offset="0.5" style="stop-color:#E9FAFF"/>
		<stop  offset="1" style="stop-color:#363E40"/>
	</linearGradient>
	<rect x="84.375" y="14.232" fill="url(#SVGID_4_)" width="7.958" height="10.68"/>
	<linearGradient id="SVGID_5_" gradientUnits="userSpaceOnUse" x1="92.9697" y1="27.0625" x2="92.9697" y2="12.0825">
		<stop  offset="0" style="stop-color:#363E40"/>
		<stop  offset="0.5" style="stop-color:#E9FAFF"/>
		<stop  offset="1" style="stop-color:#363E40"/>
	</linearGradient>
	<rect x="90.72" y="12.083" fill="url(#SVGID_5_)" width="4.5" height="14.98"/>
	<path fill="none" stroke="#474753" stroke-width="3" stroke-miterlimit="10" d="M95.22,77.711c0,0.429-0.421,0.773-0.941,0.773
		H5.723c-0.521,0-0.942-0.345-0.942-0.773V4.958c0-0.428,0.422-0.774,0.942-0.774h88.556c0.521,0,0.941,0.346,0.941,0.774V77.711z"
		/>
	<path fill="none" stroke="#CFCDD6" stroke-width="3" stroke-miterlimit="10" d="M97.011,79.359c0,0.447-0.439,0.807-0.982,0.807
		H3.66c-0.543,0-0.983-0.359-0.983-0.807V3.474c0-0.446,0.44-0.807,0.983-0.807h92.369c0.543,0,0.982,0.361,0.982,0.807V79.359z"/>
	<linearGradient id="SVGID_6_" gradientUnits="userSpaceOnUse" x1="6.8335" y1="41.2461" x2="21.2085" y2="41.2461">
		<stop  offset="0" style="stop-color:#FFFFFF"/>
		<stop  offset="0.05" style="stop-color:#DCDBE3"/>
		<stop  offset="0.95" style="stop-color:#DCDBE3"/>
		<stop  offset="1" style="stop-color:#FFFFFF"/>
	</linearGradient>
	<rect x="6.833" y="8" fill="url(#SVGID_6_)" width="14.375" height="66.492"/>
	<linearGradient id="SVGID_7_" gradientUnits="userSpaceOnUse" x1="21.5625" y1="41.2461" x2="37" y2="41.2461">
		<stop  offset="0" style="stop-color:#FFFFFF"/>
		<stop  offset="0.05" style="stop-color:#DCDBE3"/>
		<stop  offset="0.95" style="stop-color:#DCDBE3"/>
		<stop  offset="1" style="stop-color:#FFFFFF"/>
	</linearGradient>
	<rect x="21.563" y="8" fill="url(#SVGID_7_)" width="15.438" height="66.492"/>
	
		<linearGradient id="SVGID_8_" gradientUnits="userSpaceOnUse" x1="75.4375" y1="45.3125" x2="75.4375" y2="20.375" gradientTransform="matrix(-1 0 0 1 148.666 0)">
		<stop  offset="0" style="stop-color:#808080"/>
		<stop  offset="0.05" style="stop-color:#DCDBE3"/>
		<stop  offset="0.95" style="stop-color:#DCDBE3"/>
		<stop  offset="1" style="stop-color:#808080"/>
	</linearGradient>
	<rect x="72.125" y="20.375" fill="url(#SVGID_8_)" width="2.208" height="24.938"/>
	
		<linearGradient id="SVGID_9_" gradientUnits="userSpaceOnUse" x1="73.2285" y1="36.8125" x2="73.2285" y2="20.375" gradientTransform="matrix(-1 0 0 1 148.666 0)">
		<stop  offset="0" style="stop-color:#808080"/>
		<stop  offset="0.05" style="stop-color:#DCDBE3"/>
		<stop  offset="0.95" style="stop-color:#DCDBE3"/>
		<stop  offset="1" style="stop-color:#808080"/>
	</linearGradient>
	<rect x="74.333" y="20.375" fill="url(#SVGID_9_)" width="2.208" height="16.438"/>
	<linearGradient id="SVGID_10_" gradientUnits="userSpaceOnUse" x1="46.0005" y1="21.125" x2="46.0005" y2="7.3379">
		<stop  offset="0" style="stop-color:#FFFFFF"/>
		<stop  offset="0.05" style="stop-color:#DCDBE3"/>
		<stop  offset="0.95" style="stop-color:#DCDBE3"/>
		<stop  offset="1" style="stop-color:#FFFFFF"/>
	</linearGradient>
	<rect x="38.281" y="7.338" fill="url(#SVGID_10_)" width="15.438" height="13.787"/>
	<rect x="14.625" y="21.125" fill="#5B5B5B" width="2.625" height="30"/>
	<rect x="27.375" y="24.988" fill="#5B5B5B" width="2.625" height="28.137"/>
	<path fill="#EAEAF3" d="M18.021,29.484c0,0.216-0.175,0.391-0.391,0.391h-3.385c-0.216,0-0.391-0.175-0.391-0.391l0,0
		c0-0.216,0.175-0.391,0.391-0.391h3.385C17.846,29.094,18.021,29.269,18.021,29.484L18.021,29.484z"/>
	<path fill="#EAEAF3" d="M30.771,35.078c0,0.216-0.175,0.391-0.391,0.391h-3.385c-0.216,0-0.391-0.175-0.391-0.391l0,0
		c0-0.216,0.175-0.391,0.391-0.391h3.385C30.596,34.688,30.771,34.862,30.771,35.078L30.771,35.078z"/>
	<circle fill="#E3E2F0" stroke="#BABBC9" stroke-width="0.4" stroke-miterlimit="10" cx="28.969" cy="64.115" r="4.656"/>
	<g>
		<circle fill="#B5B7C2" stroke="#91909E" stroke-width="0.4" stroke-miterlimit="10" cx="28.969" cy="64.115" r="3.065"/>
		
			<line fill="none" stroke="#D4D9E4" stroke-linecap="round" stroke-miterlimit="10" x1="26.977" y1="65.953" x2="30.766" y2="62.164"/>
	</g>
	<g>
		<circle fill="#B5B7C2" stroke="#91909E" stroke-width="0.4" stroke-miterlimit="10" cx="32.702" cy="12.634" r="2.46"/>
		
			<line fill="none" stroke="#D4D9E4" stroke-width="0.8" stroke-linecap="round" stroke-miterlimit="10" x1="34.177" y1="14.232" x2="31.136" y2="11.191"/>
	</g>
	<g>
		<circle fill="#B5B7C2" stroke="#91909E" stroke-width="0.4" stroke-miterlimit="10" cx="11.127" cy="12.634" r="2.46"/>
		
			<line fill="none" stroke="#D4D9E4" stroke-width="0.8" stroke-linecap="round" stroke-miterlimit="10" x1="12.603" y1="14.232" x2="9.562" y2="11.191"/>
	</g>
	<g>
		<path fill="#6B6B6B" d="M11.179,17.332c0.212-0.032,0.464-0.056,0.74-0.056c0.5,0,0.855,0.116,1.091,0.335
			c0.24,0.22,0.38,0.532,0.38,0.968c0,0.439-0.136,0.799-0.388,1.047c-0.252,0.252-0.668,0.388-1.191,0.388
			c-0.248,0-0.456-0.012-0.632-0.032V17.332z M11.527,19.714c0.088,0.016,0.216,0.02,0.352,0.02c0.744,0,1.147-0.416,1.147-1.144
			c0.004-0.635-0.356-1.039-1.091-1.039c-0.18,0-0.316,0.016-0.408,0.036V19.714z"/>
		<path fill="#6B6B6B" d="M14.191,17.296v2.694h-0.348v-2.694H14.191z"/>
		<path fill="#6B6B6B" d="M14.799,17.296h1.451v0.292h-1.103v0.896h1.019v0.288h-1.019v1.219h-0.348V17.296z"/>
		<path fill="#6B6B6B" d="M16.747,17.296h1.451v0.292h-1.103v0.896h1.019v0.288h-1.019v1.219h-0.348V17.296z"/>
	</g>
	<g>
		<path fill="#6B6B6B" d="M10.893,56.372c0.124-0.019,0.271-0.032,0.432-0.032c0.292,0,0.5,0.067,0.637,0.196
			c0.14,0.128,0.222,0.311,0.222,0.564c0,0.257-0.079,0.467-0.226,0.611c-0.147,0.147-0.39,0.227-0.696,0.227
			c-0.145,0-0.266-0.007-0.369-0.019V56.372z M11.096,57.764c0.052,0.01,0.126,0.012,0.206,0.012c0.434,0,0.67-0.243,0.67-0.668
			c0.002-0.371-0.208-0.606-0.637-0.606c-0.105,0-0.185,0.009-0.238,0.021V57.764z"/>
		<path fill="#6B6B6B" d="M12.656,56.352v1.573h-0.203v-1.573H12.656z"/>
		<path fill="#6B6B6B" d="M13.012,56.352h0.848v0.17h-0.645v0.523h0.596v0.168h-0.596v0.712h-0.203V56.352z"/>
		<path fill="#6B6B6B" d="M14.153,56.352H15v0.17h-0.645v0.523h0.596v0.168h-0.596v0.712h-0.203V56.352z"/>
		<path fill="#6B6B6B" d="M15.993,56.352v1.573H15.79v-1.573H15.993z"/>
		<path fill="#6B6B6B" d="M16.322,57.678c0.091,0.056,0.224,0.103,0.364,0.103c0.208,0,0.329-0.11,0.329-0.269
			c0-0.147-0.084-0.231-0.296-0.313c-0.257-0.092-0.416-0.225-0.416-0.446c0-0.245,0.203-0.428,0.509-0.428
			c0.161,0,0.278,0.038,0.348,0.077l-0.056,0.166c-0.051-0.028-0.157-0.074-0.299-0.074c-0.215,0-0.297,0.128-0.297,0.235
			c0,0.147,0.096,0.22,0.313,0.304c0.266,0.103,0.402,0.23,0.402,0.462c0,0.243-0.18,0.453-0.551,0.453
			c-0.152,0-0.317-0.045-0.401-0.101L16.322,57.678z"/>
		<path fill="#6B6B6B" d="M7.492,60.488c0.091,0.056,0.224,0.103,0.364,0.103c0.208,0,0.329-0.11,0.329-0.269
			c0-0.147-0.084-0.231-0.296-0.313c-0.257-0.092-0.416-0.225-0.416-0.446c0-0.245,0.203-0.428,0.509-0.428
			c0.161,0,0.278,0.038,0.348,0.077l-0.056,0.166c-0.051-0.028-0.157-0.074-0.299-0.074c-0.215,0-0.297,0.128-0.297,0.235
			c0,0.147,0.096,0.22,0.313,0.304c0.266,0.103,0.402,0.23,0.402,0.462c0,0.243-0.18,0.453-0.551,0.453
			c-0.152,0-0.317-0.045-0.401-0.101L7.492,60.488z"/>
		<path fill="#6B6B6B" d="M8.877,59.162v0.932c0,0.353,0.157,0.502,0.367,0.502c0.233,0,0.383-0.154,0.383-0.502v-0.932h0.206v0.917
			c0,0.483-0.254,0.682-0.595,0.682c-0.322,0-0.565-0.185-0.565-0.672v-0.927H8.877z"/>
		<path fill="#6B6B6B" d="M10.189,59.183c0.089-0.019,0.229-0.032,0.372-0.032c0.203,0,0.333,0.035,0.432,0.114
			c0.082,0.061,0.131,0.154,0.131,0.277c0,0.152-0.101,0.285-0.266,0.346v0.005c0.149,0.037,0.324,0.161,0.324,0.395
			c0,0.136-0.054,0.238-0.133,0.315c-0.11,0.101-0.287,0.146-0.544,0.146c-0.14,0-0.248-0.009-0.315-0.019V59.183z M10.392,59.827
			h0.185c0.215,0,0.341-0.112,0.341-0.264c0-0.185-0.14-0.257-0.346-0.257c-0.093,0-0.147,0.007-0.18,0.014V59.827z M10.392,60.581
			c0.04,0.007,0.098,0.01,0.17,0.01c0.21,0,0.404-0.077,0.404-0.306c0-0.215-0.185-0.304-0.406-0.304h-0.168V60.581z"/>
		<path fill="#6B6B6B" d="M11.736,59.335h-0.479v-0.173h1.165v0.173h-0.481v1.4h-0.206V59.335z"/>
		<path fill="#6B6B6B" d="M12.601,59.183c0.103-0.021,0.25-0.032,0.39-0.032c0.217,0,0.357,0.039,0.455,0.128
			c0.08,0.07,0.124,0.178,0.124,0.299c0,0.208-0.131,0.346-0.297,0.401v0.008c0.122,0.042,0.194,0.153,0.231,0.317
			c0.051,0.219,0.088,0.371,0.121,0.432h-0.21c-0.026-0.044-0.061-0.18-0.105-0.376c-0.047-0.217-0.131-0.299-0.315-0.306h-0.191
			v0.682h-0.203V59.183z M12.804,59.899h0.208c0.217,0,0.355-0.119,0.355-0.299c0-0.203-0.147-0.292-0.362-0.294
			c-0.098,0-0.168,0.009-0.201,0.019V59.899z"/>
		<path fill="#6B6B6B" d="M14.127,60.24l-0.164,0.495h-0.21l0.534-1.573h0.245l0.537,1.573h-0.217l-0.168-0.495H14.127z
			 M14.643,60.082l-0.154-0.453c-0.035-0.103-0.059-0.196-0.082-0.287h-0.004c-0.023,0.093-0.049,0.188-0.08,0.284l-0.154,0.456
			H14.643z"/>
		<path fill="#6B6B6B" d="M16.37,60.684c-0.075,0.038-0.224,0.075-0.416,0.075c-0.443,0-0.777-0.28-0.777-0.796
			c0-0.493,0.334-0.827,0.822-0.827c0.196,0,0.32,0.042,0.374,0.07l-0.049,0.166c-0.077-0.037-0.187-0.065-0.318-0.065
			c-0.369,0-0.614,0.235-0.614,0.649c0,0.385,0.222,0.632,0.604,0.632c0.124,0,0.25-0.025,0.332-0.065L16.37,60.684z"/>
		<path fill="#6B6B6B" d="M16.993,59.335h-0.479v-0.173h1.165v0.173h-0.481v1.4h-0.206V59.335z"/>
		<path fill="#6B6B6B" d="M18.062,59.162v1.573h-0.203v-1.573H18.062z"/>
		<path fill="#6B6B6B" d="M18.764,60.735l-0.514-1.573h0.22l0.245,0.774c0.067,0.213,0.126,0.404,0.168,0.589h0.004
			c0.044-0.183,0.11-0.381,0.18-0.586l0.266-0.777h0.217l-0.563,1.573H18.764z"/>
		<path fill="#6B6B6B" d="M20.54,59.998h-0.612v0.566h0.682v0.171h-0.885v-1.573h0.85v0.17h-0.647v0.497h0.612V59.998z"/>
	</g>
	<g>
		<path fill="#6B6B6B" d="M11.218,52.258c0.098-0.017,0.227-0.03,0.39-0.03c0.201,0,0.348,0.047,0.441,0.131
			c0.086,0.074,0.138,0.188,0.138,0.329c0,0.143-0.042,0.254-0.122,0.336c-0.107,0.114-0.283,0.173-0.481,0.173
			c-0.061,0-0.117-0.003-0.164-0.014v0.63h-0.203V52.258z M11.421,53.017c0.044,0.012,0.101,0.017,0.168,0.017
			c0.245,0,0.395-0.119,0.395-0.337c0-0.207-0.147-0.308-0.372-0.308c-0.088,0-0.156,0.007-0.191,0.016V53.017z"/>
		<path fill="#6B6B6B" d="M12.436,53.565c0.091,0.056,0.224,0.103,0.364,0.103c0.208,0,0.329-0.11,0.329-0.269
			c0-0.147-0.084-0.231-0.296-0.313c-0.257-0.092-0.416-0.225-0.416-0.446c0-0.245,0.203-0.428,0.509-0.428
			c0.161,0,0.278,0.038,0.348,0.077l-0.056,0.166c-0.051-0.028-0.157-0.074-0.299-0.074c-0.215,0-0.297,0.128-0.297,0.235
			c0,0.147,0.096,0.22,0.313,0.304c0.266,0.103,0.402,0.23,0.402,0.462c0,0.243-0.18,0.453-0.551,0.453
			c-0.152,0-0.317-0.045-0.401-0.101L12.436,53.565z"/>
		<path fill="#6B6B6B" d="M13.821,52.239v1.573h-0.203v-1.573H13.821z"/>
	</g>
	<g>
		<path fill="#6B6B6B" d="M16.626,53.201h0.005c0.028-0.04,0.067-0.089,0.1-0.129l0.332-0.39h0.248l-0.437,0.465l0.497,0.665h-0.25
			l-0.39-0.542l-0.105,0.117v0.425h-0.203v-1.657h0.203V53.201z"/>
		<path fill="#6B6B6B" d="M17.528,52.258c0.098-0.017,0.227-0.03,0.39-0.03c0.201,0,0.348,0.047,0.441,0.131
			c0.086,0.074,0.138,0.188,0.138,0.329c0,0.143-0.042,0.254-0.122,0.336c-0.107,0.114-0.283,0.173-0.481,0.173
			c-0.061,0-0.117-0.003-0.164-0.014v0.63h-0.203V52.258z M17.731,53.017c0.044,0.012,0.101,0.017,0.168,0.017
			c0.245,0,0.395-0.119,0.395-0.337c0-0.207-0.147-0.308-0.372-0.308c-0.088,0-0.156,0.007-0.191,0.016V53.017z"/>
		<path fill="#6B6B6B" d="M19.331,53.813l-0.016-0.143h-0.007c-0.063,0.089-0.185,0.168-0.346,0.168
			c-0.229,0-0.346-0.161-0.346-0.324c0-0.273,0.243-0.423,0.68-0.42V53.07c0-0.094-0.026-0.262-0.257-0.262
			c-0.105,0-0.215,0.033-0.294,0.084l-0.046-0.136c0.093-0.061,0.229-0.1,0.371-0.1c0.346,0,0.43,0.235,0.43,0.462v0.423
			c0,0.098,0.004,0.193,0.019,0.271H19.331z M19.301,53.236c-0.224-0.005-0.479,0.034-0.479,0.254c0,0.133,0.089,0.196,0.194,0.196
			c0.147,0,0.24-0.094,0.273-0.189c0.007-0.021,0.012-0.044,0.012-0.065V53.236z"/>
	</g>
	<g>
		<path fill="#6B6B6B" d="M24.666,54.341c0.098-0.017,0.227-0.03,0.39-0.03c0.201,0,0.348,0.047,0.441,0.131
			c0.086,0.074,0.138,0.188,0.138,0.329c0,0.143-0.042,0.254-0.122,0.336c-0.107,0.114-0.283,0.173-0.481,0.173
			c-0.061,0-0.117-0.003-0.164-0.014v0.63h-0.203V54.341z M24.869,55.1c0.044,0.012,0.101,0.017,0.168,0.017
			c0.245,0,0.395-0.119,0.395-0.337c0-0.207-0.147-0.308-0.372-0.308c-0.088,0-0.156,0.007-0.191,0.016V55.1z"/>
		<path fill="#6B6B6B" d="M25.884,55.648c0.091,0.056,0.224,0.103,0.364,0.103c0.208,0,0.329-0.11,0.329-0.269
			c0-0.147-0.084-0.231-0.296-0.313c-0.257-0.092-0.416-0.225-0.416-0.446c0-0.245,0.203-0.428,0.509-0.428
			c0.161,0,0.278,0.038,0.348,0.077l-0.056,0.166c-0.051-0.028-0.157-0.074-0.299-0.074c-0.215,0-0.297,0.128-0.297,0.235
			c0,0.147,0.096,0.22,0.313,0.304c0.266,0.103,0.402,0.23,0.402,0.462c0,0.243-0.18,0.453-0.551,0.453
			c-0.152,0-0.317-0.045-0.401-0.101L25.884,55.648z"/>
		<path fill="#6B6B6B" d="M27.269,54.322v1.573h-0.203v-1.573H27.269z"/>
	</g>
	<g>
		<path fill="#6B6B6B" d="M30.074,55.284h0.005c0.028-0.04,0.067-0.089,0.1-0.129l0.332-0.39h0.248l-0.437,0.465l0.497,0.665h-0.25
			l-0.39-0.542l-0.105,0.117v0.425h-0.203v-1.657h0.203V55.284z"/>
		<path fill="#6B6B6B" d="M30.976,54.341c0.098-0.017,0.227-0.03,0.39-0.03c0.201,0,0.348,0.047,0.441,0.131
			c0.086,0.074,0.138,0.188,0.138,0.329c0,0.143-0.042,0.254-0.122,0.336c-0.107,0.114-0.283,0.173-0.481,0.173
			c-0.061,0-0.117-0.003-0.164-0.014v0.63h-0.203V54.341z M31.179,55.1c0.044,0.012,0.101,0.017,0.168,0.017
			c0.245,0,0.395-0.119,0.395-0.337c0-0.207-0.147-0.308-0.372-0.308c-0.088,0-0.156,0.007-0.191,0.016V55.1z"/>
		<path fill="#6B6B6B" d="M32.779,55.896l-0.016-0.143h-0.007c-0.063,0.089-0.185,0.168-0.346,0.168
			c-0.229,0-0.346-0.161-0.346-0.324c0-0.273,0.243-0.423,0.68-0.42v-0.023c0-0.094-0.026-0.262-0.257-0.262
			c-0.105,0-0.215,0.033-0.294,0.084l-0.046-0.136c0.093-0.061,0.229-0.1,0.371-0.1c0.346,0,0.43,0.235,0.43,0.462v0.423
			c0,0.098,0.004,0.193,0.019,0.271H32.779z M32.749,55.319c-0.224-0.005-0.479,0.034-0.479,0.254c0,0.133,0.089,0.196,0.194,0.196
			c0.147,0,0.24-0.094,0.273-0.189c0.007-0.021,0.012-0.044,0.012-0.065V55.319z"/>
	</g>
	<g>
		<path fill="#6B6B6B" d="M27.117,21.89c-0.02-0.375-0.044-0.827-0.04-1.163h-0.012c-0.092,0.316-0.204,0.651-0.34,1.023
			l-0.476,1.307h-0.264l-0.436-1.283c-0.128-0.38-0.236-0.728-0.312-1.047h-0.008c-0.008,0.336-0.028,0.788-0.052,1.191
			l-0.072,1.155h-0.332l0.188-2.694h0.443l0.46,1.303c0.112,0.332,0.204,0.627,0.272,0.907h0.012
			c0.068-0.271,0.164-0.567,0.284-0.907l0.479-1.303h0.444l0.168,2.694h-0.34L27.117,21.89z"/>
		<path fill="#6B6B6B" d="M28.458,22.226l-0.28,0.848h-0.36l0.916-2.694h0.419l0.919,2.694h-0.372l-0.288-0.848H28.458z
			 M29.341,21.955l-0.264-0.776c-0.06-0.176-0.1-0.336-0.14-0.492h-0.008c-0.04,0.16-0.084,0.324-0.136,0.488l-0.264,0.78H29.341z"
			/>
		<path fill="#6B6B6B" d="M30.818,20.379v2.694H30.47v-2.694H30.818z"/>
		<path fill="#6B6B6B" d="M31.426,23.074v-2.694h0.38l0.864,1.363c0.2,0.315,0.355,0.6,0.483,0.875l0.008-0.004
			c-0.032-0.359-0.04-0.688-0.04-1.107v-1.127h0.328v2.694h-0.352l-0.856-1.367c-0.188-0.3-0.368-0.608-0.503-0.899l-0.012,0.004
			c0.02,0.34,0.028,0.664,0.028,1.111v1.151H31.426z"/>
	</g>
	<linearGradient id="SVGID_11_" gradientUnits="userSpaceOnUse" x1="65.625" y1="58.75" x2="65.625" y2="39.9067">
		<stop  offset="0" style="stop-color:#808080"/>
		<stop  offset="0.05" style="stop-color:#DCDBE3"/>
		<stop  offset="0.95" style="stop-color:#DCDBE3"/>
		<stop  offset="1" style="stop-color:#808080"/>
	</linearGradient>
	<path fill="url(#SVGID_11_)" d="M60.144,39.906V58.75h10.964V39.906H60.144z M65.625,57.692c-2.463,0-4.461-2.199-4.461-4.911
		s1.998-4.911,4.461-4.911s4.461,2.199,4.461,4.911S68.088,57.692,65.625,57.692z"/>
	<linearGradient id="SVGID_12_" gradientUnits="userSpaceOnUse" x1="58.0215" y1="45.3125" x2="58.0215" y2="20.375">
		<stop  offset="0" style="stop-color:#808080"/>
		<stop  offset="0.05" style="stop-color:#DCDBE3"/>
		<stop  offset="0.95" style="stop-color:#DCDBE3"/>
		<stop  offset="1" style="stop-color:#808080"/>
	</linearGradient>
	<rect x="56.917" y="20.375" fill="url(#SVGID_12_)" width="2.208" height="24.938"/>
	<linearGradient id="SVGID_13_" gradientUnits="userSpaceOnUse" x1="55.8125" y1="36.8125" x2="55.8125" y2="20.375">
		<stop  offset="0" style="stop-color:#808080"/>
		<stop  offset="0.05" style="stop-color:#DCDBE3"/>
		<stop  offset="0.95" style="stop-color:#DCDBE3"/>
		<stop  offset="1" style="stop-color:#808080"/>
	</linearGradient>
	<rect x="54.709" y="20.375" fill="url(#SVGID_13_)" width="2.208" height="16.438"/>
	<path fill="#766462" d="M72.125,51.375c0,0.553-0.447,1-1,1h-11c-0.553,0-1-0.447-1-1V15.169c0-0.552,0.447-1,1-1h11
		c0.553,0,1,0.448,1,1V51.375z"/>
	<rect x="59.125" y="27.063" fill="#604D46" width="13" height="13.063"/>
	<rect x="60.809" y="28.433" fill="#766462" width="9.632" height="9.679"/>
	<g>
		<circle fill="#D4BE57" stroke="#4F4B37" stroke-width="0.4" stroke-miterlimit="10" cx="48.35" cy="14.232" r="3.378"/>
		<line fill="none" stroke="#FFFFA7" stroke-width="1.2" stroke-miterlimit="10" x1="46.154" y1="16.258" x2="50.33" y2="12.083"/>
	</g>
	<g>
		<circle fill="#D4BE57" stroke="#4F4B37" stroke-width="0.4" stroke-miterlimit="10" cx="65.625" cy="33.272" r="3.378"/>
		<line fill="none" stroke="#FFFFA7" stroke-width="1.2" stroke-miterlimit="10" x1="63.43" y1="35.297" x2="67.605" y2="31.122"/>
	</g>
	<linearGradient id="SVGID_14_" gradientUnits="userSpaceOnUse" x1="65.625" y1="65.667" x2="65.625" y2="58.75">
		<stop  offset="0" style="stop-color:#4D4D4D"/>
		<stop  offset="0.05" style="stop-color:#808080"/>
		<stop  offset="0.95" style="stop-color:#808080"/>
		<stop  offset="1" style="stop-color:#808080"/>
	</linearGradient>
	<rect x="60.144" y="58.75" fill="url(#SVGID_14_)" width="10.964" height="6.917"/>
	<linearGradient id="SVGID_15_" gradientUnits="userSpaceOnUse" x1="65.5176" y1="63.8125" x2="65.5176" y2="62.5625">
		<stop  offset="0" style="stop-color:#666666"/>
		<stop  offset="0.5" style="stop-color:#DCDBE3"/>
		<stop  offset="1" style="stop-color:#666666"/>
	</linearGradient>
	<rect x="54.473" y="62.563" fill="url(#SVGID_15_)" width="22.09" height="1.25"/>
	<linearGradient id="SVGID_16_" gradientUnits="userSpaceOnUse" x1="58.0215" y1="68.8545" x2="58.0215" y2="39.9067">
		<stop  offset="0" style="stop-color:#808080"/>
		<stop  offset="0.05" style="stop-color:#DCDBE3"/>
		<stop  offset="0.95" style="stop-color:#DCDBE3"/>
		<stop  offset="1" style="stop-color:#808080"/>
	</linearGradient>
	<rect x="56.917" y="39.906" fill="url(#SVGID_16_)" width="2.208" height="28.948"/>
	<linearGradient id="SVGID_17_" gradientUnits="userSpaceOnUse" x1="59.6768" y1="67.7012" x2="59.6768" y2="50.5005">
		<stop  offset="0" style="stop-color:#4D4D4D"/>
		<stop  offset="0.05" style="stop-color:#999999"/>
		<stop  offset="0.95" style="stop-color:#999999"/>
		<stop  offset="1" style="stop-color:#4D4D4D"/>
	</linearGradient>
	<rect x="59.125" y="50.5" fill="url(#SVGID_17_)" width="1.104" height="17.201"/>
	<linearGradient id="SVGID_18_" gradientUnits="userSpaceOnUse" x1="71.6592" y1="67.7012" x2="71.6592" y2="50.5005">
		<stop  offset="0" style="stop-color:#4D4D4D"/>
		<stop  offset="0.05" style="stop-color:#999999"/>
		<stop  offset="0.95" style="stop-color:#999999"/>
		<stop  offset="1" style="stop-color:#4D4D4D"/>
	</linearGradient>
	<rect x="71.107" y="50.5" fill="url(#SVGID_18_)" width="1.104" height="17.201"/>
	<linearGradient id="SVGID_19_" gradientUnits="userSpaceOnUse" x1="73.2285" y1="68.8545" x2="73.2285" y2="39.9067">
		<stop  offset="0" style="stop-color:#808080"/>
		<stop  offset="0.05" style="stop-color:#DCDBE3"/>
		<stop  offset="0.95" style="stop-color:#DCDBE3"/>
		<stop  offset="1" style="stop-color:#808080"/>
	</linearGradient>
	<rect x="72.125" y="39.906" fill="url(#SVGID_19_)" width="2.208" height="28.948"/>
	<linearGradient id="SVGID_20_" gradientUnits="userSpaceOnUse" x1="66.6504" y1="50.8618" x2="66.6504" y2="42.082">
		<stop  offset="0" style="stop-color:#808080"/>
		<stop  offset="0.5" style="stop-color:#DCDBE3"/>
		<stop  offset="1" style="stop-color:#808080"/>
	</linearGradient>
	<polygon fill="url(#SVGID_20_)" points="71.116,42.082 72.174,45.318 70.415,46.108 68.769,48.111 63.812,50.862 67.497,46.298 
		66.588,44.332 61.127,44.376 66.518,42.236 69.36,42.643 	"/>
	<linearGradient id="SVGID_21_" gradientUnits="userSpaceOnUse" x1="63.8008" y1="24.4097" x2="69.6819" y2="18.5286">
		<stop  offset="0" style="stop-color:#808080"/>
		<stop  offset="0.5" style="stop-color:#DCDBE3"/>
		<stop  offset="1" style="stop-color:#808080"/>
	</linearGradient>
	<polygon fill="url(#SVGID_21_)" points="72.805,22.076 70.973,24.945 69.247,24.085 66.654,24.082 61.384,21.992 67.25,21.949 
		68.194,20 64.698,15.805 69.771,18.617 71.258,21.074 	"/>
	<g>
		<circle fill="#D4BE57" stroke="#4F4B37" stroke-width="0.4" stroke-miterlimit="10" cx="65.625" cy="46.541" r="3.378"/>
		<line fill="none" stroke="#FFFFA7" stroke-width="1.2" stroke-miterlimit="10" x1="63.43" y1="48.566" x2="67.605" y2="44.391"/>
	</g>
	
		<linearGradient id="SVGID_22_" gradientUnits="userSpaceOnUse" x1="69.7939" y1="38.9058" x2="74.192" y2="43.3038" gradientTransform="matrix(0.9132 0.4075 -0.4075 0.9132 23.9365 -23.9977)">
		<stop  offset="0" style="stop-color:#28419A"/>
		<stop  offset="0.5" style="stop-color:#9BBAFA"/>
		<stop  offset="1" style="stop-color:#28419A"/>
	</linearGradient>
	<path fill="url(#SVGID_22_)" d="M75.971,39.763l2.239,3.98l-3.895,1.365l-1.68,1.053l-1.429,0.707c0,0-2.059-0.458-2.642-2.523
		s0.143-3.18,0.143-3.18l2.187-0.047L75.971,39.763z"/>
	<g>
		<circle fill="#D4BE57" stroke="#4F4B37" stroke-width="0.4" stroke-miterlimit="10" cx="65.625" cy="20.375" r="3.378"/>
		<line fill="none" stroke="#FFFFA7" stroke-width="1.2" stroke-miterlimit="10" x1="63.43" y1="22.4" x2="67.605" y2="18.225"/>
	</g>
	<linearGradient id="SVGID_23_" gradientUnits="userSpaceOnUse" x1="72.499" y1="27.0498" x2="75.4845" y2="21.8788">
		<stop  offset="0" style="stop-color:#28419A"/>
		<stop  offset="0.5" style="stop-color:#9BBAFA"/>
		<stop  offset="1" style="stop-color:#28419A"/>
	</linearGradient>
	<path fill="url(#SVGID_23_)" d="M71.503,19.99c0,0,2.916,1.208,3.583,1.667s0.583,0.667,0.583,0.667l3.125,2
		c0,0,0.084,1.25-1.041,2.708s-1.709,1.958-1.709,1.958l-3.208-1.75l-3.833-2.208c0,0,0.25-1.708,1-2.833S71.503,19.99,71.503,19.99
		z"/>
</g>
<g id="Layer_5">
	<rect x="5.854" y="70.5" fill="#C0CAE5" width="87.98" height="7.984"/>
	<g>
		<path fill="#D78062" d="M47.581,72.851c0.229-0.031,0.528-0.059,0.91-0.059c0.468,0,0.812,0.091,1.029,0.254
			c0.202,0.145,0.322,0.367,0.322,0.639c0,0.276-0.098,0.494-0.283,0.652c-0.251,0.223-0.659,0.336-1.123,0.336
			c-0.142,0-0.272-0.005-0.381-0.027v1.224h-0.474V72.851z M48.054,74.324c0.104,0.022,0.234,0.031,0.393,0.031
			c0.572,0,0.92-0.231,0.92-0.652c0-0.403-0.343-0.599-0.866-0.599c-0.207,0-0.365,0.014-0.447,0.032V74.324z"/>
		<path fill="#D78062" d="M50.478,72.855c0.24-0.041,0.583-0.063,0.909-0.063c0.507,0,0.834,0.077,1.063,0.249
			c0.186,0.136,0.289,0.345,0.289,0.58c0,0.403-0.306,0.671-0.692,0.779v0.014c0.284,0.082,0.452,0.3,0.54,0.616
			c0.119,0.427,0.207,0.721,0.283,0.839h-0.49c-0.061-0.086-0.142-0.349-0.245-0.729c-0.109-0.422-0.306-0.58-0.735-0.594h-0.447
			v1.323h-0.474V72.855z M50.951,74.247h0.485c0.506,0,0.828-0.231,0.828-0.58c0-0.395-0.344-0.566-0.845-0.571
			c-0.229,0-0.393,0.018-0.469,0.036V74.247z"/>
		<path fill="#D78062" d="M55.309,74.438h-1.428v1.101h1.591v0.331h-2.064v-3.055h1.982v0.331h-1.509v0.965h1.428V74.438z"/>
		<path fill="#D78062" d="M56.021,75.389c0.213,0.108,0.523,0.199,0.85,0.199c0.485,0,0.769-0.213,0.769-0.521
			c0-0.286-0.196-0.449-0.692-0.607c-0.599-0.177-0.97-0.436-0.97-0.866c0-0.476,0.475-0.829,1.188-0.829
			c0.376,0,0.648,0.072,0.813,0.149l-0.131,0.322c-0.12-0.055-0.365-0.146-0.697-0.146c-0.502,0-0.692,0.25-0.692,0.458
			c0,0.285,0.224,0.426,0.73,0.589c0.621,0.199,0.937,0.449,0.937,0.897c0,0.472-0.419,0.879-1.285,0.879
			c-0.354,0-0.741-0.086-0.938-0.194L56.021,75.389z"/>
		<path fill="#D78062" d="M58.706,75.389c0.213,0.108,0.522,0.199,0.85,0.199c0.485,0,0.769-0.213,0.769-0.521
			c0-0.286-0.196-0.449-0.692-0.607c-0.599-0.177-0.97-0.436-0.97-0.866c0-0.476,0.475-0.829,1.188-0.829
			c0.376,0,0.648,0.072,0.813,0.149l-0.131,0.322c-0.12-0.055-0.365-0.146-0.697-0.146c-0.502,0-0.692,0.25-0.692,0.458
			c0,0.285,0.224,0.426,0.73,0.589c0.621,0.199,0.937,0.449,0.937,0.897c0,0.472-0.419,0.879-1.285,0.879
			c-0.354,0-0.741-0.086-0.938-0.194L58.706,75.389z"/>
		<path fill="#D78062" d="M61.93,72.814v1.809c0,0.685,0.365,0.975,0.855,0.975c0.545,0,0.894-0.3,0.894-0.975v-1.809h0.479v1.781
			c0,0.938-0.594,1.323-1.39,1.323c-0.752,0-1.318-0.358-1.318-1.305v-1.8H61.93z"/>
		<path fill="#D78062" d="M64.979,72.855c0.239-0.041,0.583-0.063,0.909-0.063c0.507,0,0.834,0.077,1.063,0.249
			c0.186,0.136,0.289,0.345,0.289,0.58c0,0.403-0.306,0.671-0.692,0.779v0.014c0.284,0.082,0.452,0.3,0.54,0.616
			c0.119,0.427,0.207,0.721,0.283,0.839h-0.49c-0.061-0.086-0.142-0.349-0.245-0.729c-0.109-0.422-0.306-0.58-0.735-0.594h-0.447
			v1.323h-0.474V72.855z M65.453,74.247h0.485c0.506,0,0.828-0.231,0.828-0.58c0-0.395-0.344-0.566-0.845-0.571
			c-0.229,0-0.393,0.018-0.469,0.036V74.247z"/>
		<path fill="#D78062" d="M69.811,74.438h-1.428v1.101h1.591v0.331h-2.064v-3.055h1.982v0.331h-1.509v0.965h1.428V74.438z"/>
		<path fill="#D78062" d="M71.373,73.15h-1.117v-0.336h2.719v0.336h-1.122v2.719h-0.479V73.15z"/>
		<path fill="#D78062" d="M73.382,72.855c0.239-0.041,0.583-0.063,0.909-0.063c0.507,0,0.834,0.077,1.063,0.249
			c0.186,0.136,0.289,0.345,0.289,0.58c0,0.403-0.306,0.671-0.692,0.779v0.014c0.284,0.082,0.452,0.3,0.54,0.616
			c0.119,0.427,0.207,0.721,0.283,0.839h-0.49c-0.061-0.086-0.142-0.349-0.245-0.729c-0.109-0.422-0.306-0.58-0.735-0.594h-0.447
			v1.323h-0.474V72.855z M73.855,74.247h0.485c0.506,0,0.828-0.231,0.828-0.58c0-0.395-0.344-0.566-0.845-0.571
			c-0.229,0-0.393,0.018-0.469,0.036V74.247z"/>
		<path fill="#D78062" d="M79.466,74.311c0,1.051-0.769,1.608-1.705,1.608c-0.97,0-1.65-0.625-1.65-1.55
			c0-0.97,0.725-1.604,1.705-1.604C78.817,72.765,79.466,73.404,79.466,74.311z M76.617,74.36c0,0.652,0.425,1.237,1.171,1.237
			c0.752,0,1.177-0.576,1.177-1.27c0-0.607-0.382-1.241-1.172-1.241C77.009,73.087,76.617,73.689,76.617,74.36z"/>
		<path fill="#D78062" d="M80.063,72.651h0.479v3.218h-0.479V72.651z"/>
	</g>
	<path fill="#787684" d="M17.042,72.75c0,0.645-0.522,1.167-1.167,1.167l0,0c-0.644,0-1.167-0.522-1.167-1.167v-9.42
		c0-0.644,0.522-1.166,1.167-1.166l0,0c0.644,0,1.167,0.522,1.167,1.166V72.75z"/>
	<linearGradient id="SVGID_24_" gradientUnits="userSpaceOnUse" x1="15.1025" y1="67.2676" x2="16.6486" y2="68.8137">
		<stop  offset="0" style="stop-color:#FFFFFF"/>
		<stop  offset="0.3448" style="stop-color:#BDBDBD"/>
		<stop  offset="1" style="stop-color:#424242"/>
	</linearGradient>
	<circle fill="url(#SVGID_24_)" cx="15.875" cy="68.04" r="1.094"/>
	<rect x="5.854" y="70.5" fill="#D78062" width="31.146" height="7.984"/>
</g>
<g id="Layer_3">
	
		<linearGradient id="SVGID_25_" gradientUnits="userSpaceOnUse" x1="71.7275" y1="58.7842" x2="93.2295" y2="58.7842" gradientTransform="matrix(0.7479 -0.7479 0.8115 0.8115 -30.7472 34.9971)">
		<stop  offset="0" style="stop-color:#FFFFFF;stop-opacity:0.4"/>
		<stop  offset="1" style="stop-color:#FFFFFF;stop-opacity:0"/>
	</linearGradient>
	<polygon fill="url(#SVGID_25_)" points="98.621,24.913 98.43,56.883 42.774,1.227 74.979,1.271 	"/>
	
		<linearGradient id="SVGID_26_" gradientUnits="userSpaceOnUse" x1="28.7617" y1="36.7939" x2="50.2612" y2="36.7939" gradientTransform="matrix(0.3463 -0.3463 1.1162 1.1162 -5.6109 14.0124)">
		<stop  offset="0" style="stop-color:#FFFFFF;stop-opacity:0.4"/>
		<stop  offset="1" style="stop-color:#FFFFFF;stop-opacity:0"/>
	</linearGradient>
	<polygon fill="url(#SVGID_26_)" points="96.76,81.572 81.96,81.663 1.524,1.227 16.414,1.227 	"/>
	
		<linearGradient id="SVGID_27_" gradientUnits="userSpaceOnUse" x1="-0.9688" y1="20.25" x2="20.5303" y2="20.25" gradientTransform="matrix(0.4873 -0.4873 0.803 0.803 11.5892 39.1097)">
		<stop  offset="0" style="stop-color:#FFFFFF;stop-opacity:0.4"/>
		<stop  offset="1" style="stop-color:#FFFFFF;stop-opacity:0"/>
	</linearGradient>
	<polygon fill="url(#SVGID_27_)" points="74.151,81.663 53.198,81.663 1.411,29.875 1.25,9.375 	"/>
	
		<linearGradient id="SVGID_28_" gradientUnits="userSpaceOnUse" x1="-42.1045" y1="20.1167" x2="-19.6748" y2="20.1167" gradientTransform="matrix(0.2905 -0.2905 0.803 0.803 3.7217 46.9777)">
		<stop  offset="0" style="stop-color:#FFFFFF;stop-opacity:0.4"/>
		<stop  offset="1" style="stop-color:#FFFFFF;stop-opacity:0"/>
	</linearGradient>
	<polygon fill="url(#SVGID_28_)" points="26.977,81.663 14.021,81.739 1.053,68.771 1.178,56.196 	"/>
	<g>
	</g>
	<g>
	</g>
	<g>
	</g>
	<g>
	</g>
	<g>
	</g>
	<g>
	</g>
	<g>
	</g>
	<g>
	</g>
	<g>
	</g>
	<g>
	</g>
	<g>
	</g>
	<g>
	</g>
	<g>
	</g>
	<g>
	</g>
	<g>
	</g>
</g>
</svg>
