<?xml version="1.0" encoding="iso-8859-1"?>
<!-- Generator: Adobe Illustrator 16.0.0, SVG Export Plug-In . SVG Version: 6.00 Build 0)  -->
<!DOCTYPE svg PUBLIC "-//W3C//DTD SVG 1.1//EN" "http://www.w3.org/Graphics/SVG/1.1/DTD/svg11.dtd">
<svg version="1.1" xmlns="http://www.w3.org/2000/svg" xmlns:xlink="http://www.w3.org/1999/xlink" x="0px" y="0px" width="45px"
	 height="100px" viewBox="0 0 45 100" style="enable-background:new 0 0 45 100;" xml:space="preserve">
<g id="Layer_3">
	<rect x="1" y="1.938" style="fill:#E3EDEF;" width="43" height="96.125"/>
	<linearGradient id="SVGID_1_" gradientUnits="userSpaceOnUse" x1="22.5" y1="1.9375" x2="22.5" y2="3.75">
		<stop  offset="0" style="stop-color:#DEE2E5"/>
		<stop  offset="1" style="stop-color:#999999"/>
	</linearGradient>
	<polygon style="fill:url(#SVGID_1_);" points="42.188,3.75 2.813,3.75 1,1.938 44,1.938 	"/>
	<linearGradient id="SVGID_2_" gradientUnits="userSpaceOnUse" x1="22.5" y1="96.25" x2="22.5" y2="98.0625">
		<stop  offset="0" style="stop-color:#DEE2E5"/>
		<stop  offset="1" style="stop-color:#999999"/>
	</linearGradient>
	<polygon style="fill:url(#SVGID_2_);" points="44,98.063 1,98.063 2.813,96.25 42.188,96.25 	"/>
	<linearGradient id="SVGID_3_" gradientUnits="userSpaceOnUse" x1="42.1875" y1="50" x2="44" y2="50">
		<stop  offset="0" style="stop-color:#DEE2E5"/>
		<stop  offset="1" style="stop-color:#999999"/>
	</linearGradient>
	<polygon style="fill:url(#SVGID_3_);" points="42.188,96.25 42.188,3.75 44,1.938 44,98.063 	"/>
	<linearGradient id="SVGID_4_" gradientUnits="userSpaceOnUse" x1="1" y1="50" x2="2.8125" y2="50">
		<stop  offset="0" style="stop-color:#DEE2E5"/>
		<stop  offset="1" style="stop-color:#999999"/>
	</linearGradient>
	<polygon style="fill:url(#SVGID_4_);" points="1,98.063 1,1.938 2.813,3.75 2.813,96.25 	"/>
	<g>
		<path style="fill:#DF331D;" d="M5.852,13.964l-0.957-3.199h0.586l0.677,2.367l0.655-2.367h0.573l-0.958,3.199H5.852z"/>
		<path style="fill:#DF331D;" d="M7.553,12.384c0-0.326,0.041-0.6,0.122-0.821c0.061-0.163,0.144-0.309,0.249-0.438
			c0.105-0.129,0.221-0.225,0.346-0.288c0.167-0.084,0.359-0.126,0.577-0.126c0.394,0,0.709,0.146,0.946,0.438
			c0.236,0.292,0.355,0.699,0.355,1.22c0,0.517-0.118,0.92-0.353,1.212c-0.235,0.292-0.549,0.438-0.941,0.438
			c-0.398,0-0.714-0.145-0.949-0.436C7.67,13.293,7.553,12.893,7.553,12.384z M8.11,12.362c0,0.362,0.07,0.637,0.209,0.824
			c0.14,0.187,0.318,0.28,0.533,0.28s0.392-0.093,0.53-0.278c0.138-0.185,0.207-0.463,0.207-0.834c0-0.367-0.067-0.64-0.202-0.82
			c-0.135-0.18-0.313-0.271-0.536-0.271s-0.402,0.091-0.539,0.274S8.11,11.994,8.11,12.362z"/>
		<path style="fill:#DF331D;" d="M10.584,13.964v-3.172h0.54v2.633h1.343v0.539H10.584z"/>
		<path style="fill:#DF331D;" d="M13.177,13.964v-2.658h-0.794v-0.541h2.126v0.541h-0.792v2.658H13.177z"/>
		<path style="fill:#DF331D;" d="M16.994,13.964h-0.587l-0.234-0.727h-1.069l-0.221,0.727h-0.573l1.042-3.199h0.571L16.994,13.964z
			 M15.999,12.698l-0.369-1.187l-0.361,1.187H15.999z"/>
		<path style="fill:#DF331D;" d="M18.525,12.788v-0.539h1.165v1.274c-0.113,0.131-0.277,0.247-0.492,0.346s-0.432,0.149-0.652,0.149
			c-0.28,0-0.524-0.07-0.732-0.211c-0.208-0.14-0.364-0.341-0.469-0.602c-0.105-0.261-0.157-0.545-0.157-0.852
			c0-0.333,0.059-0.629,0.175-0.888c0.117-0.259,0.288-0.458,0.513-0.596c0.172-0.106,0.385-0.159,0.641-0.159
			c0.333,0,0.592,0.083,0.778,0.25c0.187,0.167,0.307,0.396,0.361,0.69l-0.537,0.12c-0.038-0.157-0.109-0.281-0.213-0.372
			s-0.234-0.136-0.39-0.136c-0.236,0-0.423,0.089-0.563,0.268c-0.139,0.179-0.209,0.445-0.209,0.796c0,0.38,0.071,0.665,0.212,0.854
			s0.326,0.285,0.555,0.285c0.113,0,0.227-0.026,0.34-0.08s0.211-0.118,0.293-0.193v-0.406H18.525z"/>
		<path style="fill:#DF331D;" d="M20.188,13.964v-3.199h1.984v0.541h-1.444v0.709h1.343v0.539h-1.343v0.871h1.495v0.539H20.188z"/>
		<path style="fill:#DF331D;" d="M26.086,13.573l-0.311,0.474c-0.152-0.089-0.298-0.211-0.438-0.367
			c-0.108,0.116-0.223,0.202-0.345,0.257c-0.122,0.056-0.267,0.083-0.435,0.083c-0.333,0-0.584-0.112-0.752-0.336
			c-0.13-0.173-0.195-0.373-0.195-0.598c0-0.205,0.051-0.39,0.153-0.553c0.103-0.164,0.255-0.306,0.458-0.427
			c-0.091-0.129-0.16-0.252-0.206-0.37s-0.069-0.228-0.069-0.333c0-0.193,0.065-0.357,0.194-0.492
			c0.13-0.135,0.314-0.202,0.554-0.202c0.231,0,0.412,0.071,0.542,0.212c0.13,0.141,0.195,0.313,0.195,0.517
			c0,0.129-0.032,0.252-0.097,0.369c-0.064,0.116-0.194,0.248-0.39,0.395l0.372,0.587c0.044-0.093,0.082-0.215,0.113-0.364
			l0.463,0.126c-0.046,0.196-0.086,0.34-0.121,0.431c-0.034,0.091-0.07,0.167-0.109,0.228c0.057,0.064,0.131,0.134,0.222,0.211
			C25.977,13.498,26.043,13.548,26.086,13.573z M24.489,12.5c-0.118,0.071-0.206,0.157-0.265,0.257
			c-0.058,0.1-0.087,0.203-0.087,0.308c0,0.132,0.036,0.24,0.108,0.324c0.072,0.083,0.169,0.125,0.291,0.125
			c0.081,0,0.158-0.019,0.232-0.057c0.074-0.038,0.155-0.1,0.243-0.188L24.489,12.5z M24.689,11.834l0.139-0.127
			c0.103-0.094,0.153-0.188,0.153-0.281c0-0.079-0.024-0.146-0.074-0.201s-0.116-0.083-0.2-0.083c-0.082,0-0.146,0.024-0.192,0.073
			c-0.046,0.049-0.069,0.105-0.069,0.169c0,0.076,0.039,0.167,0.117,0.275L24.689,11.834z"/>
		<path style="fill:#DF331D;" d="M27.457,13.964v-3.199h0.867c0.329,0,0.543,0.016,0.643,0.048c0.153,0.048,0.282,0.152,0.385,0.313
			c0.103,0.161,0.155,0.369,0.155,0.623c0,0.196-0.03,0.362-0.089,0.496s-0.135,0.239-0.227,0.315
			c-0.092,0.077-0.186,0.127-0.28,0.152c-0.129,0.031-0.316,0.046-0.56,0.046h-0.353v1.207H27.457z M27.997,11.306v0.908h0.296
			c0.213,0,0.355-0.017,0.427-0.05c0.072-0.033,0.128-0.085,0.169-0.157c0.041-0.071,0.061-0.154,0.061-0.249
			c0-0.116-0.028-0.212-0.085-0.288c-0.058-0.076-0.13-0.123-0.217-0.142c-0.064-0.015-0.194-0.022-0.389-0.022H27.997z"/>
		<path style="fill:#DF331D;" d="M29.952,13.964v-3.199h0.54v1.259h1.059v-1.259h0.54v3.199h-0.54v-1.398h-1.059v1.398H29.952z"/>
		<path style="fill:#DF331D;" d="M35.061,13.964h-0.587l-0.234-0.727H33.17l-0.221,0.727h-0.573l1.042-3.199h0.571L35.061,13.964z
			 M34.066,12.698l-0.369-1.187l-0.361,1.187H34.066z"/>
		<path style="fill:#DF331D;" d="M35.211,12.923l0.525-0.061c0.032,0.211,0.096,0.366,0.192,0.465
			c0.097,0.099,0.228,0.148,0.392,0.148c0.174,0,0.305-0.044,0.394-0.132c0.088-0.088,0.132-0.191,0.132-0.309
			c0-0.076-0.019-0.14-0.056-0.193c-0.038-0.053-0.102-0.099-0.195-0.139c-0.063-0.026-0.207-0.073-0.432-0.14
			c-0.29-0.086-0.493-0.191-0.61-0.316c-0.164-0.176-0.246-0.391-0.246-0.644c0-0.163,0.039-0.315,0.116-0.457
			c0.077-0.142,0.188-0.25,0.334-0.324s0.321-0.111,0.526-0.111c0.336,0,0.589,0.088,0.758,0.264
			c0.17,0.176,0.259,0.411,0.268,0.705l-0.54,0.028c-0.023-0.164-0.073-0.282-0.149-0.354c-0.076-0.072-0.19-0.108-0.342-0.108
			c-0.157,0-0.28,0.039-0.369,0.116c-0.057,0.049-0.086,0.116-0.086,0.199c0,0.075,0.027,0.14,0.081,0.194
			c0.068,0.068,0.233,0.14,0.497,0.214c0.263,0.074,0.457,0.151,0.583,0.23c0.126,0.079,0.224,0.188,0.295,0.325
			c0.071,0.138,0.107,0.308,0.107,0.51c0,0.183-0.042,0.355-0.128,0.515c-0.085,0.16-0.206,0.279-0.361,0.357
			s-0.35,0.117-0.582,0.117c-0.338,0-0.598-0.093-0.779-0.28S35.246,13.281,35.211,12.923z"/>
		<path style="fill:#DF331D;" d="M37.841,13.964v-3.199h1.984v0.541h-1.444v0.709h1.343v0.539h-1.343v0.871h1.495v0.539H37.841z"/>
		<path style="fill:#DF331D;" d="M3.853,19.326v-3.199h0.867c0.329,0,0.543,0.016,0.643,0.048c0.153,0.048,0.282,0.152,0.385,0.313
			c0.103,0.161,0.155,0.369,0.155,0.623c0,0.196-0.03,0.362-0.089,0.496s-0.135,0.239-0.227,0.315
			c-0.092,0.077-0.186,0.127-0.28,0.152c-0.129,0.031-0.316,0.046-0.56,0.046H4.393v1.207H3.853z M4.393,16.668v0.908h0.296
			c0.213,0,0.355-0.017,0.427-0.05c0.072-0.033,0.128-0.085,0.169-0.157c0.041-0.071,0.061-0.154,0.061-0.249
			c0-0.116-0.028-0.212-0.085-0.288c-0.058-0.076-0.13-0.123-0.217-0.142c-0.064-0.015-0.194-0.022-0.389-0.022H4.393z"/>
		<path style="fill:#DF331D;" d="M6.348,19.326v-3.199h1.137c0.286,0,0.494,0.029,0.624,0.086c0.129,0.058,0.233,0.16,0.311,0.307
			c0.078,0.147,0.117,0.315,0.117,0.504c0,0.24-0.059,0.438-0.177,0.594c-0.118,0.157-0.295,0.255-0.529,0.296
			c0.117,0.082,0.213,0.171,0.289,0.268c0.076,0.098,0.179,0.271,0.308,0.52l0.327,0.624H8.107L7.716,18.63
			c-0.139-0.249-0.234-0.405-0.285-0.47c-0.051-0.064-0.105-0.109-0.163-0.133s-0.148-0.036-0.272-0.036H6.888v1.335H6.348z
			 M6.888,17.48h0.4c0.259,0,0.421-0.013,0.485-0.04s0.115-0.071,0.151-0.135s0.055-0.144,0.055-0.24
			c0-0.107-0.024-0.194-0.072-0.261c-0.048-0.066-0.116-0.108-0.203-0.125c-0.044-0.007-0.175-0.011-0.395-0.011H6.888V17.48z"/>
		<path style="fill:#DF331D;" d="M8.936,17.747c0-0.326,0.041-0.6,0.122-0.821c0.061-0.163,0.144-0.309,0.249-0.438
			c0.105-0.129,0.221-0.225,0.346-0.288c0.167-0.084,0.359-0.126,0.577-0.126c0.394,0,0.709,0.146,0.946,0.438
			c0.236,0.292,0.355,0.699,0.355,1.22c0,0.517-0.118,0.92-0.353,1.212c-0.235,0.292-0.549,0.438-0.941,0.438
			c-0.398,0-0.714-0.145-0.949-0.436C9.053,18.655,8.936,18.255,8.936,17.747z M9.492,17.725c0,0.362,0.07,0.637,0.209,0.824
			c0.14,0.187,0.318,0.28,0.533,0.28s0.392-0.093,0.53-0.278c0.138-0.185,0.207-0.463,0.207-0.834c0-0.367-0.067-0.64-0.202-0.82
			c-0.135-0.18-0.313-0.271-0.536-0.271s-0.402,0.091-0.539,0.274S9.492,17.356,9.492,17.725z"/>
		<path style="fill:#DF331D;" d="M12.554,19.326v-2.658H11.76v-0.541h2.126v0.541h-0.792v2.658H12.554z"/>
		<path style="fill:#DF331D;" d="M14.235,19.326v-3.199h1.984v0.541h-1.444v0.709h1.343v0.539h-1.343v0.871h1.495v0.539H14.235z"/>
		<path style="fill:#DF331D;" d="M18.44,18.15l0.524,0.199c-0.081,0.349-0.214,0.608-0.401,0.778
			c-0.187,0.169-0.424,0.254-0.711,0.254c-0.355,0-0.647-0.145-0.876-0.436c-0.229-0.29-0.343-0.687-0.343-1.19
			c0-0.533,0.115-0.946,0.345-1.241s0.532-0.442,0.907-0.442c0.327,0,0.593,0.116,0.797,0.347c0.122,0.137,0.213,0.333,0.274,0.589
			l-0.535,0.153c-0.031-0.166-0.098-0.297-0.198-0.393c-0.101-0.096-0.223-0.144-0.366-0.144c-0.199,0-0.359,0.085-0.483,0.255
			c-0.124,0.17-0.185,0.446-0.185,0.827c0,0.404,0.061,0.692,0.182,0.864c0.122,0.171,0.28,0.257,0.475,0.257
			c0.144,0,0.267-0.055,0.371-0.164S18.395,18.384,18.44,18.15z"/>
		<path style="fill:#DF331D;" d="M20.029,19.326v-2.658h-0.794v-0.541h2.126v0.541H20.57v2.658H20.029z"/>
		<path style="fill:#DF331D;" d="M21.694,19.326v-3.199h0.541v3.199H21.694z"/>
		<path style="fill:#DF331D;" d="M22.639,17.747c0-0.326,0.041-0.6,0.122-0.821c0.061-0.163,0.144-0.309,0.249-0.438
			c0.105-0.129,0.221-0.225,0.346-0.288c0.167-0.084,0.359-0.126,0.577-0.126c0.394,0,0.709,0.146,0.946,0.438
			c0.236,0.292,0.355,0.699,0.355,1.22c0,0.517-0.118,0.92-0.353,1.212c-0.235,0.292-0.549,0.438-0.941,0.438
			c-0.398,0-0.714-0.145-0.949-0.436C22.756,18.655,22.639,18.255,22.639,17.747z M23.196,17.725c0,0.362,0.07,0.637,0.209,0.824
			c0.14,0.187,0.318,0.28,0.533,0.28s0.392-0.093,0.53-0.278c0.138-0.185,0.207-0.463,0.207-0.834c0-0.367-0.067-0.64-0.202-0.82
			c-0.135-0.18-0.313-0.271-0.536-0.271s-0.402,0.091-0.539,0.274S23.196,17.356,23.196,17.725z"/>
		<path style="fill:#DF331D;" d="M25.661,19.326v-3.199h0.526l1.095,2.136v-2.136h0.502v3.199h-0.542l-1.079-2.086v2.086H25.661z"/>
		<path style="fill:#DF331D;" d="M29.396,19.326v-3.199h1.137c0.286,0,0.494,0.029,0.624,0.086c0.129,0.058,0.233,0.16,0.311,0.307
			c0.078,0.147,0.117,0.315,0.117,0.504c0,0.24-0.059,0.438-0.177,0.594c-0.118,0.157-0.295,0.255-0.529,0.296
			c0.117,0.082,0.213,0.171,0.289,0.268c0.076,0.098,0.179,0.271,0.308,0.52l0.327,0.624h-0.646l-0.391-0.696
			c-0.139-0.249-0.234-0.405-0.285-0.47c-0.051-0.064-0.105-0.109-0.163-0.133s-0.148-0.036-0.272-0.036h-0.109v1.335H29.396z
			 M29.936,17.48h0.4c0.259,0,0.421-0.013,0.485-0.04s0.115-0.071,0.151-0.135s0.055-0.144,0.055-0.24
			c0-0.107-0.024-0.194-0.072-0.261c-0.048-0.066-0.116-0.108-0.203-0.125c-0.044-0.007-0.175-0.011-0.395-0.011h-0.421V17.48z"/>
		<path style="fill:#DF331D;" d="M32.093,19.326v-3.199h1.984v0.541h-1.444v0.709h1.343v0.539h-1.343v0.871h1.495v0.539H32.093z"/>
		<path style="fill:#DF331D;" d="M34.601,19.326v-3.172h0.54v2.633h1.343v0.539H34.601z"/>
		<path style="fill:#DF331D;" d="M39.281,19.326h-0.587L38.46,18.6h-1.069l-0.221,0.727h-0.573l1.042-3.199h0.571L39.281,19.326z
			 M38.287,18.061l-0.369-1.187l-0.361,1.187H38.287z"/>
		<path style="fill:#DF331D;" d="M39.928,19.326V17.98l-0.98-1.853h0.633l0.629,1.266l0.617-1.266h0.622l-0.983,1.857v1.342H39.928z
			"/>
	</g>
</g>
<g id="Layer_4">
	<path style="fill:#DF331D;" d="M22.406,29.842c-2.254,0-4.3,0.873-5.836,2.291l5.836,6.328l-4.935,7.059
		c1.398,0.979,3.098,1.559,4.935,1.559c4.76,0,8.618-3.858,8.618-8.618C31.024,33.7,27.166,29.842,22.406,29.842z"/>
	<radialGradient id="SVGID_5_" cx="22.4063" cy="38.46" r="4.6226" gradientUnits="userSpaceOnUse">
		<stop  offset="0" style="stop-color:#7A7A7A"/>
		<stop  offset="0.9803" style="stop-color:#242424"/>
	</radialGradient>
	<linearGradient id="SVGID_6_" gradientUnits="userSpaceOnUse" x1="18.7842" y1="34.8379" x2="26.0293" y2="42.083">
		<stop  offset="0" style="stop-color:#474747"/>
		<stop  offset="1" style="stop-color:#000000"/>
	</linearGradient>
	<circle style="fill:url(#SVGID_5_);stroke:url(#SVGID_6_);stroke-miterlimit:10;" cx="22.406" cy="38.46" r="4.623"/>
	<g>
		<g>
			<path style="fill:#DF331D;" d="M5.829,27.226c0-0.551,0.121-0.975,0.364-1.271c0.242-0.296,0.544-0.444,0.906-0.444
				c0.234,0,0.447,0.066,0.64,0.198c0.192,0.132,0.345,0.325,0.457,0.577c0.113,0.252,0.169,0.552,0.169,0.9
				c0,0.479-0.109,0.87-0.326,1.171c-0.24,0.332-0.554,0.498-0.941,0.498c-0.391,0-0.706-0.17-0.944-0.512
				C5.937,28.035,5.829,27.663,5.829,27.226z M6.19,27.232c0,0.398,0.088,0.708,0.264,0.928c0.175,0.22,0.389,0.33,0.64,0.33
				c0.257,0,0.473-0.111,0.647-0.333c0.174-0.222,0.261-0.549,0.261-0.979c0-0.278-0.044-0.527-0.134-0.746
				c-0.069-0.168-0.173-0.302-0.312-0.403c-0.139-0.101-0.291-0.151-0.455-0.151c-0.265,0-0.482,0.11-0.654,0.331
				C6.276,26.429,6.19,26.77,6.19,27.232z"/>
			<path style="fill:#DF331D;" d="M9.569,28.8L8.54,25.568h0.379l0.691,2.348c0.053,0.182,0.099,0.358,0.139,0.529
				c0.041-0.178,0.088-0.354,0.141-0.529l0.717-2.348h0.357L9.929,28.8H9.569z"/>
			<path style="fill:#DF331D;" d="M11.285,28.8v-3.232h1.916v0.381h-1.565v0.988h1.466v0.381h-1.466v1.1h1.627V28.8H11.285z"/>
			<path style="fill:#DF331D;" d="M13.745,28.8v-3.232h1.175c0.245,0,0.426,0.03,0.543,0.09c0.117,0.061,0.212,0.161,0.288,0.301
				c0.075,0.14,0.112,0.303,0.112,0.488c0,0.244-0.063,0.441-0.19,0.592c-0.127,0.151-0.312,0.248-0.555,0.289
				c0.099,0.06,0.173,0.119,0.225,0.18c0.104,0.124,0.196,0.261,0.275,0.413l0.463,0.879h-0.441l-0.354-0.672
				c-0.137-0.263-0.24-0.44-0.31-0.531c-0.069-0.091-0.137-0.153-0.202-0.185c-0.065-0.032-0.157-0.047-0.274-0.047h-0.405V28.8
				H13.745z M14.096,26.995h0.754c0.165,0,0.29-0.02,0.375-0.06c0.085-0.04,0.153-0.102,0.203-0.187
				c0.05-0.085,0.075-0.185,0.075-0.298c0-0.163-0.048-0.291-0.144-0.385c-0.095-0.093-0.237-0.14-0.425-0.14h-0.838V26.995z"/>
		</g>
	</g>
	<g>
		<g>
			<path style="fill:#DF331D;" d="M9.217,36.943c0-0.423,0.084-0.746,0.252-0.97c0.168-0.224,0.375-0.336,0.619-0.336
				c0.253,0,0.468,0.112,0.643,0.336c0.175,0.224,0.263,0.559,0.263,1.004c0,0.437-0.087,0.77-0.263,0.999
				c-0.175,0.23-0.387,0.345-0.636,0.345c-0.244,0-0.452-0.114-0.622-0.341C9.302,37.753,9.217,37.407,9.217,36.943z M10.103,36.067
				c-0.127,0-0.232,0.068-0.317,0.203c-0.084,0.135-0.126,0.373-0.126,0.712c0,0.339,0.042,0.576,0.126,0.709
				s0.193,0.201,0.327,0.201c0.123,0,0.226-0.067,0.31-0.202c0.084-0.135,0.126-0.371,0.126-0.708c0-0.337-0.043-0.574-0.128-0.71
				S10.23,36.067,10.103,36.067z M10.103,40.987l2.278-5.35H12.8l-2.271,5.35H10.103z M11.907,39.609
				c0-0.422,0.084-0.746,0.252-0.97c0.168-0.224,0.373-0.336,0.615-0.336c0.255,0,0.471,0.111,0.646,0.334
				c0.175,0.223,0.263,0.557,0.263,1.002c0,0.439-0.088,0.773-0.264,1.002c-0.176,0.23-0.388,0.345-0.634,0.345
				c-0.244,0-0.452-0.114-0.622-0.343S11.907,40.071,11.907,39.609z M12.797,38.733c-0.129,0-0.236,0.067-0.32,0.202
				c-0.084,0.135-0.126,0.373-0.126,0.712s0.042,0.576,0.128,0.709c0.085,0.134,0.195,0.201,0.329,0.201
				c0.12,0,0.222-0.068,0.307-0.205c0.084-0.136,0.126-0.373,0.126-0.709c0-0.337-0.042-0.573-0.126-0.708
				C13.029,38.801,12.924,38.733,12.797,38.733z"/>
		</g>
	</g>
	
		<rect x="19.106" y="43.671" transform="matrix(0.961 0.2767 -0.2767 0.961 13.5237 -3.5716)" style="fill:#DF331D;" width="0.627" height="4.936"/>
	
		<rect x="23.699" y="44.074" transform="matrix(0.9593 -0.2823 0.2823 0.9593 -12.1635 8.6729)" style="fill:#DF331D;" width="0.626" height="4.936"/>
	
		<rect x="27.79" y="41.947" transform="matrix(0.658 -0.7531 0.7531 0.658 -23.8341 36.3549)" style="fill:#DF331D;" width="0.626" height="4.935"/>
	
		<rect x="30.097" y="37.954" transform="matrix(0.1512 -0.9885 0.9885 0.1512 -14.1457 64.3688)" style="fill:#DF331D;" width="0.626" height="4.936"/>
	
		<rect x="29.897" y="33.346" transform="matrix(-0.404 -0.9147 0.9147 -0.404 9.6565 77.9202)" style="fill:#DF331D;" width="0.627" height="4.936"/>
	
		<rect x="27.254" y="29.568" transform="matrix(-0.8325 -0.554 0.554 -0.8325 32.7721 73.9789)" style="fill:#DF331D;" width="0.628" height="4.936"/>
	
		<rect x="22.996" y="27.8" transform="matrix(-0.9998 -0.0195 0.0195 -0.9998 46.025 60.9846)" style="fill:#DF331D;" width="0.627" height="4.937"/>
	
		<rect x="18.455" y="28.597" transform="matrix(-0.8528 0.5223 -0.5223 -0.8528 50.9972 47.7556)" style="fill:#DF331D;" width="0.626" height="4.937"/>
	<g>
		<path style="fill:#DF331D;" d="M18.451,51.888v0.329h-1.511c-0.004-0.133,0.036-0.282,0.121-0.447s0.239-0.359,0.463-0.584
			c0.262-0.261,0.434-0.463,0.515-0.606s0.122-0.275,0.122-0.398c0-0.142-0.042-0.258-0.125-0.348
			c-0.083-0.089-0.185-0.134-0.307-0.134c-0.131,0-0.238,0.048-0.321,0.145c-0.084,0.097-0.125,0.235-0.125,0.416l-0.289-0.036
			c0.02-0.267,0.096-0.468,0.227-0.604c0.131-0.135,0.304-0.203,0.518-0.203c0.233,0,0.41,0.079,0.529,0.236
			c0.12,0.157,0.18,0.335,0.18,0.536c0,0.178-0.047,0.348-0.141,0.51c-0.094,0.163-0.271,0.38-0.534,0.652
			c-0.167,0.171-0.275,0.288-0.324,0.35c-0.049,0.063-0.088,0.125-0.119,0.187H18.451z"/>
		<path style="fill:#DF331D;" d="M18.748,50.842c0-0.468,0.063-0.822,0.189-1.063c0.126-0.241,0.313-0.361,0.558-0.361
			c0.218,0,0.39,0.098,0.515,0.293c0.152,0.236,0.229,0.613,0.229,1.131c0,0.465-0.063,0.819-0.188,1.06s-0.312,0.362-0.559,0.362
			c-0.218,0-0.396-0.106-0.535-0.319S18.748,51.364,18.748,50.842z M19.035,50.841c0,0.453,0.043,0.756,0.13,0.911
			s0.199,0.231,0.334,0.231c0.128,0,0.235-0.078,0.322-0.234s0.13-0.459,0.13-0.908c0-0.454-0.043-0.758-0.131-0.912
			c-0.087-0.153-0.2-0.23-0.338-0.23c-0.127,0-0.233,0.078-0.319,0.234C19.078,50.09,19.035,50.392,19.035,50.841z"/>
	</g>
	<g>
		<path style="fill:#DF331D;" d="M31.352,49.631h-0.281v-2.181c-0.065,0.076-0.152,0.154-0.261,0.233s-0.209,0.139-0.3,0.18v-0.331
			c0.155-0.088,0.291-0.197,0.41-0.325c0.119-0.128,0.202-0.252,0.25-0.375h0.183V49.631z"/>
		<path style="fill:#DF331D;" d="M32.071,48.901l0.294-0.031c0.023,0.178,0.075,0.31,0.155,0.396c0.081,0.087,0.174,0.13,0.28,0.13
			c0.133,0,0.248-0.061,0.344-0.184s0.145-0.29,0.145-0.502c0-0.199-0.047-0.354-0.14-0.463c-0.093-0.11-0.21-0.165-0.351-0.165
			c-0.085,0-0.165,0.024-0.238,0.072c-0.074,0.047-0.133,0.114-0.176,0.199l-0.264-0.042l0.223-1.432h1.135v0.327h-0.912
			l-0.122,0.75c0.136-0.117,0.279-0.176,0.432-0.176c0.191,0,0.358,0.082,0.499,0.245s0.212,0.383,0.212,0.66
			c0,0.272-0.071,0.506-0.212,0.701s-0.331,0.292-0.569,0.292c-0.198,0-0.365-0.068-0.501-0.206S32.09,49.145,32.071,48.901z"/>
	</g>
	<g>
		<path style="fill:#DF331D;" d="M34.56,35.814h-0.281v-2.181c-0.065,0.076-0.152,0.154-0.261,0.233s-0.209,0.139-0.3,0.18v-0.331
			c0.155-0.088,0.291-0.197,0.41-0.325c0.119-0.128,0.202-0.252,0.25-0.375h0.183V35.814z"/>
		<path style="fill:#DF331D;" d="M35.278,34.44c0-0.468,0.063-0.822,0.189-1.063c0.126-0.241,0.313-0.361,0.558-0.361
			c0.218,0,0.39,0.098,0.515,0.293c0.152,0.236,0.229,0.613,0.229,1.131c0,0.465-0.063,0.818-0.188,1.06
			c-0.125,0.241-0.312,0.362-0.559,0.362c-0.218,0-0.396-0.106-0.535-0.319S35.278,34.962,35.278,34.44z M35.565,34.439
			c0,0.453,0.043,0.756,0.13,0.911c0.087,0.154,0.199,0.231,0.334,0.231c0.128,0,0.235-0.078,0.322-0.234
			c0.086-0.156,0.13-0.458,0.13-0.908c0-0.454-0.043-0.758-0.131-0.912c-0.087-0.153-0.2-0.23-0.338-0.23
			c-0.127,0-0.233,0.078-0.319,0.234C35.608,33.688,35.565,33.99,35.565,34.439z"/>
	</g>
	<path style="fill:#DF331D;" d="M22.25,58.985c-2.254,0-4.301,0.873-5.836,2.291l5.836,6.327l-4.935,7.06
		c1.398,0.979,3.098,1.559,4.935,1.559c4.759,0,8.618-3.858,8.618-8.618S27.009,58.985,22.25,58.985z"/>
	<radialGradient id="SVGID_7_" cx="22.2495" cy="67.6035" r="4.6228" gradientUnits="userSpaceOnUse">
		<stop  offset="0" style="stop-color:#7A7A7A"/>
		<stop  offset="0.9803" style="stop-color:#242424"/>
	</radialGradient>
	<linearGradient id="SVGID_8_" gradientUnits="userSpaceOnUse" x1="18.6279" y1="63.9824" x2="25.8716" y2="71.2261">
		<stop  offset="0" style="stop-color:#474747"/>
		<stop  offset="1" style="stop-color:#000000"/>
	</linearGradient>
	<circle style="fill:url(#SVGID_7_);stroke:url(#SVGID_8_);stroke-miterlimit:10;" cx="22.25" cy="67.604" r="4.623"/>
	<g>
		<g>
			<path style="fill:#DF331D;" d="M7.336,53.91h0.322v1.715c0,0.287-0.028,0.523-0.084,0.707c-0.056,0.185-0.158,0.33-0.305,0.437
				c-0.148,0.106-0.335,0.16-0.563,0.16c-0.321,0-0.561-0.096-0.721-0.288c-0.16-0.191-0.24-0.53-0.24-1.016V53.91h0.322v1.713
				c0,0.269,0.021,0.463,0.063,0.583c0.042,0.12,0.11,0.211,0.205,0.274c0.095,0.063,0.211,0.094,0.347,0.094
				c0.229,0,0.396-0.064,0.499-0.194c0.104-0.13,0.155-0.382,0.155-0.757V53.91z"/>
			<path style="fill:#DF331D;" d="M8.19,56.878V53.91h0.33l1.279,2.335V53.91h0.308v2.968h-0.33L8.5,54.543v2.335H8.19z"/>
			<path style="fill:#DF331D;" d="M10.646,56.878V53.91h0.84c0.208,0,0.366,0.019,0.474,0.055c0.142,0.047,0.265,0.134,0.369,0.259
				c0.104,0.126,0.185,0.284,0.243,0.475c0.058,0.191,0.087,0.418,0.087,0.68c0,0.336-0.049,0.621-0.147,0.855
				s-0.225,0.4-0.38,0.498c-0.154,0.098-0.356,0.146-0.606,0.146H10.646z M10.968,56.527h0.518c0.209,0,0.368-0.034,0.476-0.102
				c0.108-0.068,0.191-0.178,0.249-0.329c0.077-0.201,0.116-0.442,0.116-0.723c0-0.301-0.041-0.538-0.123-0.71
				c-0.082-0.172-0.187-0.287-0.315-0.345c-0.086-0.039-0.223-0.059-0.411-0.059h-0.51V56.527z"/>
			<path style="fill:#DF331D;" d="M13.113,56.878V53.91h1.759v0.351h-1.437v0.906h1.346v0.351h-1.346v1.01h1.494v0.351H13.113z"/>
			<path style="fill:#DF331D;" d="M15.373,56.878V53.91h1.079c0.225,0,0.392,0.027,0.499,0.083c0.107,0.056,0.195,0.147,0.264,0.276
				s0.103,0.278,0.103,0.448c0,0.224-0.058,0.405-0.175,0.544c-0.117,0.139-0.286,0.228-0.509,0.265
				c0.09,0.055,0.159,0.109,0.207,0.165c0.096,0.113,0.18,0.24,0.253,0.379l0.425,0.808h-0.405l-0.324-0.617
				c-0.126-0.241-0.221-0.404-0.285-0.487c-0.064-0.084-0.126-0.141-0.186-0.17s-0.144-0.044-0.252-0.044h-0.372v1.318H15.373z
				 M15.694,55.22h0.692c0.151,0,0.266-0.018,0.344-0.055c0.078-0.036,0.14-0.094,0.186-0.172s0.069-0.169,0.069-0.273
				c0-0.149-0.044-0.268-0.131-0.354c-0.088-0.085-0.218-0.128-0.391-0.128h-0.77V55.22z"/>
		</g>
	</g>
	<g>
		<g>
			<path style="fill:#DF331D;" d="M9.061,66.086c0-0.422,0.084-0.745,0.252-0.969c0.168-0.225,0.375-0.336,0.619-0.336
				c0.253,0,0.468,0.111,0.643,0.336c0.175,0.224,0.263,0.559,0.263,1.004c0,0.436-0.087,0.769-0.263,0.999
				c-0.175,0.229-0.387,0.344-0.636,0.344c-0.244,0-0.452-0.113-0.622-0.341S9.061,66.55,9.061,66.086z M9.947,65.21
				c-0.127,0-0.232,0.067-0.317,0.203c-0.084,0.135-0.126,0.372-0.126,0.711c0,0.34,0.042,0.576,0.126,0.71s0.193,0.201,0.327,0.201
				c0.123,0,0.226-0.067,0.31-0.203c0.084-0.135,0.126-0.371,0.126-0.708s-0.043-0.573-0.128-0.71
				C10.18,65.278,10.074,65.21,9.947,65.21z M9.947,70.13l2.278-5.349h0.418l-2.271,5.349H9.947z M11.75,68.752
				c0-0.422,0.084-0.745,0.252-0.969c0.168-0.225,0.373-0.336,0.615-0.336c0.255,0,0.471,0.111,0.646,0.334
				c0.175,0.223,0.263,0.557,0.263,1.002c0,0.438-0.088,0.773-0.264,1.003s-0.388,0.344-0.634,0.344
				c-0.244,0-0.452-0.114-0.622-0.343S11.75,69.214,11.75,68.752z M12.641,67.876c-0.129,0-0.236,0.067-0.32,0.203
				c-0.084,0.135-0.126,0.372-0.126,0.711c0,0.34,0.042,0.576,0.128,0.71s0.195,0.201,0.329,0.201c0.12,0,0.222-0.068,0.307-0.204
				c0.084-0.137,0.126-0.373,0.126-0.71s-0.042-0.573-0.126-0.708C12.873,67.943,12.768,67.876,12.641,67.876z"/>
		</g>
	</g>
	
		<rect x="18.949" y="72.814" transform="matrix(0.9615 0.2747 -0.2747 0.9615 21.4229 -2.3951)" style="fill:#DF331D;" width="0.626" height="4.937"/>
	
		<rect x="23.542" y="73.219" transform="matrix(0.9593 -0.2823 0.2823 0.9593 -20.3983 9.8144)" style="fill:#DF331D;" width="0.626" height="4.935"/>
	
		<rect x="27.633" y="71.091" transform="matrix(0.658 -0.7531 0.7531 0.658 -45.835 46.2057)" style="fill:#DF331D;" width="0.626" height="4.936"/>
	
		<rect x="29.94" y="67.097" transform="matrix(0.151 -0.9885 0.9885 0.151 -43.082 88.9671)" style="fill:#DF331D;" width="0.627" height="4.936"/>
	
		<rect x="29.74" y="62.49" transform="matrix(-0.4038 -0.9149 0.9149 -0.4038 -17.2392 118.6807)" style="fill:#DF331D;" width="0.628" height="4.937"/>
	
		<rect x="27.097" y="58.712" transform="matrix(-0.8318 -0.5551 0.5551 -0.8318 16.2541 127.2846)" style="fill:#DF331D;" width="0.628" height="4.936"/>
	
		<rect x="22.839" y="56.944" transform="matrix(-0.9998 -0.0218 0.0218 -0.9998 45.0059 119.3145)" style="fill:#DF331D;" width="0.628" height="4.937"/>
	
		<rect x="18.298" y="57.74" transform="matrix(-0.853 0.5219 -0.5219 -0.853 65.9111 101.8531)" style="fill:#DF331D;" width="0.627" height="4.938"/>
	<g>
		<path style="fill:#DF331D;" d="M18.294,81.031v0.329h-1.511c-0.004-0.133,0.036-0.282,0.121-0.447s0.239-0.359,0.463-0.584
			c0.262-0.261,0.434-0.463,0.515-0.605c0.081-0.144,0.122-0.276,0.122-0.399c0-0.142-0.042-0.258-0.125-0.347
			c-0.083-0.09-0.185-0.135-0.307-0.135c-0.131,0-0.238,0.049-0.321,0.146c-0.084,0.097-0.125,0.235-0.125,0.416l-0.289-0.036
			c0.02-0.268,0.096-0.469,0.227-0.604c0.131-0.136,0.304-0.203,0.518-0.203c0.233,0,0.41,0.079,0.529,0.235
			c0.12,0.157,0.18,0.336,0.18,0.536c0,0.178-0.047,0.348-0.141,0.511c-0.094,0.162-0.271,0.38-0.534,0.651
			c-0.167,0.171-0.275,0.288-0.324,0.35c-0.049,0.063-0.088,0.125-0.119,0.187H18.294z"/>
		<path style="fill:#DF331D;" d="M18.591,79.985c0-0.468,0.063-0.821,0.189-1.063c0.126-0.24,0.313-0.361,0.558-0.361
			c0.218,0,0.39,0.098,0.515,0.293c0.152,0.235,0.229,0.613,0.229,1.131c0,0.466-0.063,0.819-0.188,1.061s-0.312,0.362-0.559,0.362
			c-0.218,0-0.396-0.106-0.535-0.319S18.591,80.508,18.591,79.985z M18.878,79.984c0,0.453,0.043,0.757,0.13,0.911
			s0.199,0.231,0.334,0.231c0.128,0,0.235-0.078,0.322-0.234s0.13-0.459,0.13-0.908c0-0.454-0.043-0.758-0.131-0.911
			c-0.087-0.153-0.2-0.23-0.338-0.23c-0.127,0-0.233,0.078-0.319,0.234C18.921,79.233,18.878,79.536,18.878,79.984z"/>
	</g>
	<g>
		<path style="fill:#DF331D;" d="M31.195,78.775h-0.281v-2.181c-0.065,0.076-0.152,0.153-0.261,0.232
			c-0.109,0.08-0.209,0.14-0.3,0.18v-0.33c0.155-0.089,0.291-0.197,0.41-0.325s0.202-0.253,0.25-0.375h0.183V78.775z"/>
		<path style="fill:#DF331D;" d="M31.914,78.045l0.294-0.03c0.023,0.178,0.075,0.31,0.155,0.396s0.174,0.131,0.28,0.131
			c0.133,0,0.248-0.062,0.344-0.185c0.096-0.122,0.145-0.289,0.145-0.501c0-0.199-0.047-0.354-0.14-0.464
			c-0.093-0.11-0.21-0.165-0.351-0.165c-0.085,0-0.165,0.024-0.238,0.071c-0.074,0.048-0.133,0.114-0.176,0.199l-0.264-0.042
			l0.223-1.432h1.135v0.327h-0.912l-0.122,0.75c0.136-0.117,0.279-0.176,0.432-0.176c0.191,0,0.358,0.081,0.499,0.244
			s0.212,0.383,0.212,0.659c0,0.273-0.071,0.507-0.212,0.702c-0.141,0.194-0.331,0.292-0.569,0.292
			c-0.198,0-0.365-0.069-0.501-0.207C32.011,78.479,31.933,78.289,31.914,78.045z"/>
	</g>
	<g>
		<path style="fill:#DF331D;" d="M34.403,64.958h-0.281v-2.181c-0.065,0.076-0.152,0.153-0.261,0.232
			c-0.109,0.08-0.209,0.14-0.3,0.18v-0.33c0.155-0.089,0.291-0.197,0.41-0.325s0.202-0.253,0.25-0.375h0.183V64.958z"/>
		<path style="fill:#DF331D;" d="M35.122,63.583c0-0.468,0.063-0.821,0.189-1.063c0.126-0.24,0.313-0.361,0.558-0.361
			c0.218,0,0.39,0.098,0.515,0.293c0.152,0.235,0.229,0.613,0.229,1.131c0,0.466-0.063,0.819-0.188,1.061s-0.312,0.362-0.559,0.362
			c-0.218,0-0.396-0.106-0.535-0.319S35.122,64.105,35.122,63.583z M35.409,63.582c0,0.453,0.043,0.757,0.13,0.911
			s0.199,0.231,0.334,0.231c0.128,0,0.235-0.078,0.322-0.234s0.13-0.459,0.13-0.908c0-0.454-0.043-0.758-0.131-0.911
			c-0.087-0.153-0.2-0.23-0.338-0.23c-0.127,0-0.233,0.078-0.319,0.234C35.452,62.831,35.409,63.134,35.409,63.582z"/>
	</g>
	<g>
		<g>
			<path style="fill:#DF331D;" d="M6.74,83.335c0-0.721,0.201-1.255,0.601-1.602c0.335-0.288,0.743-0.433,1.225-0.433
				c0.535,0,0.972,0.176,1.312,0.526c0.339,0.351,0.509,0.835,0.509,1.453c0,0.501-0.075,0.895-0.225,1.182
				c-0.15,0.287-0.369,0.51-0.656,0.669s-0.601,0.238-0.94,0.238c-0.545,0-0.985-0.175-1.321-0.524
				C6.908,84.496,6.74,83.992,6.74,83.335z M7.418,83.335c0,0.498,0.109,0.872,0.326,1.12c0.218,0.248,0.491,0.372,0.821,0.372
				c0.327,0,0.6-0.125,0.817-0.374c0.217-0.249,0.326-0.629,0.326-1.14c0-0.481-0.109-0.847-0.328-1.095s-0.491-0.372-0.815-0.372
				c-0.33,0-0.604,0.124-0.821,0.37C7.527,82.464,7.418,82.837,7.418,83.335z"/>
			<path style="fill:#DF331D;" d="M11.161,85.281v-3.893h0.594v0.554c0.286-0.428,0.699-0.642,1.239-0.642
				c0.234,0,0.45,0.042,0.646,0.126c0.197,0.085,0.344,0.195,0.442,0.332s0.166,0.3,0.205,0.487
				c0.024,0.122,0.037,0.336,0.037,0.642v2.394h-0.66v-2.368c0-0.269-0.025-0.47-0.077-0.603s-0.143-0.239-0.273-0.319
				c-0.13-0.079-0.284-0.118-0.46-0.118c-0.281,0-0.523,0.089-0.728,0.267c-0.204,0.179-0.306,0.518-0.306,1.016v2.126H11.161z"/>
		</g>
	</g>
</g>
<g id="on_1_">
	<g id="on">
		
			<linearGradient id="SVGID_9_" gradientUnits="userSpaceOnUse" x1="264.5156" y1="-332.8911" x2="268.8172" y2="-337.1927" gradientTransform="matrix(1 0 0 -1 -256 -244)">
			<stop  offset="0" style="stop-color:#FF2A2A"/>
			<stop  offset="1" style="stop-color:#FF5954"/>
		</linearGradient>
		<circle style="fill:url(#SVGID_9_);" cx="10.666" cy="91.042" r="3.042"/>
		
			<radialGradient id="SVGID_10_" cx="266.666" cy="-335.042" r="5.3535" gradientTransform="matrix(1 0 0 -1 -256 -244)" gradientUnits="userSpaceOnUse">
			<stop  offset="0.4335" style="stop-color:#FF2A2A"/>
			<stop  offset="1" style="stop-color:#FF5954;stop-opacity:0"/>
		</radialGradient>
		<circle style="fill:url(#SVGID_10_);" cx="10.666" cy="91.042" r="5.354"/>
	</g>
	<g>
	</g>
	<g>
	</g>
	<g>
	</g>
	<g>
	</g>
	<g>
	</g>
	<g>
	</g>
	<g>
	</g>
	<g>
	</g>
	<g>
	</g>
	<g>
	</g>
	<g>
	</g>
	<g>
	</g>
	<g>
	</g>
	<g>
	</g>
	<g>
	</g>
</g>
</svg>
