<?xml version="1.0" encoding="utf-8"?>
<!-- Generator: Adobe Illustrator 16.0.0, SVG Export Plug-In . SVG Version: 6.00 Build 0)  -->
<!DOCTYPE svg PUBLIC "-//W3C//DTD SVG 1.1//EN" "http://www.w3.org/Graphics/SVG/1.1/DTD/svg11.dtd">
<svg version="1.1" id="Layer_1" xmlns="http://www.w3.org/2000/svg" xmlns:xlink="http://www.w3.org/1999/xlink" x="0px" y="0px"
	 width="64px" height="64px" viewBox="0 0 64 64" enable-background="new 0 0 64 64" xml:space="preserve">
<g id="Group_SuctionFlange">
	
		<linearGradient id="SVGID_1_" gradientUnits="userSpaceOnUse" x1="572.9414" y1="-600.9458" x2="572.9414" y2="-570.0923" gradientTransform="matrix(-0.5689 0 0 -0.5689 327.5415 -297.9875)">
		<stop  offset="0" style="stop-color:#383838"/>
		<stop  offset="0.45" style="stop-color:#ECECEC"/>
		<stop  offset="0.55" style="stop-color:#D9D9D9"/>
		<stop  offset="0.76" style="stop-color:#A8A8A8"/>
		<stop  offset="0.77" style="stop-color:#A6A6A6"/>
		<stop  offset="1" style="stop-color:#383838"/>
	</linearGradient>
	<path fill="url(#SVGID_1_)" d="M2.434,26.331v17.552H0.769V26.331H2.434"/>
</g>
<g id="Group_PumpBody">
	
		<linearGradient id="SVGID_2_" gradientUnits="userSpaceOnUse" x1="550.6465" y1="-602.2983" x2="550.6465" y2="-568.7417" gradientTransform="matrix(-0.5689 0 0 -0.5689 327.5415 -297.9875)">
		<stop  offset="0" style="stop-color:#383838"/>
		<stop  offset="0.45" style="stop-color:#ECECEC"/>
		<stop  offset="0.55" style="stop-color:#D9D9D9"/>
		<stop  offset="0.76" style="stop-color:#A8A8A8"/>
		<stop  offset="0.77" style="stop-color:#A6A6A6"/>
		<stop  offset="1" style="stop-color:#383838"/>
	</linearGradient>
	<path fill="url(#SVGID_2_)" d="M15.117,25.562v19.09h-1.666v-19.09H15.117"/>
	
		<linearGradient id="SVGID_3_" gradientUnits="userSpaceOnUse" x1="507.5176" y1="-602.0718" x2="507.5176" y2="-568.7417" gradientTransform="matrix(-0.5689 0 0 -0.5689 327.5415 -297.9875)">
		<stop  offset="0" style="stop-color:#383838"/>
		<stop  offset="0.45" style="stop-color:#ECECEC"/>
		<stop  offset="0.55" style="stop-color:#D9D9D9"/>
		<stop  offset="0.76" style="stop-color:#A8A8A8"/>
		<stop  offset="0.77" style="stop-color:#A6A6A6"/>
		<stop  offset="1" style="stop-color:#383838"/>
	</linearGradient>
	<path fill="url(#SVGID_3_)" d="M57.781,25.562H26.136L19.858,27.1v15.887l6.277,1.537h31.646V25.562z"/>
	<path fill="#333333" d="M57.781,45.416H26.136v-0.889h31.646V45.416z"/>
	
		<radialGradient id="SVGID_4_" cx="-229.98" cy="-122.3403" r="5.3068" gradientTransform="matrix(7.838586e-011 -1.7459 1.8336 8.232431e-011 286.7518 -366.8739)" gradientUnits="userSpaceOnUse">
		<stop  offset="0" style="stop-color:#ECECEC"/>
		<stop  offset="0.14" style="stop-color:#DDDDDD"/>
		<stop  offset="0.4" style="stop-color:#B8B8B8"/>
		<stop  offset="0.75" style="stop-color:#7C7C7C"/>
		<stop  offset="1" style="stop-color:#4D4D4D"/>
	</radialGradient>
	<path fill="url(#SVGID_4_)" d="M57.781,25.562c4.982,1.091,6.217,2.798,6.217,9.382c0,6.609-0.949,8.547-6.217,9.58"/>
	
		<linearGradient id="SVGID_5_" gradientUnits="userSpaceOnUse" x1="545.0166" y1="-598.019" x2="545.0166" y2="-573.02" gradientTransform="matrix(-0.5689 0 0 -0.5689 327.5415 -297.9875)">
		<stop  offset="0" style="stop-color:#383838"/>
		<stop  offset="0.45" style="stop-color:#ECECEC"/>
		<stop  offset="0.55" style="stop-color:#D9D9D9"/>
		<stop  offset="0.76" style="stop-color:#A8A8A8"/>
		<stop  offset="0.77" style="stop-color:#A6A6A6"/>
		<stop  offset="1" style="stop-color:#383838"/>
	</linearGradient>
	<path fill="url(#SVGID_5_)" d="M19.857,42.218h-4.74V27.996h4.74V42.218z"/>
</g>
<g id="Group_Heat_Sink_Shade">
	<path fill="#333333" d="M51.375,41.449H27.673V25.562h23.702V41.449z"/>
	<path fill="#333333" d="M19.857,42.218h-4.74V40.68h4.74V42.218z"/>
	<path fill="#333333" d="M19.857,38.502h-4.74v-2.307h4.74V38.502z"/>
	<path fill="#333333" d="M19.857,34.018h-4.74v-2.306h4.74V34.018z"/>
	<path fill="#333333" d="M19.857,29.534h-4.74v-1.538h4.74V29.534z"/>
</g>
<g id="Group_HeatSink">
	<path fill="#B2B2B2" d="M54.578,37.477H27.032v-1.537h27.546V37.477z"/>
	<path fill="#B2B2B2" d="M54.578,40.68H27.032v-1.665h27.546V40.68z"/>
	<path fill="#CCCCCC" d="M54.578,31.199H27.032v-1.666h27.546V31.199z"/>
	<path fill="#CCCCCC" d="M54.578,34.274H27.032v-1.538h27.546V34.274z"/>
	<path fill="#E5E5E5" d="M54.578,27.996H27.032v-1.666h27.546V27.996z"/>
	<path fill="#E5E5E5" d="M54.578,25.562H27.032v-0.769h27.546V25.562z"/>
</g>
<g id="Group_DischargePipe">
	
		<linearGradient id="SVGID_6_" gradientUnits="userSpaceOnUse" x1="552.1123" y1="-566.0381" x2="565.8486" y2="-566.0381" gradientTransform="matrix(-0.5689 0 0 -0.5689 327.5415 -297.9875)">
		<stop  offset="0" style="stop-color:#383838"/>
		<stop  offset="0.45" style="stop-color:#ECECEC"/>
		<stop  offset="0.55" style="stop-color:#D9D9D9"/>
		<stop  offset="0.76" style="stop-color:#A8A8A8"/>
		<stop  offset="0.77" style="stop-color:#A6A6A6"/>
		<stop  offset="1" style="stop-color:#383838"/>
	</linearGradient>
	<path fill="url(#SVGID_6_)" d="M7.174,27.996l-1.537-7.943h7.814l-1.537,7.943H7.174z"/>
</g>
<g id="Group_DischargeFlange">
	
		<linearGradient id="SVGID_7_" gradientUnits="userSpaceOnUse" x1="542.2021" y1="-557.7612" x2="575.7588" y2="-557.7612" gradientTransform="matrix(-0.5689 0 0 -0.5689 327.5415 -297.9875)">
		<stop  offset="0" style="stop-color:#383838"/>
		<stop  offset="0.45" style="stop-color:#ECECEC"/>
		<stop  offset="0.55" style="stop-color:#D9D9D9"/>
		<stop  offset="0.76" style="stop-color:#A8A8A8"/>
		<stop  offset="0.77" style="stop-color:#A6A6A6"/>
		<stop  offset="1" style="stop-color:#383838"/>
	</linearGradient>
	<path fill="url(#SVGID_7_)" d="M19.089,20.053h-19.09v-1.474h19.09V20.053"/>
</g>
<g id="Group_Suction">
	
		<linearGradient id="SVGID_8_" gradientUnits="userSpaceOnUse" x1="553.5869" y1="-598.019" x2="553.5869" y2="-573.02" gradientTransform="matrix(-0.5689 0 0 -0.5689 327.5415 -297.9875)">
		<stop  offset="0" style="stop-color:#383838"/>
		<stop  offset="0.45" style="stop-color:#ECECEC"/>
		<stop  offset="0.55" style="stop-color:#D9D9D9"/>
		<stop  offset="0.76" style="stop-color:#A8A8A8"/>
		<stop  offset="0.77" style="stop-color:#A6A6A6"/>
		<stop  offset="1" style="stop-color:#383838"/>
	</linearGradient>
	<path fill="url(#SVGID_8_)" d="M13.451,27.996v14.222h-1.679V27.996H13.451"/>
	
		<linearGradient id="SVGID_9_" gradientUnits="userSpaceOnUse" x1="565.8467" y1="-598.019" x2="565.8467" y2="-573.02" gradientTransform="matrix(-0.5689 0 0 -0.5689 327.5415 -297.9875)">
		<stop  offset="0" style="stop-color:#383838"/>
		<stop  offset="0.45" style="stop-color:#ECECEC"/>
		<stop  offset="0.55" style="stop-color:#D9D9D9"/>
		<stop  offset="0.76" style="stop-color:#A8A8A8"/>
		<stop  offset="0.77" style="stop-color:#A6A6A6"/>
		<stop  offset="1" style="stop-color:#383838"/>
	</linearGradient>
	<polygon fill="url(#SVGID_9_)" points="4.036,29.533 4.036,40.68 7.238,42.218 7.238,27.996 	"/>
	<path fill="none" stroke="#4C4C4C" stroke-width="0.25" d="M3.971,29.533V40.68"/>
	
		<linearGradient id="SVGID_10_" gradientUnits="userSpaceOnUse" x1="558.9795" y1="-603.6499" x2="558.9795" y2="-566.5923" gradientTransform="matrix(-0.5689 0 0 -0.5689 327.5415 -297.9875)">
		<stop  offset="0" style="stop-color:#383838"/>
		<stop  offset="0.45" style="stop-color:#ECECEC"/>
		<stop  offset="0.55" style="stop-color:#D9D9D9"/>
		<stop  offset="0.76" style="stop-color:#A8A8A8"/>
		<stop  offset="0.77" style="stop-color:#A6A6A6"/>
		<stop  offset="1" style="stop-color:#383838"/>
	</linearGradient>
	<path fill="url(#SVGID_10_)" d="M11.914,45.421h-4.74V24.339h4.74V45.421z"/>
	
		<linearGradient id="SVGID_11_" gradientUnits="userSpaceOnUse" x1="569.9121" y1="-595.3149" x2="569.9121" y2="-575.7222" gradientTransform="matrix(-0.5689 0 0 -0.5689 327.5415 -297.9875)">
		<stop  offset="0" style="stop-color:#383838"/>
		<stop  offset="0.45" style="stop-color:#ECECEC"/>
		<stop  offset="0.55" style="stop-color:#D9D9D9"/>
		<stop  offset="0.76" style="stop-color:#A8A8A8"/>
		<stop  offset="0.77" style="stop-color:#A6A6A6"/>
		<stop  offset="1" style="stop-color:#383838"/>
	</linearGradient>
	<rect x="2.434" y="29.533" fill="url(#SVGID_11_)" width="1.782" height="11.146"/>
</g>
<g id="Group_Box">
	<path fill="#666666" d="M53.041,45.42H40.357V33.506h12.684V45.42z"/>
	<path fill="none" stroke="#FFFFFF" stroke-width="0.25" d="M42.663,35.171h8.712v8.712"/>
	<path fill="#333333" d="M40.357,44.527h-0.77V33.506h0.77V44.527z"/>
</g>
<g id="Group_WireBox_Sticker">
	<circle fill="#4C7F7F" cx="45.93" cy="39.078" r="2.371"/>
</g>
</svg>
