<?xml version="1.0" encoding="iso-8859-1"?>
<!-- Generator: Adobe Illustrator 16.0.0, SVG Export Plug-In . SVG Version: 6.00 Build 0)  -->
<!DOCTYPE svg PUBLIC "-//W3C//DTD SVG 1.1//EN" "http://www.w3.org/Graphics/SVG/1.1/DTD/svg11.dtd">
<svg version="1.1" id="Layer_4" xmlns="http://www.w3.org/2000/svg" xmlns:xlink="http://www.w3.org/1999/xlink" x="0px" y="0px"
	 width="68.839px" height="100px" viewBox="0 0 68.839 100" style="enable-background:new 0 0 68.839 100;" xml:space="preserve">
<rect x="14.487" y="83.5" style="fill:#414048;" width="39.938" height="2.583"/>
<rect x="14.487" y="13.917" style="fill:#414048;" width="39.938" height="2.583"/>
<polygon style="fill:#201B21;" points="67.25,8.539 64.761,5 56.976,5 54.426,8.625 54.426,16.5 49.296,16.5 49.296,8.625 46.746,5 
	39.534,5 36.984,8.625 36.984,16.5 31.854,16.5 31.854,8.625 29.305,5 22.167,5 19.617,8.625 19.617,16.5 14.487,16.5 14.487,8.625 
	11.938,5 4.073,5 1.589,8.531 1.589,91.469 4.073,95 11.938,95 14.487,91.375 14.487,83.5 19.617,83.5 19.617,91.375 22.167,95 
	29.305,95 31.854,91.375 31.854,83.5 36.984,83.5 36.984,91.375 39.534,95 46.746,95 49.296,91.375 49.296,83.5 54.426,83.5 
	54.426,91.375 56.976,95 64.761,95 67.25,91.461 "/>
<path style="fill:#605657;stroke:#AAAAAA;stroke-width:2;stroke-linejoin:round;stroke-miterlimit:10;" d="M67.25,73V27
	c-5.585,0-10.113-3.861-10.113-8.625H10.969c0,4.553-4.138,8.272-9.38,8.593V73c5.585,0,10.113,3.861,10.113,8.625h45.435
	C57.137,76.861,61.665,73,67.25,73z"/>
<g>
	<circle style="fill:#594338;stroke:#675958;stroke-width:0.4;stroke-miterlimit:10;" cx="7.974" cy="12.743" r="4.114"/>
	
		<line style="fill:none;stroke:#947D77;stroke-linecap:round;stroke-miterlimit:10;" x1="6.822" y1="13.832" x2="9.03" y2="11.493"/>
	
		<line style="fill:none;stroke:#947D77;stroke-linecap:round;stroke-miterlimit:10;" x1="6.797" y1="11.517" x2="9.056" y2="13.808"/>
</g>
<g>
	<circle style="fill:#594338;stroke:#675958;stroke-width:0.4;stroke-miterlimit:10;" cx="25.72" cy="12.743" r="4.114"/>
	
		<line style="fill:none;stroke:#947D77;stroke-linecap:round;stroke-miterlimit:10;" x1="24.568" y1="13.832" x2="26.776" y2="11.493"/>
	
		<line style="fill:none;stroke:#947D77;stroke-linecap:round;stroke-miterlimit:10;" x1="24.543" y1="11.517" x2="26.802" y2="13.808"/>
</g>
<g>
	<circle style="fill:#594338;stroke:#675958;stroke-width:0.4;stroke-miterlimit:10;" cx="43.113" cy="12.743" r="4.114"/>
	
		<line style="fill:none;stroke:#947D77;stroke-linecap:round;stroke-miterlimit:10;" x1="41.961" y1="13.832" x2="44.169" y2="11.493"/>
	
		<line style="fill:none;stroke:#947D77;stroke-linecap:round;stroke-miterlimit:10;" x1="41.937" y1="11.517" x2="44.195" y2="13.808"/>
</g>
<g>
	<circle style="fill:#594338;stroke:#675958;stroke-width:0.4;stroke-miterlimit:10;" cx="60.817" cy="12.743" r="4.114"/>
	
		<line style="fill:none;stroke:#947D77;stroke-linecap:round;stroke-miterlimit:10;" x1="59.666" y1="13.832" x2="61.873" y2="11.493"/>
	
		<line style="fill:none;stroke:#947D77;stroke-linecap:round;stroke-miterlimit:10;" x1="59.641" y1="11.517" x2="61.899" y2="13.808"/>
</g>
<rect x="26.875" y="23.167" style="fill:#9F5C56;" width="15" height="15"/>
<polygon style="fill:#4C4C51;" points="4.042,5 1.558,8.531 1.558,11.089 4.042,7.558 "/>
<polygon style="fill:#2E2D33;" points="11.906,5 14.453,8.641 14.453,11.198 11.906,7.558 "/>
<rect x="4.042" y="5" style="fill:#414048;" width="7.864" height="2.558"/>
<polygon style="fill:#4C4C51;" points="21.995,5 19.642,8.531 19.642,11.089 21.995,7.558 "/>
<polygon style="fill:#2E2D33;" points="29.445,5 31.858,8.641 31.858,11.198 29.445,7.558 "/>
<rect x="21.995" y="5" style="fill:#414048;" width="7.451" height="2.558"/>
<polygon style="fill:#4C4C51;" points="39.351,5 36.975,8.531 36.975,11.089 39.351,7.558 "/>
<polygon style="fill:#2E2D33;" points="46.875,5 49.311,8.641 49.311,11.198 46.875,7.558 "/>
<rect x="39.351" y="5" style="fill:#414048;" width="7.524" height="2.558"/>
<polygon style="fill:#4C4C51;" points="56.9,5 54.426,8.531 54.426,11.089 56.9,7.558 "/>
<polygon style="fill:#2E2D33;" points="64.734,5 67.271,8.641 67.271,11.198 64.734,7.558 "/>
<rect x="56.9" y="5" style="fill:#414048;" width="7.834" height="2.558"/>
<g>
	<circle style="fill:#594338;stroke:#675958;stroke-width:0.4;stroke-miterlimit:10;" cx="7.974" cy="87.256" r="4.114"/>
	
		<line style="fill:none;stroke:#947D77;stroke-linecap:round;stroke-miterlimit:10;" x1="6.822" y1="86.168" x2="9.03" y2="88.506"/>
	
		<line style="fill:none;stroke:#947D77;stroke-linecap:round;stroke-miterlimit:10;" x1="6.797" y1="88.482" x2="9.056" y2="86.191"/>
</g>
<g>
	<circle style="fill:#594338;stroke:#675958;stroke-width:0.4;stroke-miterlimit:10;" cx="25.72" cy="87.256" r="4.114"/>
	
		<line style="fill:none;stroke:#947D77;stroke-linecap:round;stroke-miterlimit:10;" x1="24.568" y1="86.168" x2="26.776" y2="88.506"/>
	
		<line style="fill:none;stroke:#947D77;stroke-linecap:round;stroke-miterlimit:10;" x1="24.543" y1="88.482" x2="26.802" y2="86.191"/>
</g>
<g>
	<circle style="fill:#594338;stroke:#675958;stroke-width:0.4;stroke-miterlimit:10;" cx="43.113" cy="87.256" r="4.114"/>
	
		<line style="fill:none;stroke:#947D77;stroke-linecap:round;stroke-miterlimit:10;" x1="41.961" y1="86.168" x2="44.169" y2="88.506"/>
	
		<line style="fill:none;stroke:#947D77;stroke-linecap:round;stroke-miterlimit:10;" x1="41.937" y1="88.482" x2="44.195" y2="86.191"/>
</g>
<g>
	<circle style="fill:#594338;stroke:#675958;stroke-width:0.4;stroke-miterlimit:10;" cx="60.817" cy="87.256" r="4.114"/>
	
		<line style="fill:none;stroke:#947D77;stroke-linecap:round;stroke-miterlimit:10;" x1="59.666" y1="86.168" x2="61.873" y2="88.506"/>
	
		<line style="fill:none;stroke:#947D77;stroke-linecap:round;stroke-miterlimit:10;" x1="59.641" y1="88.482" x2="61.899" y2="86.191"/>
</g>
<polygon style="fill:#4C4C51;" points="4.042,95 1.558,91.469 1.558,88.91 4.042,92.441 "/>
<polygon style="fill:#2E2D33;" points="11.906,95 14.453,91.359 14.453,88.801 11.906,92.441 "/>
<rect x="4.042" y="92.441" style="fill:#414048;" width="7.864" height="2.559"/>
<polygon style="fill:#4C4C51;" points="21.995,95 19.642,91.469 19.642,88.91 21.995,92.441 "/>
<polygon style="fill:#2E2D33;" points="29.445,95 31.858,91.359 31.858,88.801 29.445,92.441 "/>
<rect x="21.995" y="92.441" style="fill:#414048;" width="7.451" height="2.559"/>
<polygon style="fill:#4C4C51;" points="39.351,95 36.975,91.469 36.975,88.91 39.351,92.441 "/>
<polygon style="fill:#2E2D33;" points="46.875,95 49.311,91.359 49.311,88.801 46.875,92.441 "/>
<rect x="39.351" y="92.441" style="fill:#414048;" width="7.524" height="2.559"/>
<polygon style="fill:#4C4C51;" points="56.9,95 54.426,91.469 54.426,88.91 56.9,92.441 "/>
<polygon style="fill:#2E2D33;" points="64.734,95 67.271,91.359 67.271,88.801 64.734,92.441 "/>
<rect x="56.9" y="92.441" style="fill:#414048;" width="7.834" height="2.559"/>
<rect x="7.94" y="33.75" style="fill:#817174;" width="52.869" height="30.75"/>
<path style="fill:#DFD6CF;" d="M55.75,19.833H13C13,23.976,9.687,29,5.545,29L5.5,43.583h57.75L63.295,29
	C59.152,29,55.75,23.976,55.75,19.833z M53.254,29.333H15.586v-4.375h37.667V29.333z"/>
<rect x="21.875" y="51.499" style="fill:#2E2327;" width="25" height="25"/>
<g>
</g>
<g>
</g>
<g>
</g>
<g>
</g>
<g>
</g>
<g>
</g>
<g>
</g>
<g>
</g>
<g>
</g>
<g>
</g>
<g>
</g>
<g>
</g>
<g>
</g>
<g>
</g>
<g>
</g>
</svg>
