<?xml version="1.0" encoding="iso-8859-1"?>
<!-- Generator: Adobe Illustrator 16.0.0, SVG Export Plug-In . SVG Version: 6.00 Build 0)  -->
<!DOCTYPE svg PUBLIC "-//W3C//DTD SVG 1.1//EN" "http://www.w3.org/Graphics/SVG/1.1/DTD/svg11.dtd">
<svg version="1.1" id="Layer_1" xmlns="http://www.w3.org/2000/svg" xmlns:xlink="http://www.w3.org/1999/xlink" x="0px" y="0px"
	 width="27.852px" height="100.179px" viewBox="0 0 27.852 100.179" style="enable-background:new 0 0 27.852 100.179;"
	 xml:space="preserve">
<g>
	
		<linearGradient id="SVGID_1_" gradientUnits="userSpaceOnUse" x1="-329.6445" y1="-333.894" x2="-320.3408" y2="-333.894" gradientTransform="matrix(1 0 0 1 338.8306 383.9854)">
		<stop  offset="0.01" style="stop-color:#006033"/>
		<stop  offset="0.16" style="stop-color:#008948"/>
		<stop  offset="0.49" style="stop-color:#A8DDC4"/>
		<stop  offset="1" style="stop-color:#006033"/>
	</linearGradient>
	<rect x="9.186" y="4.651" style="fill:url(#SVGID_1_);" width="9.304" height="90.88"/>
	
		<linearGradient id="SVGID_2_" gradientUnits="userSpaceOnUse" x1="-333.3101" y1="-333.8965" x2="-316.4575" y2="-333.8965" gradientTransform="matrix(1 0 0 1 338.8306 383.9854)">
		<stop  offset="0.01" style="stop-color:#999999"/>
		<stop  offset="0.4" style="stop-color:#F8F9F9"/>
		<stop  offset="0.6" style="stop-color:#FFFFFF"/>
		<stop  offset="1" style="stop-color:#999999"/>
	</linearGradient>
	<rect x="5.521" y="31.129" style="fill:url(#SVGID_2_);" width="16.853" height="37.919"/>
	
		<linearGradient id="SVGID_3_" gradientUnits="userSpaceOnUse" x1="-333.3101" y1="-353.6738" x2="-316.4575" y2="-353.6738" gradientTransform="matrix(1 0 0 1 338.8306 383.9854)">
		<stop  offset="0.01" style="stop-color:#006033"/>
		<stop  offset="0.16" style="stop-color:#008948"/>
		<stop  offset="0.49" style="stop-color:#A8DDC4"/>
		<stop  offset="1" style="stop-color:#006033"/>
	</linearGradient>
	<rect x="5.521" y="29.494" style="fill:url(#SVGID_3_);" width="16.853" height="1.635"/>
	
		<linearGradient id="SVGID_4_" gradientUnits="userSpaceOnUse" x1="-333.3101" y1="-314.1172" x2="-316.4575" y2="-314.1172" gradientTransform="matrix(1 0 0 1 338.8306 383.9854)">
		<stop  offset="0.01" style="stop-color:#006033"/>
		<stop  offset="0.16" style="stop-color:#008948"/>
		<stop  offset="0.49" style="stop-color:#A8DDC4"/>
		<stop  offset="1" style="stop-color:#006033"/>
	</linearGradient>
	<rect x="5.521" y="69.049" style="fill:url(#SVGID_4_);" width="16.853" height="1.639"/>
	<g>
		<g id="Group_Flange_7_">
			
				<linearGradient id="SVGID_5_" gradientUnits="userSpaceOnUse" x1="539.7676" y1="-663.8423" x2="539.7676" y2="-624.3481" gradientTransform="matrix(0 -0.5689 -0.5689 0 -352.501 318.3379)">
				<stop  offset="0.01" style="stop-color:#006033"/>
				<stop  offset="0.16" style="stop-color:#008948"/>
				<stop  offset="0.49" style="stop-color:#A8DDC4"/>
				<stop  offset="1" style="stop-color:#006033"/>
			</linearGradient>
			<path style="fill:url(#SVGID_5_);" d="M2.691,14.072V8.457h22.468v5.615H2.691"/>
		</g>
		<g id="Group_Bolt_7_">
			<path style="fill:#B8E3CF;" d="M4.575,15.917H4.083l-0.449-1.845h0.718L4.575,15.917z"/>
			<polygon style="fill:#007940;" points="6.915,15.917 7.363,14.072 6.689,14.072 6.419,15.917 			"/>
			<polygon style="fill:#29AB6E;" points="6.419,15.917 6.689,14.072 4.352,14.072 4.575,15.917 			"/>
			<path style="fill:#B8E3CF;" d="M12.981,15.917H12.53l-0.449-1.845h0.674L12.981,15.917z"/>
			<polygon style="fill:#007940;" points="15.362,15.917 15.813,14.072 15.095,14.072 14.868,15.917 			"/>
			<polygon style="fill:#29AB6E;" points="14.868,15.917 15.095,14.072 12.755,14.072 12.981,15.917 			"/>
			<path style="fill:#B8E3CF;" d="M21.431,15.917H20.98l-0.495-1.845h0.718L21.431,15.917z"/>
			<polygon style="fill:#007940;" points="23.769,15.917 24.217,14.072 23.542,14.072 23.318,15.917 			"/>
			<polygon style="fill:#29AB6E;" points="23.318,15.917 23.542,14.072 21.204,14.072 21.431,15.917 			"/>
		</g>
	</g>
	<g>
		<g id="Group_Flange_5_">
			
				<linearGradient id="SVGID_6_" gradientUnits="userSpaceOnUse" x1="-1024.3149" y1="-663.8423" x2="-1024.3149" y2="-624.3481" gradientTransform="matrix(0 0.5689 -0.5689 0 -352.501 587.3848)">
				<stop  offset="0.01" style="stop-color:#006033"/>
				<stop  offset="0.16" style="stop-color:#008948"/>
				<stop  offset="0.49" style="stop-color:#A8DDC4"/>
				<stop  offset="1" style="stop-color:#006033"/>
			</linearGradient>
			<path style="fill:url(#SVGID_6_);" d="M2.691,1.842h22.468v5.62H2.691V1.842"/>
		</g>
		<g id="Group_Bolt_5_">
			<path style="fill:#B8E3CF;" d="M4.352,1.842H3.633L4.083,0h0.493L4.352,1.842z"/>
			<polygon style="fill:#007940;" points="6.419,0 6.689,1.842 7.363,1.842 6.915,0 			"/>
			<polygon style="fill:#29AB6E;" points="4.575,0 4.352,1.842 6.689,1.842 6.419,0 			"/>
			<path style="fill:#B8E3CF;" d="M12.755,1.842h-0.674L12.53,0h0.451L12.755,1.842z"/>
			<polygon style="fill:#007940;" points="14.868,0 15.095,1.842 15.813,1.842 15.362,0 			"/>
			<polygon style="fill:#29AB6E;" points="12.981,0 12.755,1.842 15.095,1.842 14.868,0 			"/>
			<path style="fill:#B8E3CF;" d="M21.204,1.842h-0.718L20.98,0h0.451L21.204,1.842z"/>
			<polygon style="fill:#007940;" points="23.318,0 23.542,1.842 24.217,1.842 23.769,0 			"/>
			<polygon style="fill:#29AB6E;" points="21.431,0 21.204,1.842 23.542,1.842 23.318,0 			"/>
		</g>
	</g>
	<g>
		<g id="Group_Flange_6_">
			
				<linearGradient id="SVGID_7_" gradientUnits="userSpaceOnUse" x1="-862.3555" y1="-663.8423" x2="-862.3555" y2="-624.3481" gradientTransform="matrix(0 0.5689 -0.5689 0 -352.501 579.5098)">
				<stop  offset="0.01" style="stop-color:#006033"/>
				<stop  offset="0.16" style="stop-color:#008948"/>
				<stop  offset="0.49" style="stop-color:#A8DDC4"/>
				<stop  offset="1" style="stop-color:#006033"/>
			</linearGradient>
			<path style="fill:url(#SVGID_7_);" d="M2.691,86.106v5.619h22.468v-5.619H2.691"/>
		</g>
		<g id="Group_Bolt_6_">
			<path style="fill:#B8E3CF;" d="M4.575,84.263H4.083l-0.449,1.844h0.718L4.575,84.263z"/>
			<polygon style="fill:#007940;" points="6.915,84.263 7.363,86.106 6.689,86.106 6.419,84.263 			"/>
			<polygon style="fill:#29AB6E;" points="6.419,84.263 6.689,86.106 4.352,86.106 4.575,84.263 			"/>
			<path style="fill:#B8E3CF;" d="M12.981,84.263H12.53l-0.449,1.844h0.674L12.981,84.263z"/>
			<polygon style="fill:#007940;" points="15.362,84.263 15.813,86.106 15.095,86.106 14.868,84.263 			"/>
			<polygon style="fill:#29AB6E;" points="14.868,84.263 15.095,86.106 12.755,86.106 12.981,84.263 			"/>
			<path style="fill:#B8E3CF;" d="M21.431,84.263H20.98l-0.495,1.844h0.718L21.431,84.263z"/>
			<polygon style="fill:#007940;" points="23.769,84.263 24.217,86.106 23.542,86.106 23.318,84.263 			"/>
			<polygon style="fill:#29AB6E;" points="23.318,84.263 23.542,86.106 21.204,86.106 21.431,84.263 			"/>
		</g>
	</g>
	<g>
		<g id="Group_Flange_4_">
			
				<linearGradient id="SVGID_8_" gradientUnits="userSpaceOnUse" x1="377.8057" y1="-663.8442" x2="377.8057" y2="-624.3501" gradientTransform="matrix(0 -0.5689 -0.5689 0 -352.5029 310.4629)">
				<stop  offset="0.01" style="stop-color:#006033"/>
				<stop  offset="0.16" style="stop-color:#008948"/>
				<stop  offset="0.49" style="stop-color:#A8DDC4"/>
				<stop  offset="1" style="stop-color:#006033"/>
			</linearGradient>
			<path style="fill:url(#SVGID_8_);" d="M2.691,98.339h22.468V92.72H2.691V98.339"/>
		</g>
		<g id="Group_Bolt_4_">
			<path style="fill:#B8E3CF;" d="M4.352,98.339H3.633l0.449,1.84h0.493L4.352,98.339z"/>
			<polygon style="fill:#007940;" points="6.419,100.179 6.689,98.339 7.363,98.339 6.915,100.179 			"/>
			<polygon style="fill:#29AB6E;" points="4.575,100.179 4.352,98.339 6.689,98.339 6.419,100.179 			"/>
			<path style="fill:#B8E3CF;" d="M12.755,98.339h-0.674l0.449,1.84h0.451L12.755,98.339z"/>
			<polygon style="fill:#007940;" points="14.868,100.179 15.095,98.339 15.813,98.339 15.362,100.179 			"/>
			<polygon style="fill:#29AB6E;" points="12.981,100.179 12.755,98.339 15.095,98.339 14.868,100.179 			"/>
			<path style="fill:#B8E3CF;" d="M21.204,98.339h-0.718l0.495,1.84h0.451L21.204,98.339z"/>
			<polygon style="fill:#007940;" points="23.318,100.179 23.542,98.339 24.217,98.339 23.769,100.179 			"/>
			<polygon style="fill:#29AB6E;" points="21.431,100.179 21.204,98.339 23.542,98.339 23.318,100.179 			"/>
		</g>
	</g>
	<g>
		<path style="fill:#B8E3CF;" d="M2.296,77.245H1.432l0.54,1.84h0.596L2.296,77.245z"/>
		<polygon style="fill:#007940;" points="4.79,79.085 5.115,77.245 5.926,77.245 5.387,79.085 		"/>
		<polygon style="fill:#29AB6E;" points="2.567,79.085 2.296,77.245 5.115,77.245 4.79,79.085 		"/>
		<path style="fill:#B8E3CF;" d="M12.428,77.245h-0.813l0.543,1.84H12.7L12.428,77.245z"/>
		<polygon style="fill:#007940;" points="14.973,79.085 15.247,77.245 16.111,77.245 15.57,79.085 		"/>
		<polygon style="fill:#29AB6E;" points="12.7,79.085 12.428,77.245 15.247,77.245 14.973,79.085 		"/>
		<path style="fill:#B8E3CF;" d="M22.613,77.245h-0.865l0.594,1.84h0.544L22.613,77.245z"/>
		<polygon style="fill:#007940;" points="25.159,79.085 25.433,77.245 26.244,77.245 25.703,79.085 		"/>
		<polygon style="fill:#29AB6E;" points="22.886,79.085 22.613,77.245 25.433,77.245 25.159,79.085 		"/>
	</g>
	<g>
		<path style="fill:#B8E3CF;" d="M2.296,22.938H1.432l0.54-1.842h0.596L2.296,22.938z"/>
		<polygon style="fill:#007940;" points="4.79,21.096 5.115,22.938 5.926,22.938 5.387,21.096 		"/>
		<polygon style="fill:#29AB6E;" points="2.567,21.096 2.296,22.938 5.115,22.938 4.79,21.096 		"/>
		<path style="fill:#B8E3CF;" d="M12.428,22.938h-0.813l0.543-1.842H12.7L12.428,22.938z"/>
		<polygon style="fill:#007940;" points="14.973,21.096 15.247,22.938 16.111,22.938 15.57,21.096 		"/>
		<polygon style="fill:#29AB6E;" points="12.7,21.096 12.428,22.938 15.247,22.938 14.973,21.096 		"/>
		<path style="fill:#B8E3CF;" d="M22.613,22.938h-0.865l0.594-1.842h0.544L22.613,22.938z"/>
		<polygon style="fill:#007940;" points="25.159,21.096 25.433,22.938 26.244,22.938 25.703,21.096 		"/>
		<polygon style="fill:#29AB6E;" points="22.886,21.096 22.613,22.938 25.433,22.938 25.159,21.096 		"/>
	</g>
	<g>
		
			<linearGradient id="SVGID_9_" gradientUnits="userSpaceOnUse" x1="-338.8306" y1="-357.769" x2="-310.979" y2="-357.769" gradientTransform="matrix(1 0 0 1 338.8306 383.9854)">
			<stop  offset="0.01" style="stop-color:#006033"/>
			<stop  offset="0.16" style="stop-color:#008948"/>
			<stop  offset="0.49" style="stop-color:#A8DDC4"/>
			<stop  offset="1" style="stop-color:#006033"/>
		</linearGradient>
		<rect y="22.938" style="fill:url(#SVGID_9_);" width="27.852" height="6.556"/>
		
			<linearGradient id="SVGID_10_" gradientUnits="userSpaceOnUse" x1="-338.8306" y1="-310.019" x2="-310.979" y2="-310.019" gradientTransform="matrix(1 0 0 1 338.8306 383.9854)">
			<stop  offset="0.01" style="stop-color:#006033"/>
			<stop  offset="0.16" style="stop-color:#008948"/>
			<stop  offset="0.49" style="stop-color:#A8DDC4"/>
			<stop  offset="1" style="stop-color:#006033"/>
		</linearGradient>
		<rect y="70.688" style="fill:url(#SVGID_10_);" width="27.852" height="6.558"/>
	</g>
	
		<linearGradient id="SVGID_11_" gradientUnits="userSpaceOnUse" x1="-335.0669" y1="-333.8945" x2="-331.5532" y2="-333.8945" gradientTransform="matrix(1 0 0 1 338.8306 383.9854)">
		<stop  offset="0.01" style="stop-color:#006033"/>
		<stop  offset="0.16" style="stop-color:#008948"/>
		<stop  offset="0.49" style="stop-color:#A8DDC4"/>
		<stop  offset="1" style="stop-color:#006033"/>
	</linearGradient>
	<rect x="3.764" y="29.494" style="fill:url(#SVGID_11_);" width="3.514" height="41.193"/>
	
		<linearGradient id="SVGID_12_" gradientUnits="userSpaceOnUse" x1="-318.2109" y1="-333.8945" x2="-314.7007" y2="-333.8945" gradientTransform="matrix(1 0 0 1 338.8306 383.9854)">
		<stop  offset="0.01" style="stop-color:#006033"/>
		<stop  offset="0.16" style="stop-color:#008948"/>
		<stop  offset="0.49" style="stop-color:#A8DDC4"/>
		<stop  offset="1" style="stop-color:#006033"/>
	</linearGradient>
	<rect x="20.62" y="29.494" style="fill:url(#SVGID_12_);" width="3.51" height="41.193"/>
	
		<linearGradient id="SVGID_13_" gradientUnits="userSpaceOnUse" x1="-325.6118" y1="-333.8965" x2="-324.1992" y2="-333.8965" gradientTransform="matrix(1 0 0 1 338.8306 383.9854)">
		<stop  offset="0.01" style="stop-color:#999999"/>
		<stop  offset="0.4" style="stop-color:#CCCCCC"/>
		<stop  offset="0.6" style="stop-color:#CCCCCC"/>
		<stop  offset="1" style="stop-color:#999999"/>
	</linearGradient>
	<rect x="13.219" y="31.129" style="fill:url(#SVGID_13_);" width="1.413" height="37.919"/>
	
		<linearGradient id="SVGID_14_" gradientUnits="userSpaceOnUse" x1="-327.2163" y1="-331.8755" x2="-322.7192" y2="-331.8755" gradientTransform="matrix(1 0 0 1 338.8306 383.9854)">
		<stop  offset="0.01" style="stop-color:#999999"/>
		<stop  offset="0.4" style="stop-color:#CCCCCC"/>
		<stop  offset="0.6" style="stop-color:#CCCCCC"/>
		<stop  offset="1" style="stop-color:#999999"/>
	</linearGradient>
	<rect x="11.614" y="48.335" style="fill:url(#SVGID_14_);" width="4.497" height="7.55"/>
	
		<linearGradient id="SVGID_15_" gradientUnits="userSpaceOnUse" x1="-329.4238" y1="-331.876" x2="-320.3408" y2="-331.876" gradientTransform="matrix(1 0 0 1 338.8306 383.9854)">
		<stop  offset="0.01" style="stop-color:#999999"/>
		<stop  offset="0.4" style="stop-color:#CCCCCC"/>
		<stop  offset="0.6" style="stop-color:#CCCCCC"/>
		<stop  offset="1" style="stop-color:#999999"/>
	</linearGradient>
	<rect x="9.407" y="51.077" style="fill:url(#SVGID_15_);" width="9.083" height="2.064"/>
	
		<linearGradient id="SVGID_16_" gradientUnits="userSpaceOnUse" x1="-328.1875" y1="-327.8271" x2="-321.7432" y2="-327.8271" gradientTransform="matrix(1 0 0 1 338.8306 383.9854)">
		<stop  offset="0.01" style="stop-color:#999999"/>
		<stop  offset="0.4" style="stop-color:#CCCCCC"/>
		<stop  offset="0.6" style="stop-color:#CCCCCC"/>
		<stop  offset="1" style="stop-color:#999999"/>
	</linearGradient>
	<rect x="10.643" y="54.853" style="fill:url(#SVGID_16_);" width="6.444" height="2.611"/>
</g>
<g>
</g>
<g>
</g>
<g>
</g>
<g>
</g>
<g>
</g>
<g>
</g>
<g>
</g>
<g>
</g>
<g>
</g>
<g>
</g>
<g>
</g>
<g>
</g>
<g>
</g>
<g>
</g>
<g>
</g>
</svg>
