<?xml version="1.0" encoding="iso-8859-1"?>
<!-- Generator: Adobe Illustrator 16.0.0, SVG Export Plug-In . SVG Version: 6.00 Build 0)  -->
<!DOCTYPE svg PUBLIC "-//W3C//DTD SVG 1.1//EN" "http://www.w3.org/Graphics/SVG/1.1/DTD/svg11.dtd">
<svg version="1.1" xmlns="http://www.w3.org/2000/svg" xmlns:xlink="http://www.w3.org/1999/xlink" x="0px" y="0px" width="70px"
	 height="70px" viewBox="0 0 70 70" style="enable-background:new 0 0 70 70;" xml:space="preserve">
<g id="Layer_3">
	<linearGradient id="SVGID_1_" gradientUnits="userSpaceOnUse" x1="2.9995" y1="32.6309" x2="55.25" y2="32.6309">
		<stop  offset="0" style="stop-color:#808080"/>
		<stop  offset="0.05" style="stop-color:#BCBABD"/>
		<stop  offset="0.95" style="stop-color:#BCBABD"/>
		<stop  offset="1" style="stop-color:#616161"/>
	</linearGradient>
	<rect x="3" y="10.38" style="fill:url(#SVGID_1_);" width="52.25" height="44.5"/>
	<linearGradient id="SVGID_2_" gradientUnits="userSpaceOnUse" x1="29.125" y1="66.1719" x2="29.125" y2="56.4434">
		<stop  offset="0" style="stop-color:#808080"/>
		<stop  offset="0.15" style="stop-color:#737373"/>
		<stop  offset="0.7734" style="stop-color:#737373"/>
		<stop  offset="0.85" style="stop-color:#454545"/>
		<stop  offset="1" style="stop-color:#3D3D3D"/>
	</linearGradient>
	<rect x="3" y="56.443" style="fill:url(#SVGID_2_);" width="52.25" height="9.729"/>
	<rect x="3" y="54.881" style="fill:#666666;" width="52.25" height="1.563"/>
	<rect x="3" y="66.172" style="fill:#666666;" width="52.25" height="1.334"/>
	
		<linearGradient id="SVGID_3_" gradientUnits="userSpaceOnUse" x1="2.9995" y1="140.791" x2="6.1245" y2="140.791" gradientTransform="matrix(1 0 0 -1 0 201.125)">
		<stop  offset="0" style="stop-color:#454545"/>
		<stop  offset="0.15" style="stop-color:#7A7A7A"/>
		<stop  offset="0.85" style="stop-color:#7A7A7A"/>
		<stop  offset="1" style="stop-color:#454545"/>
	</linearGradient>
	<rect x="3" y="55.662" style="fill:url(#SVGID_3_);" width="3.125" height="9.344"/>
	<rect x="3" y="65.006" style="fill:#353535;" width="3.125" height="1.166"/>
	
		<linearGradient id="SVGID_4_" gradientUnits="userSpaceOnUse" x1="27.562" y1="141.9951" x2="30.687" y2="141.9951" gradientTransform="matrix(1 0 0 -1 0 201.125)">
		<stop  offset="0" style="stop-color:#454545"/>
		<stop  offset="0.15" style="stop-color:#7A7A7A"/>
		<stop  offset="0.85" style="stop-color:#7A7A7A"/>
		<stop  offset="1" style="stop-color:#454545"/>
	</linearGradient>
	<rect x="27.562" y="56.416" style="fill:url(#SVGID_4_);" width="3.125" height="5.428"/>
	<rect x="27.562" y="61.771" style="fill:#353535;" width="3.125" height="2.479"/>
	
		<linearGradient id="SVGID_5_" gradientUnits="userSpaceOnUse" x1="15.812" y1="141.9951" x2="18.937" y2="141.9951" gradientTransform="matrix(1 0 0 -1 0 201.125)">
		<stop  offset="0" style="stop-color:#454545"/>
		<stop  offset="0.15" style="stop-color:#7A7A7A"/>
		<stop  offset="0.85" style="stop-color:#7A7A7A"/>
		<stop  offset="1" style="stop-color:#454545"/>
	</linearGradient>
	<rect x="15.812" y="56.416" style="fill:url(#SVGID_5_);" width="3.125" height="5.428"/>
	<rect x="15.812" y="61.771" style="fill:#353535;" width="3.125" height="2.479"/>
	
		<linearGradient id="SVGID_6_" gradientUnits="userSpaceOnUse" x1="40.062" y1="141.9951" x2="43.187" y2="141.9951" gradientTransform="matrix(1 0 0 -1 0 201.125)">
		<stop  offset="0" style="stop-color:#454545"/>
		<stop  offset="0.15" style="stop-color:#7A7A7A"/>
		<stop  offset="0.85" style="stop-color:#7A7A7A"/>
		<stop  offset="1" style="stop-color:#454545"/>
	</linearGradient>
	<rect x="40.062" y="56.416" style="fill:url(#SVGID_6_);" width="3.125" height="5.428"/>
	<rect x="40.062" y="61.771" style="fill:#353535;" width="3.125" height="2.479"/>
	
		<linearGradient id="SVGID_7_" gradientUnits="userSpaceOnUse" x1="52.125" y1="140.791" x2="55.25" y2="140.791" gradientTransform="matrix(1 0 0 -1 0 201.125)">
		<stop  offset="0" style="stop-color:#454545"/>
		<stop  offset="0.15" style="stop-color:#7A7A7A"/>
		<stop  offset="0.85" style="stop-color:#7A7A7A"/>
		<stop  offset="1" style="stop-color:#454545"/>
	</linearGradient>
	<rect x="52.125" y="55.662" style="fill:url(#SVGID_7_);" width="3.125" height="9.344"/>
	<rect x="52.125" y="65.006" style="fill:#353535;" width="3.125" height="1.166"/>
	<rect x="7.667" y="1.502" style="fill:#353535;" width="35.521" height="8.878"/>
	<line style="fill:#FF0000;stroke:#7C7C7C;stroke-width:0.5;stroke-miterlimit:10;" x1="3" y1="41.839" x2="55.25" y2="41.839"/>
</g>
<g id="Layer_6">
	<g>
		<path style="fill:#494949;" d="M8.023,36.903c0.188,0.131,0.469,0.245,0.764,0.245c0.37,0,0.576-0.21,0.576-0.523
			c0-0.291-0.159-0.461-0.562-0.638c-0.52-0.228-0.853-0.563-0.853-1.115c0-0.626,0.431-1.104,1.115-1.104
			c0.342,0,0.595,0.091,0.759,0.194l-0.14,0.563c-0.113-0.074-0.333-0.182-0.628-0.182c-0.365,0-0.525,0.239-0.525,0.461
			c0,0.296,0.183,0.433,0.604,0.632c0.548,0.25,0.815,0.586,0.815,1.138c0,0.615-0.384,1.15-1.199,1.15
			c-0.333,0-0.679-0.114-0.853-0.239L8.023,36.903z"/>
		<path style="fill:#494949;" d="M11.07,34.416H10.17V33.83h2.384v0.586h-0.909v3.25H11.07V34.416z"/>
		<path style="fill:#494949;" d="M15.592,35.708c0,1.287-0.642,2.021-1.513,2.021c-0.89,0-1.452-0.825-1.452-1.952
			c0-1.178,0.609-2.009,1.499-2.009C15.048,33.767,15.592,34.615,15.592,35.708z M13.236,35.765c0,0.78,0.323,1.4,0.876,1.4
			c0.557,0,0.871-0.626,0.871-1.428c0-0.723-0.295-1.406-0.871-1.406C13.54,34.331,13.236,34.974,13.236,35.765z"/>
		<path style="fill:#494949;" d="M16.084,33.881c0.206-0.046,0.492-0.08,0.881-0.08c0.421,0,0.73,0.108,0.932,0.313
			c0.188,0.188,0.309,0.489,0.309,0.848c0,0.364-0.094,0.666-0.271,0.871c-0.229,0.279-0.59,0.41-0.998,0.41
			c-0.107,0-0.206-0.006-0.281-0.023v1.446h-0.572V33.881z M16.656,35.668c0.07,0.022,0.164,0.028,0.281,0.028
			c0.431,0,0.693-0.256,0.693-0.706c0-0.427-0.244-0.655-0.642-0.655c-0.159,0-0.272,0.017-0.333,0.034V35.668z"/>
	</g>
	<g>
		<path style="fill:#494949;" d="M21.288,33.881c0.215-0.046,0.539-0.08,0.872-0.08c0.454,0,0.763,0.091,0.974,0.308
			c0.173,0.176,0.272,0.444,0.272,0.768c0,0.496-0.276,0.831-0.572,0.962v0.017c0.225,0.103,0.361,0.37,0.44,0.74
			c0.098,0.478,0.183,0.922,0.248,1.07h-0.595c-0.047-0.114-0.122-0.427-0.211-0.905c-0.089-0.501-0.239-0.66-0.567-0.672h-0.29
			v1.577h-0.572V33.881z M21.859,35.577h0.342c0.389,0,0.632-0.25,0.632-0.632c0-0.421-0.244-0.615-0.618-0.615
			c-0.183,0-0.3,0.017-0.356,0.034V35.577z"/>
		<path style="fill:#494949;" d="M25.715,35.964h-1.19v1.127h1.331v0.575h-1.907V33.83h1.836v0.575h-1.26v0.99h1.19V35.964z"/>
		<path style="fill:#494949;" d="M26.344,36.903c0.188,0.131,0.469,0.245,0.764,0.245c0.37,0,0.576-0.21,0.576-0.523
			c0-0.291-0.159-0.461-0.562-0.638c-0.52-0.228-0.853-0.563-0.853-1.115c0-0.626,0.431-1.104,1.115-1.104
			c0.342,0,0.595,0.091,0.759,0.194l-0.14,0.563c-0.113-0.074-0.333-0.182-0.628-0.182c-0.365,0-0.524,0.239-0.524,0.461
			c0,0.296,0.183,0.433,0.604,0.632c0.548,0.25,0.815,0.586,0.815,1.138c0,0.615-0.384,1.15-1.199,1.15
			c-0.333,0-0.679-0.114-0.853-0.239L26.344,36.903z"/>
		<path style="fill:#494949;" d="M30.552,35.964h-1.19v1.127h1.331v0.575h-1.907V33.83h1.836v0.575h-1.26v0.99h1.19V35.964z"/>
		<path style="fill:#494949;" d="M31.847,34.416h-0.899V33.83h2.384v0.586h-0.909v3.25h-0.576V34.416z"/>
	</g>
	<g>
		<linearGradient id="SVGID_8_" gradientUnits="userSpaceOnUse" x1="7.7051" y1="48.4292" x2="13.7051" y2="48.4292">
			<stop  offset="0" style="stop-color:#7C7C7C"/>
			<stop  offset="0.7291" style="stop-color:#CCCCCC"/>
		</linearGradient>
		<path style="fill:url(#SVGID_8_);stroke:#3A3A3A;stroke-width:0.5;stroke-miterlimit:10;" d="M13.705,48.429c0,1.656-1.343,3-3,3
			l0,0c-1.657,0-3-1.344-3-3l0,0c0-1.656,1.343-3,3-3l0,0C12.362,45.429,13.705,46.773,13.705,48.429L13.705,48.429z"/>
		
			<line style="fill:none;stroke:#5E5E5E;stroke-linecap:round;stroke-miterlimit:10;" x1="9.203" y1="50.02" x2="12.207" y2="46.838"/>
		
			<line style="fill:none;stroke:#5E5E5E;stroke-linecap:round;stroke-miterlimit:10;" x1="9.205" y1="46.908" x2="12.206" y2="49.951"/>
	</g>
	<g>
		<linearGradient id="SVGID_9_" gradientUnits="userSpaceOnUse" x1="20.1284" y1="48.4292" x2="26.1284" y2="48.4292">
			<stop  offset="0" style="stop-color:#7C7C7C"/>
			<stop  offset="0.7291" style="stop-color:#CCCCCC"/>
		</linearGradient>
		<path style="fill:url(#SVGID_9_);stroke:#3A3A3A;stroke-width:0.5;stroke-miterlimit:10;" d="M26.128,48.429c0,1.656-1.343,3-3,3
			l0,0c-1.657,0-3-1.344-3-3l0,0c0-1.656,1.343-3,3-3l0,0C24.785,45.429,26.128,46.773,26.128,48.429L26.128,48.429z"/>
		
			<line style="fill:none;stroke:#5E5E5E;stroke-linecap:round;stroke-miterlimit:10;" x1="21.626" y1="50.02" x2="24.63" y2="46.838"/>
		
			<line style="fill:none;stroke:#5E5E5E;stroke-linecap:round;stroke-miterlimit:10;" x1="21.627" y1="46.908" x2="24.629" y2="49.951"/>
	</g>
	<g>
		<linearGradient id="SVGID_10_" gradientUnits="userSpaceOnUse" x1="32.2495" y1="48.4292" x2="38.2495" y2="48.4292">
			<stop  offset="0" style="stop-color:#7C7C7C"/>
			<stop  offset="0.7291" style="stop-color:#CCCCCC"/>
		</linearGradient>
		<path style="fill:url(#SVGID_10_);stroke:#3A3A3A;stroke-width:0.5;stroke-miterlimit:10;" d="M38.25,48.429c0,1.656-1.343,3-3,3
			l0,0c-1.657,0-3-1.344-3-3l0,0c0-1.656,1.343-3,3-3l0,0C36.906,45.429,38.25,46.773,38.25,48.429L38.25,48.429z"/>
		
			<line style="fill:none;stroke:#5E5E5E;stroke-linecap:round;stroke-miterlimit:10;" x1="33.748" y1="50.02" x2="36.751" y2="46.838"/>
		
			<line style="fill:none;stroke:#5E5E5E;stroke-linecap:round;stroke-miterlimit:10;" x1="33.749" y1="46.908" x2="36.75" y2="49.951"/>
	</g>
	<g>
		<linearGradient id="SVGID_11_" gradientUnits="userSpaceOnUse" x1="44.5444" y1="48.4292" x2="50.5444" y2="48.4292">
			<stop  offset="0" style="stop-color:#7C7C7C"/>
			<stop  offset="0.7291" style="stop-color:#CCCCCC"/>
		</linearGradient>
		<path style="fill:url(#SVGID_11_);stroke:#3A3A3A;stroke-width:0.5;stroke-miterlimit:10;" d="M50.544,48.429c0,1.656-1.343,3-3,3
			l0,0c-1.657,0-3-1.344-3-3l0,0c0-1.656,1.343-3,3-3l0,0C49.202,45.429,50.544,46.773,50.544,48.429L50.544,48.429z"/>
		
			<line style="fill:none;stroke:#5E5E5E;stroke-linecap:round;stroke-miterlimit:10;" x1="46.043" y1="50.02" x2="49.047" y2="46.838"/>
		
			<line style="fill:none;stroke:#5E5E5E;stroke-linecap:round;stroke-miterlimit:10;" x1="46.044" y1="46.908" x2="49.046" y2="49.951"/>
	</g>
	<rect x="10.705" y="18.005" style="fill:#909091;" width="6.899" height="14.625"/>
	
		<rect x="42.482" y="21.318" style="fill:none;stroke:#848484;stroke-width:0.5;stroke-miterlimit:10;" width="3.562" height="6.875"/>
	<path style="fill:none;stroke:#7C7C7C;stroke-width:0.5;stroke-miterlimit:10;" d="M33.748,10.38v1.458c0,0-1.415-0.167-1.498,2.5
		s1.499,2.854,1.499,2.854v2.479H55.25"/>
	
		<rect x="10.705" y="18.005" style="fill:#B22D2D;stroke:#4C0808;stroke-width:0.5;stroke-miterlimit:10;" width="5.961" height="13.5"/>
</g>
<g id="off">
	<circle style="fill:#909091;" cx="28.014" cy="26.204" r="6.53"/>
	<circle style="fill:#2E35AF;stroke:#2C2C49;stroke-width:0.5;stroke-miterlimit:10;" cx="27.562" cy="25.38" r="5.708"/>
</g>
<g id="on" style="display:none;">
	
		<circle style="display:inline;fill:#2E35AF;stroke:#2C2C49;stroke-width:0.3;stroke-miterlimit:10;" cx="27.562" cy="29.875" r="5.708"/>
</g>
</svg>
