<?xml version="1.0" encoding="utf-8"?>
<!-- Generator: Adobe Illustrator 16.0.0, SVG Export Plug-In . SVG Version: 6.00 Build 0)  -->
<!DOCTYPE svg PUBLIC "-//W3C//DTD SVG 1.1//EN" "http://www.w3.org/Graphics/SVG/1.1/DTD/svg11.dtd">
<svg version="1.1" id="Layer_1" xmlns="http://www.w3.org/2000/svg" xmlns:xlink="http://www.w3.org/1999/xlink" x="0px" y="0px"
	 width="64px" height="64px" viewBox="0 0 64 64" enable-background="new 0 0 64 64" xml:space="preserve">
<linearGradient id="SVGID_1_" gradientUnits="userSpaceOnUse" x1="479.3115" y1="-540.062" x2="493.6055" y2="-540.062" gradientTransform="matrix(0 -0.5689 -0.5689 0 -290.8074 285.7166)">
	<stop  offset="0.01" style="stop-color:#4F4F4F"/>
	<stop  offset="0.5" style="stop-color:#B3B3B3"/>
	<stop  offset="1" style="stop-color:#4F4F4F"/>
</linearGradient>
<path fill="url(#SVGID_1_)" stroke="#4C4C4C" stroke-width="0.25" d="M23.512,13.037l-7.273-0.311l-0.469-0.468l-6.412-0.313
	l-0.472-0.471V6.625l0.472-0.469l6.412-0.471l0.469-0.311l7.273-0.469l0.469,0.469v7.352L23.512,13.037"/>
<linearGradient id="SVGID_2_" gradientUnits="userSpaceOnUse" x1="515.6045" y1="-679.9194" x2="493.9797" y2="-658.2947" gradientTransform="matrix(0.5689 0 0 -0.5689 -252.7879 -316.657)">
	<stop  offset="0.01" style="stop-color:#595959"/>
	<stop  offset="0.51" style="stop-color:#E0E0E0"/>
	<stop  offset="1" style="stop-color:#595959"/>
</linearGradient>
<path fill="url(#SVGID_2_)" stroke="#4C4C4C" stroke-width="0.25" d="M46.689,63.998h-3.918H22.086"/>
<linearGradient id="SVGID_3_" gradientUnits="userSpaceOnUse" x1="524.6416" y1="-677.6523" x2="478.0623" y2="-631.0731" gradientTransform="matrix(0.5689 0 0 -0.5689 -252.7879 -316.657)">
	<stop  offset="0.01" style="stop-color:#595959"/>
	<stop  offset="0.51" style="stop-color:#E0E0E0"/>
	<stop  offset="1" style="stop-color:#595959"/>
</linearGradient>
<path fill="url(#SVGID_3_)" stroke="#4C4C4C" stroke-width="0.25" d="M14.32,63.998V64v-2.608h2.609V44.612l6.46-1.3h18.078
	l6.466,1.3v16.779h2.607v2.606H14.32z"/>
<path fill="none" stroke="#4C4C4C" stroke-width="0.25" d="M41.468,43.931v3.229"/>
<path fill="none" stroke="#4C4C4C" stroke-width="0.25" d="M46.689,47.16v14.231H18.234"/>
<path fill="none" stroke="#4C4C4C" stroke-width="0.25" d="M22.086,58.844v-1.306h20.686"/>
<path fill="none" stroke="#4C4C4C" stroke-width="0.25" d="M22.086,56.23v-1.302h20.686"/>
<path fill="none" stroke="#FFFFFF" stroke-width="0.25" d="M42.771,57.538v1.306H22.086"/>
<path fill="none" stroke="#FFFFFF" stroke-width="0.25" d="M42.771,54.929v1.302H22.086"/>
<path fill="none" stroke="#FFFFFF" stroke-width="0.25" d="M41.468,47.16h5.222"/>
<path fill="none" stroke="#FFFFFF" stroke-width="0.25" d="M18.234,61.392V47.16h5.156v-3.229h18.078"/>
<linearGradient id="SVGID_4_" gradientUnits="userSpaceOnUse" x1="485.46" y1="-618.4897" x2="517.2373" y2="-618.4897" gradientTransform="matrix(0.5689 0 0 -0.5689 -252.7879 -316.657)">
	<stop  offset="0.01" style="stop-color:#595959"/>
	<stop  offset="0.51" style="stop-color:#E0E0E0"/>
	<stop  offset="1" style="stop-color:#595959"/>
</linearGradient>
<path fill="url(#SVGID_4_)" stroke="#4C4C4C" stroke-width="0.25" d="M23.39,29.703h18.078v10.999H23.39V29.703"/>
<linearGradient id="SVGID_5_" gradientUnits="userSpaceOnUse" x1="487.7529" y1="-607.1328" x2="514.9434" y2="-607.1328" gradientTransform="matrix(0.5689 0 0 -0.5689 -252.7879 -316.657)">
	<stop  offset="0.01" style="stop-color:#262626"/>
	<stop  offset="0.51" style="stop-color:#B3B3B3"/>
	<stop  offset="1" style="stop-color:#262626"/>
</linearGradient>
<path fill="url(#SVGID_5_)" d="M24.694,29.703h15.469v-1.923H24.694V29.703z"/>
<linearGradient id="SVGID_6_" gradientUnits="userSpaceOnUse" x1="469.5088" y1="-572.3813" x2="533.1855" y2="-572.3813" gradientTransform="matrix(0.5689 0 0 -0.5689 -252.7879 -316.657)">
	<stop  offset="0.01" style="stop-color:#595959"/>
	<stop  offset="0.51" style="stop-color:#E0E0E0"/>
	<stop  offset="1" style="stop-color:#595959"/>
</linearGradient>
<path fill="url(#SVGID_6_)" stroke="#4C4C4C" stroke-width="0.25" d="M14.315,0.182h36.226V17.76H14.315V0.182"/>
<path fill="#999EFF" stroke="#4C4C4C" stroke-width="0.25" d="M23.39,40.701h18.078v2.611H23.39V40.701z"/>
<radialGradient id="SVGID_7_" cx="335.9717" cy="-376.1157" r="23.1543" gradientTransform="matrix(0.8397 0 0 -0.8486 -249.6451 -299.7688)" gradientUnits="userSpaceOnUse">
	<stop  offset="0.86" style="stop-color:#BFBFBF"/>
	<stop  offset="0.87" style="stop-color:#C4C4C4"/>
	<stop  offset="0.89" style="stop-color:#D1D1D1"/>
	<stop  offset="0.91" style="stop-color:#E8E8E8"/>
	<stop  offset="0.92" style="stop-color:#F5F5F5"/>
	<stop  offset="1" style="stop-color:#4D4D4D"/>
</radialGradient>
<path fill="url(#SVGID_7_)" d="M32.469-0.088c10.823,0,19.597,8.73,19.597,19.491c0,10.766-8.773,19.494-19.597,19.494
	c-10.821,0-19.595-8.728-19.595-19.494C12.874,8.642,21.647-0.088,32.469-0.088z"/>
<linearGradient id="SVGID_8_" gradientUnits="userSpaceOnUse" x1="466.8994" y1="-591.0791" x2="517.2139" y2="-591.0791" gradientTransform="matrix(0.5689 0 0 -0.5689 -247.5027 -316.657)">
	<stop  offset="0" style="stop-color:#939393"/>
	<stop  offset="0.33" style="stop-color:#58595B"/>
	<stop  offset="0.55" style="stop-color:#D6D6D6"/>
	<stop  offset="1" style="stop-color:#262626"/>
</linearGradient>
<path fill="url(#SVGID_8_)" stroke="#4C4C4C" stroke-width="0.25" d="M45.023,26.959H19.991l-0.938-1.093l-0.626-2.191l-0.311-2.657
	v-2.973l0.311-2.659l0.626-2.036l0.78-1.093h25.19l0.78,1.093l0.626,2.036l0.311,2.659v2.973l-0.311,2.657l-0.626,2.191
	L45.023,26.959z"/>
<path fill="#D9D9D9" stroke="#C4C4C4" stroke-width="0.25" d="M43.929,25.708H20.934l-0.626-0.94l-0.547-1.717l-0.313-2.191v-2.504
	l0.313-2.191l0.547-1.875l0.626-0.94h22.995l0.779,0.94l0.472,1.722l0.313,2.344v2.504l-0.313,2.191l-0.472,1.717L43.929,25.708z"/>
</svg>
