<?xml version="1.0" encoding="iso-8859-1"?>
<!-- Generator: Adobe Illustrator 16.0.0, SVG Export Plug-In . SVG Version: 6.00 Build 0)  -->
<!DOCTYPE svg PUBLIC "-//W3C//DTD SVG 1.1//EN" "http://www.w3.org/Graphics/SVG/1.1/DTD/svg11.dtd">
<svg version="1.1" id="Layer_1" xmlns="http://www.w3.org/2000/svg" xmlns:xlink="http://www.w3.org/1999/xlink" x="0px" y="0px"
	 width="100.006px" height="100px" viewBox="0 0 100.006 100" style="enable-background:new 0 0 100.006 100;" xml:space="preserve"
	>
<g>
	<polygon style="fill-rule:evenodd;clip-rule:evenodd;fill:#767778;" points="98.705,71.069 98.705,28.292 54.553,28.292 
		20.319,14.046 4.509,14.046 4.509,85.328 20.319,85.754 54.553,71.069 	"/>
	<polygon style="fill-rule:evenodd;clip-rule:evenodd;fill:#8F9091;" points="98.705,68.556 98.705,31.232 54.553,31.232 
		20.319,19.074 4.509,18.649 4.509,80.713 20.319,80.713 54.553,68.556 	"/>
	<polygon style="fill-rule:evenodd;clip-rule:evenodd;fill:#A6A7A8;" points="98.705,63.94 98.705,35.422 54.553,35.422 
		20.319,26.204 4.509,25.779 4.509,73.583 20.319,73.583 54.553,63.94 	"/>
	<polygon style="fill-rule:evenodd;clip-rule:evenodd;fill:#C0C1C3;" points="98.705,59.75 98.705,39.625 54.553,39.625 
		20.319,32.92 4.509,32.92 4.509,66.454 20.319,66.454 54.553,59.75 	"/>
	<polygon style="fill-rule:evenodd;clip-rule:evenodd;fill:#DBDCDD;" points="98.705,56.397 98.705,43.39 54.553,43.39 20.319,39.2 
		4.509,38.787 4.509,60.588 20.319,60.588 54.553,56.397 	"/>
	<polygon style="fill-rule:evenodd;clip-rule:evenodd;fill:#FFFFFF;" points="98.705,51.782 98.705,47.592 54.553,47.592 
		20.319,46.329 4.509,45.904 4.509,53.458 20.319,53.458 54.553,51.782 	"/>
	<polyline style="fill-rule:evenodd;clip-rule:evenodd;fill:none;" points="98.705,71.069 98.705,28.292 54.553,28.292 
		20.319,14.046 4.509,14.046 4.509,85.754 19.719,85.754 54.553,71.069 98.705,71.069 	"/>
	<rect y="0.413" style="fill-rule:evenodd;clip-rule:evenodd;fill:#767778;" width="5.109" height="99.587"/>
	<rect y="6.492" style="fill-rule:evenodd;clip-rule:evenodd;fill:#8F9091;" width="5.109" height="87.642"/>
	<rect y="17.186" style="fill-rule:evenodd;clip-rule:evenodd;fill:#A6A7A8;" width="5.109" height="66.467"/>
	<rect y="27.042" style="fill-rule:evenodd;clip-rule:evenodd;fill:#C0C1C3;" width="5.109" height="46.129"/>
	<rect y="35.422" style="fill-rule:evenodd;clip-rule:evenodd;fill:#DBDCDD;" width="5.109" height="29.356"/>
	<rect y="44.228" style="fill-rule:evenodd;clip-rule:evenodd;fill:#FFFFFF;" width="5.109" height="11.745"/>
	<polyline style="fill-rule:evenodd;clip-rule:evenodd;fill:none;" points="5.109,0 0,0 0,100 5.109,100 5.109,0 	"/>
	<rect x="17.517" y="0.413" style="fill-rule:evenodd;clip-rule:evenodd;fill:#767778;" width="5.209" height="99.587"/>
	<rect x="17.517" y="6.917" style="fill-rule:evenodd;clip-rule:evenodd;fill:#8F9091;" width="5.209" height="87.217"/>
	<rect x="17.517" y="17.398" style="fill-rule:evenodd;clip-rule:evenodd;fill:#A6A7A8;" width="5.209" height="65.828"/>
	<rect x="17.517" y="27.042" style="fill-rule:evenodd;clip-rule:evenodd;fill:#C0C1C3;" width="5.209" height="45.703"/>
	<rect x="17.517" y="35.422" style="fill-rule:evenodd;clip-rule:evenodd;fill:#DBDCDD;" width="5.209" height="29.356"/>
	<rect x="17.517" y="44.228" style="fill-rule:evenodd;clip-rule:evenodd;fill:#FFFFFF;" width="5.209" height="12.17"/>
	<polyline style="fill-rule:evenodd;clip-rule:evenodd;fill:none;" points="22.727,0 17.517,0 17.517,100 22.727,100 22.727,0 	"/>
	<rect x="91.601" y="21.163" style="fill-rule:evenodd;clip-rule:evenodd;fill:#767778;" width="3.402" height="57.036"/>
	<rect x="91.601" y="25.354" style="fill-rule:evenodd;clip-rule:evenodd;fill:#8F9091;" width="3.402" height="49.493"/>
	<rect x="91.601" y="31.232" style="fill-rule:evenodd;clip-rule:evenodd;fill:#A6A7A8;" width="3.402" height="37.749"/>
	<rect x="91.601" y="36.686" style="fill-rule:evenodd;clip-rule:evenodd;fill:#C0C1C3;" width="3.402" height="26.416"/>
	<rect x="91.601" y="41.713" style="fill-rule:evenodd;clip-rule:evenodd;fill:#DBDCDD;" width="3.402" height="16.361"/>
	<rect x="91.601" y="46.754" style="fill-rule:evenodd;clip-rule:evenodd;fill:#FFFFFF;" width="3.402" height="6.704"/>
	<polyline style="fill-rule:evenodd;clip-rule:evenodd;fill:none;" points="95.003,21.163 91.4,21.163 91.4,78.199 95.003,78.199 
		95.003,21.163 	"/>
	<rect x="94.803" y="0.413" style="fill-rule:evenodd;clip-rule:evenodd;fill:#767778;" width="5.203" height="99.587"/>
	<rect x="94.803" y="6.917" style="fill-rule:evenodd;clip-rule:evenodd;fill:#8F9091;" width="5.203" height="87.217"/>
	<rect x="94.803" y="17.398" style="fill-rule:evenodd;clip-rule:evenodd;fill:#A6A7A8;" width="5.203" height="65.828"/>
	<rect x="94.803" y="27.042" style="fill-rule:evenodd;clip-rule:evenodd;fill:#C0C1C3;" width="5.203" height="45.703"/>
	<rect x="94.803" y="35.422" style="fill-rule:evenodd;clip-rule:evenodd;fill:#DBDCDD;" width="5.203" height="29.356"/>
	<rect x="94.803" y="44.228" style="fill-rule:evenodd;clip-rule:evenodd;fill:#FFFFFF;" width="5.203" height="12.17"/>
	<polyline style="fill-rule:evenodd;clip-rule:evenodd;fill:none;" points="100.006,0 95.003,0 95.003,100 100.006,100 100.006,0 	
		"/>
	<line style="fill-rule:evenodd;clip-rule:evenodd;fill:none;" x1="54.553" y1="28.292" x2="54.553" y2="71.069"/>
</g>
<g>
</g>
<g>
</g>
<g>
</g>
<g>
</g>
<g>
</g>
<g>
</g>
<g>
</g>
<g>
</g>
<g>
</g>
<g>
</g>
<g>
</g>
<g>
</g>
<g>
</g>
<g>
</g>
<g>
</g>
</svg>
